<?xml version="1.0" encoding="us-ascii" standalone="no"?><svg xmlns="http://www.w3.org/2000/svg" xmlns:xlink="http://www.w3.org/1999/xlink" contentStyleType="text/css" height="1869.7917px" preserveAspectRatio="none" style="width:1062px;height:1869px;" version="1.1" viewBox="0 0 1062 1869" width="1062.5px" zoomAndPan="magnify"><defs><linearGradient id="g1upit6shxkgm90" x1="50%" x2="50%" y1="0%" y2="100%"><stop offset="0%" stop-color="#FFFFFF"/><stop offset="100%" stop-color="#FFFFFF"/></linearGradient><linearGradient id="g1upit6shxkgm91" x1="50%" x2="50%" y1="0%" y2="100%"><stop offset="0%" stop-color="#4DABF5"/><stop offset="100%" stop-color="#2196F3"/></linearGradient><filter height="300%" id="f1upit6shxkgm9" width="300%" x="-1" y="-1"><feGaussianBlur result="blurOut" stdDeviation="2.0833333333333335"/><feColorMatrix in="blurOut" result="blurOut2" type="matrix" values="0 0 0 0 0 0 0 0 0 0 0 0 0 0 0 0 0 0 .4 0"/><feOffset dx="4.166666666666667" dy="4.166666666666667" in="blurOut2" result="blurOut3"/><feBlend in="SourceGraphic" in2="blurOut3" mode="normal"/></filter><linearGradient id="g1upit6shxkgm92" x1="50%" x2="50%" y1="0%" y2="100%"><stop offset="0%" stop-color="#2196F3"/><stop offset="100%" stop-color="#1A78C2"/></linearGradient></defs><g><rect fill="url(#g1upit6shxkgm90)" height="57.5846" id="_title" rx="4.1667" ry="4.1667" style="stroke:#CCCCCC;stroke-width:1.0416666666666667;" width="379.1667" x="337.2396" y="20.8333"/><text fill="#2196F3" font-family="Verdana" font-size="20.8333" font-weight="bold" lengthAdjust="spacing" textLength="345.8333" x="353.9063" y="56.838">Modelo Conceptual de Datos</text><!--class usuario--><g id="elem_usuario"><rect codeLine="3" fill="url(#g1upit6shxkgm91)" filter="url(#f1upit6shxkgm9)" height="266.2842" id="usuario" rx="4.1667" ry="4.1667" style="stroke:#2196F3;stroke-width:1.0416666666666667;" width="160.4167" x="662.5" y="97.168"/><rect fill="url(#g1upit6shxkgm92)" height="44.5882" rx="4.1667" ry="4.1667" style="stroke:url(#g1upit6shxkgm92);stroke-width:1.0416666666666667;" width="160.4167" x="662.5" y="97.168"/><rect fill="url(#g1upit6shxkgm92)" height="4.1667" style="stroke:url(#g1upit6shxkgm92);stroke-width:1.0416666666666667;" width="160.4167" x="662.5" y="137.5895"/><rect codeLine="3" fill="none" height="266.2842" id="usuario" rx="4.1667" ry="4.1667" style="stroke:#2196F3;stroke-width:1.0416666666666667;" width="160.4167" x="662.5" y="97.168"/><ellipse cx="706.25" cy="119.4621" fill="none" rx="10.4167" ry="10.4167" style="stroke:#1A78C2;stroke-width:1.0416666666666667;"/><path d="M705.5501,120.0643 L706.6081,120.0643 L706.6081,120.1619 C706.6081,120.4549 706.6406,120.5688 706.7057,120.6828 C706.8197,120.8781 707.0313,120.9757 707.2428,120.9757 C707.4219,120.9757 707.6172,120.8781 707.7311,120.7153 C707.8288,120.6014 707.8451,120.4875 707.8451,120.1619 L707.8451,118.7459 C707.8451,118.632 707.8451,118.5994 707.8451,118.4855 C707.7799,118.1274 707.5684,117.9159 707.2266,117.9159 C707.0313,117.9159 706.8522,118.0135 706.722,118.1763 C706.6406,118.2902 706.6081,118.4041 706.6081,118.7459 L706.6081,118.8273 L705.5501,118.8273 L705.5501,117.0695 L708.4798,117.0695 L708.4798,117.688 C708.4798,117.9972 708.4961,118.1274 708.5612,118.2251 C708.6914,118.4204 708.8867,118.5343 709.0983,118.5343 C709.2936,118.5343 709.4889,118.4367 709.6191,118.2739 C709.7005,118.1437 709.7331,118.0461 709.7331,117.688 L709.7331,115.8162 L704.1178,115.8162 C703.7923,115.8162 703.6947,115.8325 703.5807,115.9139 C703.4017,116.0278 703.2878,116.2394 703.2878,116.451 C703.2878,116.6463 703.3854,116.8254 703.5482,116.9556 C703.6621,117.0532 703.7923,117.0695 704.1178,117.0695 L704.2969,117.0695 L704.2969,121.8547 L704.1178,121.8547 C703.8086,121.8547 703.6947,121.8709 703.5807,121.9523 C703.4017,122.0662 703.2878,122.2778 703.2878,122.4894 C703.2878,122.6847 703.3854,122.8638 703.5482,122.9777 C703.6458,123.0754 703.8249,123.1079 704.1178,123.1079 L709.9935,123.1079 L709.9935,121.2036 C709.9935,120.8944 709.9772,120.7804 709.9121,120.6665 C709.7819,120.4875 709.5866,120.3735 709.375,120.3735 C709.1797,120.3735 708.9844,120.4549 708.8704,120.634 C708.7728,120.7642 708.7565,120.8618 708.7565,121.2036 L708.7565,121.8547 L705.5501,121.8547 L705.5501,120.0643 Z " fill="#FFFFFF"/><text fill="#FFFFFF" font-family="Verdana" font-size="11.4583" lengthAdjust="spacing" textLength="43.75" x="736.4583" y="123.4289">Usuario</text><line style="stroke:#2196F3;stroke-width:1.0416666666666667;" x1="663.5417" x2="821.875" y1="141.7562" y2="141.7562"/><ellipse cx="673.9583" cy="164.5711" fill="none" rx="3.125" ry="3.125" style="stroke:#1A78C2;stroke-width:1.0416666666666667;"/><text fill="#FFFFFF" font-family="Verdana" font-size="11.4583" lengthAdjust="spacing" textLength="113.5417" x="692.7083" y="166.9754">Nombre de usuario</text><ellipse cx="673.9583" cy="198.7427" fill="none" rx="3.125" ry="3.125" style="stroke:#1A78C2;stroke-width:1.0416666666666667;"/><text fill="#FFFFFF" font-family="Verdana" font-size="11.4583" lengthAdjust="spacing" textLength="46.875" x="692.7083" y="201.147">Nombre</text><ellipse cx="673.9583" cy="232.9142" fill="none" rx="3.125" ry="3.125" style="stroke:#1A78C2;stroke-width:1.0416666666666667;"/><text fill="#FFFFFF" font-family="Verdana" font-size="11.4583" lengthAdjust="spacing" textLength="47.9167" x="692.7083" y="235.3185">Apellido</text><ellipse cx="673.9583" cy="267.0858" fill="none" rx="3.125" ry="3.125" style="stroke:#1A78C2;stroke-width:1.0416666666666667;"/><text fill="#FFFFFF" font-family="Verdana" font-size="11.4583" lengthAdjust="spacing" textLength="32.2917" x="692.7083" y="269.4901">Email</text><ellipse cx="673.9583" cy="301.2573" fill="none" rx="3.125" ry="3.125" style="stroke:#1A78C2;stroke-width:1.0416666666666667;"/><text fill="#FFFFFF" font-family="Verdana" font-size="11.4583" lengthAdjust="spacing" textLength="17.7083" x="692.7083" y="303.6616">Rol</text><line style="stroke:#2196F3;stroke-width:1.0416666666666667;" x1="663.5417" x2="821.875" y1="320.9473" y2="320.9473"/><ellipse cx="673.9583" cy="343.7622" fill="none" rx="3.125" ry="3.125" style="stroke:#1A78C2;stroke-width:1.0416666666666667;"/><text fill="#FFFFFF" font-family="Verdana" font-size="11.4583" lengthAdjust="spacing" textLength="105.2083" x="692.7083" y="346.1665">ID de usuario (PK)</text></g><!--class cliente--><g id="elem_cliente"><rect codeLine="12" fill="url(#g1upit6shxkgm91)" filter="url(#f1upit6shxkgm9)" height="95.4264" id="cliente" rx="4.1667" ry="4.1667" style="stroke:#2196F3;stroke-width:1.0416666666666667;" width="152.0833" x="620.8333" y="682.5846"/><rect fill="url(#g1upit6shxkgm92)" height="44.5882" rx="4.1667" ry="4.1667" style="stroke:url(#g1upit6shxkgm92);stroke-width:1.0416666666666667;" width="152.0833" x="620.8333" y="682.5846"/><rect fill="url(#g1upit6shxkgm92)" height="4.1667" style="stroke:url(#g1upit6shxkgm92);stroke-width:1.0416666666666667;" width="152.0833" x="620.8333" y="723.0062"/><rect codeLine="12" fill="none" height="95.4264" id="cliente" rx="4.1667" ry="4.1667" style="stroke:#2196F3;stroke-width:1.0416666666666667;" width="152.0833" x="620.8333" y="682.5846"/><ellipse cx="661.1979" cy="704.8787" fill="none" rx="10.4167" ry="10.4167" style="stroke:#1A78C2;stroke-width:1.0416666666666667;"/><path d="M660.498,705.481 L661.556,705.481 L661.556,705.5786 C661.556,705.8716 661.5885,705.9855 661.6536,706.0994 C661.7676,706.2948 661.9792,706.3924 662.1908,706.3924 C662.3698,706.3924 662.5651,706.2948 662.679,706.132 C662.7767,706.0181 662.793,705.9041 662.793,705.5786 L662.793,704.1626 C662.793,704.0487 662.793,704.0161 662.793,703.9022 C662.7279,703.5441 662.5163,703.3325 662.1745,703.3325 C661.9792,703.3325 661.8001,703.4302 661.6699,703.5929 C661.5885,703.7069 661.556,703.8208 661.556,704.1626 L661.556,704.244 L660.498,704.244 L660.498,702.4862 L663.4277,702.4862 L663.4277,703.1047 C663.4277,703.4139 663.444,703.5441 663.5091,703.6418 C663.6393,703.8371 663.8346,703.951 664.0462,703.951 C664.2415,703.951 664.4368,703.8534 664.5671,703.6906 C664.6484,703.5604 664.681,703.4627 664.681,703.1047 L664.681,701.2329 L659.0658,701.2329 C658.7402,701.2329 658.6426,701.2492 658.5286,701.3306 C658.3496,701.4445 658.2357,701.6561 658.2357,701.8677 C658.2357,702.063 658.3333,702.242 658.4961,702.3722 C658.61,702.4699 658.7402,702.4862 659.0658,702.4862 L659.2448,702.4862 L659.2448,707.2713 L659.0658,707.2713 C658.7565,707.2713 658.6426,707.2876 658.5286,707.369 C658.3496,707.4829 658.2357,707.6945 658.2357,707.9061 C658.2357,708.1014 658.3333,708.2804 658.4961,708.3944 C658.5938,708.492 658.7728,708.5246 659.0658,708.5246 L664.9414,708.5246 L664.9414,706.6203 C664.9414,706.311 664.9251,706.1971 664.86,706.0832 C664.7298,705.9041 664.5345,705.7902 664.3229,705.7902 C664.1276,705.7902 663.9323,705.8716 663.8184,706.0506 C663.7207,706.1808 663.7044,706.2785 663.7044,706.6203 L663.7044,707.2713 L660.498,707.2713 L660.498,705.481 Z " fill="#FFFFFF"/><text fill="#FFFFFF" font-family="Verdana" font-size="11.4583" lengthAdjust="spacing" textLength="42.7083" x="690.8854" y="708.8455">Cliente</text><line style="stroke:#2196F3;stroke-width:1.0416666666666667;" x1="621.875" x2="771.875" y1="727.1729" y2="727.1729"/><line style="stroke:#2196F3;stroke-width:1.0416666666666667;" x1="621.875" x2="771.875" y1="735.5062" y2="735.5062"/><ellipse cx="632.2917" cy="758.3211" fill="none" rx="3.125" ry="3.125" style="stroke:#1A78C2;stroke-width:1.0416666666666667;"/><text fill="#FFFFFF" font-family="Verdana" font-size="11.4583" lengthAdjust="spacing" textLength="105.2083" x="651.0417" y="760.7254">ID de usuario (PK)</text></g><!--class ventasMarketing--><g id="elem_ventasMarketing"><rect codeLine="16" fill="url(#g1upit6shxkgm91)" filter="url(#f1upit6shxkgm9)" height="61.2549" id="ventasMarketing" rx="4.1667" ry="4.1667" style="stroke:#2196F3;stroke-width:1.0416666666666667;" width="168.75" x="239.5833" y="589.8763"/><rect fill="url(#g1upit6shxkgm92)" height="44.5882" rx="4.1667" ry="4.1667" style="stroke:url(#g1upit6shxkgm92);stroke-width:1.0416666666666667;" width="168.75" x="239.5833" y="589.8763"/><rect fill="url(#g1upit6shxkgm92)" height="4.1667" style="stroke:url(#g1upit6shxkgm92);stroke-width:1.0416666666666667;" width="168.75" x="239.5833" y="630.2979"/><rect codeLine="16" fill="none" height="61.2549" id="ventasMarketing" rx="4.1667" ry="4.1667" style="stroke:#2196F3;stroke-width:1.0416666666666667;" width="168.75" x="239.5833" y="589.8763"/><ellipse cx="254.1667" cy="612.1704" fill="none" rx="10.4167" ry="10.4167" style="stroke:#1A78C2;stroke-width:1.0416666666666667;"/><path d="M253.4668,612.7726 L254.5247,612.7726 L254.5247,612.8703 C254.5247,613.1632 254.5573,613.2772 254.6224,613.3911 C254.7363,613.5864 254.9479,613.6841 255.1595,613.6841 C255.3385,613.6841 255.5339,613.5864 255.6478,613.4237 C255.7454,613.3097 255.7617,613.1958 255.7617,612.8703 L255.7617,611.4543 C255.7617,611.3403 255.7617,611.3078 255.7617,611.1938 C255.6966,610.8358 255.485,610.6242 255.1432,610.6242 C254.9479,610.6242 254.7689,610.7218 254.6387,610.8846 C254.5573,610.9985 254.5247,611.1125 254.5247,611.4543 L254.5247,611.5356 L253.4668,611.5356 L253.4668,609.7778 L256.3965,609.7778 L256.3965,610.3963 C256.3965,610.7056 256.4128,610.8358 256.4779,610.9334 C256.6081,611.1287 256.8034,611.2427 257.015,611.2427 C257.2103,611.2427 257.4056,611.145 257.5358,610.9823 C257.6172,610.8521 257.6497,610.7544 257.6497,610.3963 L257.6497,608.5246 L252.0345,608.5246 C251.709,608.5246 251.6113,608.5409 251.4974,608.6222 C251.3184,608.7362 251.2044,608.9478 251.2044,609.1593 C251.2044,609.3547 251.3021,609.5337 251.4648,609.6639 C251.5788,609.7616 251.709,609.7778 252.0345,609.7778 L252.2135,609.7778 L252.2135,614.563 L252.0345,614.563 C251.7253,614.563 251.6113,614.5793 251.4974,614.6606 C251.3184,614.7746 251.2044,614.9862 251.2044,615.1978 C251.2044,615.3931 251.3021,615.5721 251.4648,615.686 C251.5625,615.7837 251.7415,615.8162 252.0345,615.8162 L257.9102,615.8162 L257.9102,613.9119 C257.9102,613.6027 257.8939,613.4888 257.8288,613.3748 C257.6986,613.1958 257.5033,613.0819 257.2917,613.0819 C257.0964,613.0819 256.901,613.1632 256.7871,613.3423 C256.6895,613.4725 256.6732,613.5701 256.6732,613.9119 L256.6732,614.563 L253.4668,614.563 L253.4668,612.7726 Z " fill="#FFFFFF"/><text fill="#FFFFFF" font-family="Verdana" font-size="11.4583" lengthAdjust="spacing" textLength="116.6667" x="278.125" y="616.1372">Ventas y marketing</text><line style="stroke:#2196F3;stroke-width:1.0416666666666667;" x1="240.625" x2="407.2917" y1="634.4645" y2="634.4645"/><line style="stroke:#2196F3;stroke-width:1.0416666666666667;" x1="240.625" x2="407.2917" y1="642.7979" y2="642.7979"/></g><!--class atencionCliente--><g id="elem_atencionCliente"><rect codeLine="19" fill="url(#g1upit6shxkgm91)" filter="url(#f1upit6shxkgm9)" height="61.2549" id="atencionCliente" rx="4.1667" ry="4.1667" style="stroke:#2196F3;stroke-width:1.0416666666666667;" width="163.5417" x="505.7292" y="479.9805"/><rect fill="url(#g1upit6shxkgm92)" height="44.5882" rx="4.1667" ry="4.1667" style="stroke:url(#g1upit6shxkgm92);stroke-width:1.0416666666666667;" width="163.5417" x="505.7292" y="479.9805"/><rect fill="url(#g1upit6shxkgm92)" height="4.1667" style="stroke:url(#g1upit6shxkgm92);stroke-width:1.0416666666666667;" width="163.5417" x="505.7292" y="520.402"/><rect codeLine="19" fill="none" height="61.2549" id="atencionCliente" rx="4.1667" ry="4.1667" style="stroke:#2196F3;stroke-width:1.0416666666666667;" width="163.5417" x="505.7292" y="479.9805"/><ellipse cx="520.3125" cy="502.2746" fill="none" rx="10.4167" ry="10.4167" style="stroke:#1A78C2;stroke-width:1.0416666666666667;"/><path d="M519.6126,502.8768 L520.6706,502.8768 L520.6706,502.9744 C520.6706,503.2674 520.7031,503.3813 520.7682,503.4953 C520.8822,503.6906 521.0938,503.7882 521.3053,503.7882 C521.4844,503.7882 521.6797,503.6906 521.7936,503.5278 C521.8913,503.4139 521.9076,503.3 521.9076,502.9744 L521.9076,501.5584 C521.9076,501.4445 521.9076,501.4119 521.9076,501.298 C521.8424,500.9399 521.6309,500.7284 521.2891,500.7284 C521.0938,500.7284 520.9147,500.826 520.7845,500.9888 C520.7031,501.1027 520.6706,501.2166 520.6706,501.5584 L520.6706,501.6398 L519.6126,501.6398 L519.6126,499.882 L522.5423,499.882 L522.5423,500.5005 C522.5423,500.8097 522.5586,500.9399 522.6237,501.0376 C522.7539,501.2329 522.9492,501.3468 523.1608,501.3468 C523.3561,501.3468 523.5514,501.2492 523.6816,501.0864 C523.763,500.9562 523.7956,500.8586 523.7956,500.5005 L523.7956,498.6287 L518.1803,498.6287 C517.8548,498.6287 517.7572,498.645 517.6432,498.7264 C517.4642,498.8403 517.3503,499.0519 517.3503,499.2635 C517.3503,499.4588 517.4479,499.6379 517.6107,499.7681 C517.7246,499.8657 517.8548,499.882 518.1803,499.882 L518.3594,499.882 L518.3594,504.6672 L518.1803,504.6672 C517.8711,504.6672 517.7572,504.6834 517.6432,504.7648 C517.4642,504.8787 517.3503,505.0903 517.3503,505.3019 C517.3503,505.4972 517.4479,505.6763 517.6107,505.7902 C517.7083,505.8879 517.8874,505.9204 518.1803,505.9204 L524.056,505.9204 L524.056,504.0161 C524.056,503.7069 524.0397,503.5929 523.9746,503.479 C523.8444,503.3 523.6491,503.186 523.4375,503.186 C523.2422,503.186 523.0469,503.2674 522.9329,503.4465 C522.8353,503.5767 522.819,503.6743 522.819,504.0161 L522.819,504.6672 L519.6126,504.6672 L519.6126,502.8768 Z " fill="#FFFFFF"/><text fill="#FFFFFF" font-family="Verdana" font-size="11.4583" lengthAdjust="spacing" textLength="111.4583" x="544.2708" y="506.2414">Atenci&#243;n al cliente</text><line style="stroke:#2196F3;stroke-width:1.0416666666666667;" x1="506.7708" x2="668.2292" y1="524.5687" y2="524.5687"/><line style="stroke:#2196F3;stroke-width:1.0416666666666667;" x1="506.7708" x2="668.2292" y1="532.902" y2="532.902"/></g><!--class finanzas--><g id="elem_finanzas"><rect codeLine="22" fill="url(#g1upit6shxkgm91)" filter="url(#f1upit6shxkgm9)" height="61.2549" id="finanzas" rx="4.1667" ry="4.1667" style="stroke:#2196F3;stroke-width:1.0416666666666667;" width="104.1667" x="867.7083" y="1089.3555"/><rect fill="url(#g1upit6shxkgm92)" height="44.5882" rx="4.1667" ry="4.1667" style="stroke:url(#g1upit6shxkgm92);stroke-width:1.0416666666666667;" width="104.1667" x="867.7083" y="1089.3555"/><rect fill="url(#g1upit6shxkgm92)" height="4.1667" style="stroke:url(#g1upit6shxkgm92);stroke-width:1.0416666666666667;" width="104.1667" x="867.7083" y="1129.777"/><rect codeLine="22" fill="none" height="61.2549" id="finanzas" rx="4.1667" ry="4.1667" style="stroke:#2196F3;stroke-width:1.0416666666666667;" width="104.1667" x="867.7083" y="1089.3555"/><ellipse cx="882.2917" cy="1111.6496" fill="none" rx="10.4167" ry="10.4167" style="stroke:#1A78C2;stroke-width:1.0416666666666667;"/><path d="M881.5918,1112.2518 L882.6497,1112.2518 L882.6497,1112.3494 C882.6497,1112.6424 882.6823,1112.7563 882.7474,1112.8703 C882.8613,1113.0656 883.0729,1113.1632 883.2845,1113.1632 C883.4635,1113.1632 883.6589,1113.0656 883.7728,1112.9028 C883.8704,1112.7889 883.8867,1112.675 883.8867,1112.3494 L883.8867,1110.9334 C883.8867,1110.8195 883.8867,1110.7869 883.8867,1110.673 C883.8216,1110.3149 883.61,1110.1034 883.2682,1110.1034 C883.0729,1110.1034 882.8939,1110.201 882.7637,1110.3638 C882.6823,1110.4777 882.6497,1110.5916 882.6497,1110.9334 L882.6497,1111.0148 L881.5918,1111.0148 L881.5918,1109.257 L884.5215,1109.257 L884.5215,1109.8755 C884.5215,1110.1847 884.5378,1110.3149 884.6029,1110.4126 C884.7331,1110.6079 884.9284,1110.7218 885.14,1110.7218 C885.3353,1110.7218 885.5306,1110.6242 885.6608,1110.4614 C885.7422,1110.3312 885.7747,1110.2336 885.7747,1109.8755 L885.7747,1108.0037 L880.1595,1108.0037 C879.834,1108.0037 879.7363,1108.02 879.6224,1108.1014 C879.4434,1108.2153 879.3294,1108.4269 879.3294,1108.6385 C879.3294,1108.8338 879.4271,1109.0129 879.5898,1109.1431 C879.7038,1109.2407 879.834,1109.257 880.1595,1109.257 L880.3385,1109.257 L880.3385,1114.0422 L880.1595,1114.0422 C879.8503,1114.0422 879.7363,1114.0584 879.6224,1114.1398 C879.4434,1114.2537 879.3294,1114.4653 879.3294,1114.6769 C879.3294,1114.8722 879.4271,1115.0513 879.5898,1115.1652 C879.6875,1115.2629 879.8665,1115.2954 880.1595,1115.2954 L886.0352,1115.2954 L886.0352,1113.3911 C886.0352,1113.0819 886.0189,1112.9679 885.9538,1112.854 C885.8236,1112.675 885.6283,1112.561 885.4167,1112.561 C885.2214,1112.561 885.026,1112.6424 884.9121,1112.8215 C884.8145,1112.9517 884.7982,1113.0493 884.7982,1113.3911 L884.7982,1114.0422 L881.5918,1114.0422 L881.5918,1112.2518 Z " fill="#FFFFFF"/><text fill="#FFFFFF" font-family="Verdana" font-size="11.4583" lengthAdjust="spacing" textLength="52.0833" x="906.25" y="1115.6164">Finanzas</text><line style="stroke:#2196F3;stroke-width:1.0416666666666667;" x1="868.75" x2="970.8333" y1="1133.9437" y2="1133.9437"/><line style="stroke:#2196F3;stroke-width:1.0416666666666667;" x1="868.75" x2="970.8333" y1="1142.277" y2="1142.277"/></g><!--class rol--><g id="elem_rol"><rect codeLine="25" fill="url(#g1upit6shxkgm91)" filter="url(#f1upit6shxkgm9)" height="95.4264" id="rol" rx="4.1667" ry="4.1667" style="stroke:#2196F3;stroke-width:1.0416666666666667;" width="103.125" x="942.1875" y="462.793"/><rect fill="url(#g1upit6shxkgm92)" height="44.5882" rx="4.1667" ry="4.1667" style="stroke:url(#g1upit6shxkgm92);stroke-width:1.0416666666666667;" width="103.125" x="942.1875" y="462.793"/><rect fill="url(#g1upit6shxkgm92)" height="4.1667" style="stroke:url(#g1upit6shxkgm92);stroke-width:1.0416666666666667;" width="103.125" x="942.1875" y="503.2145"/><rect codeLine="25" fill="none" height="95.4264" id="rol" rx="4.1667" ry="4.1667" style="stroke:#2196F3;stroke-width:1.0416666666666667;" width="103.125" x="942.1875" y="462.793"/><ellipse cx="971.7708" cy="485.0871" fill="none" rx="10.4167" ry="10.4167" style="stroke:#1A78C2;stroke-width:1.0416666666666667;"/><path d="M971.071,485.6893 L972.1289,485.6893 L972.1289,485.7869 C972.1289,486.0799 972.1615,486.1938 972.2266,486.3078 C972.3405,486.5031 972.5521,486.6007 972.7637,486.6007 C972.9427,486.6007 973.138,486.5031 973.252,486.3403 C973.3496,486.2264 973.3659,486.1125 973.3659,485.7869 L973.3659,484.3709 C973.3659,484.257 973.3659,484.2244 973.3659,484.1105 C973.3008,483.7524 973.0892,483.5409 972.7474,483.5409 C972.5521,483.5409 972.373,483.6385 972.2428,483.8013 C972.1615,483.9152 972.1289,484.0291 972.1289,484.3709 L972.1289,484.4523 L971.071,484.4523 L971.071,482.6945 L974.0007,482.6945 L974.0007,483.313 C974.0007,483.6222 974.0169,483.7524 974.082,483.8501 C974.2122,484.0454 974.4076,484.1593 974.6191,484.1593 C974.8145,484.1593 975.0098,484.0617 975.14,483.8989 C975.2214,483.7687 975.2539,483.6711 975.2539,483.313 L975.2539,481.4412 L969.6387,481.4412 C969.3132,481.4412 969.2155,481.4575 969.1016,481.5389 C968.9225,481.6528 968.8086,481.8644 968.8086,482.076 C968.8086,482.2713 968.9063,482.4504 969.069,482.5806 C969.1829,482.6782 969.3132,482.6945 969.6387,482.6945 L969.8177,482.6945 L969.8177,487.4797 L969.6387,487.4797 C969.3294,487.4797 969.2155,487.4959 969.1016,487.5773 C968.9225,487.6912 968.8086,487.9028 968.8086,488.1144 C968.8086,488.3097 968.9063,488.4888 969.069,488.6027 C969.1667,488.7004 969.3457,488.7329 969.6387,488.7329 L975.5143,488.7329 L975.5143,486.8286 C975.5143,486.5194 975.498,486.4054 975.4329,486.2915 C975.3027,486.1125 975.1074,485.9985 974.8958,485.9985 C974.7005,485.9985 974.5052,486.0799 974.3913,486.259 C974.2936,486.3892 974.2773,486.4868 974.2773,486.8286 L974.2773,487.4797 L971.071,487.4797 L971.071,485.6893 Z " fill="#FFFFFF"/><text fill="#FFFFFF" font-family="Verdana" font-size="11.4583" lengthAdjust="spacing" textLength="17.7083" x="999.0625" y="489.0539">Rol</text><line style="stroke:#2196F3;stroke-width:1.0416666666666667;" x1="943.2292" x2="1044.2708" y1="507.3812" y2="507.3812"/><line style="stroke:#2196F3;stroke-width:1.0416666666666667;" x1="943.2292" x2="1044.2708" y1="515.7145" y2="515.7145"/><ellipse cx="953.6458" cy="538.5295" fill="none" rx="3.125" ry="3.125" style="stroke:#1A78C2;stroke-width:1.0416666666666667;"/><text fill="#FFFFFF" font-family="Verdana" font-size="11.4583" lengthAdjust="spacing" textLength="56.25" x="972.3958" y="540.9337">Valor (PK)</text></g><!--class contrato--><g id="elem_contrato"><rect codeLine="29" fill="url(#g1upit6shxkgm91)" filter="url(#f1upit6shxkgm9)" height="95.4264" id="contrato" rx="4.1667" ry="4.1667" style="stroke:#2196F3;stroke-width:1.0416666666666667;" width="157.2917" x="522.3958" y="1072.168"/><rect fill="url(#g1upit6shxkgm92)" height="44.5882" rx="4.1667" ry="4.1667" style="stroke:url(#g1upit6shxkgm92);stroke-width:1.0416666666666667;" width="157.2917" x="522.3958" y="1072.168"/><rect fill="url(#g1upit6shxkgm92)" height="4.1667" style="stroke:url(#g1upit6shxkgm92);stroke-width:1.0416666666666667;" width="157.2917" x="522.3958" y="1112.5895"/><rect codeLine="29" fill="none" height="95.4264" id="contrato" rx="4.1667" ry="4.1667" style="stroke:#2196F3;stroke-width:1.0416666666666667;" width="157.2917" x="522.3958" y="1072.168"/><ellipse cx="561.8229" cy="1094.4621" fill="none" rx="10.4167" ry="10.4167" style="stroke:#1A78C2;stroke-width:1.0416666666666667;"/><path d="M561.123,1095.0643 L562.181,1095.0643 L562.181,1095.1619 C562.181,1095.4549 562.2135,1095.5688 562.2786,1095.6828 C562.3926,1095.8781 562.6042,1095.9757 562.8158,1095.9757 C562.9948,1095.9757 563.1901,1095.8781 563.304,1095.7153 C563.4017,1095.6014 563.418,1095.4875 563.418,1095.1619 L563.418,1093.7459 C563.418,1093.632 563.418,1093.5994 563.418,1093.4855 C563.3529,1093.1274 563.1413,1092.9159 562.7995,1092.9159 C562.6042,1092.9159 562.4251,1093.0135 562.2949,1093.1763 C562.2135,1093.2902 562.181,1093.4041 562.181,1093.7459 L562.181,1093.8273 L561.123,1093.8273 L561.123,1092.0695 L564.0527,1092.0695 L564.0527,1092.688 C564.0527,1092.9972 564.069,1093.1274 564.1341,1093.2251 C564.2643,1093.4204 564.4596,1093.5343 564.6712,1093.5343 C564.8665,1093.5343 565.0618,1093.4367 565.1921,1093.2739 C565.2734,1093.1437 565.306,1093.0461 565.306,1092.688 L565.306,1090.8162 L559.6908,1090.8162 C559.3652,1090.8162 559.2676,1090.8325 559.1536,1090.9139 C558.9746,1091.0278 558.8607,1091.2394 558.8607,1091.451 C558.8607,1091.6463 558.9583,1091.8254 559.1211,1091.9556 C559.235,1092.0532 559.3652,1092.0695 559.6908,1092.0695 L559.8698,1092.0695 L559.8698,1096.8547 L559.6908,1096.8547 C559.3815,1096.8547 559.2676,1096.8709 559.1536,1096.9523 C558.9746,1097.0662 558.8607,1097.2778 558.8607,1097.4894 C558.8607,1097.6847 558.9583,1097.8638 559.1211,1097.9777 C559.2188,1098.0754 559.3978,1098.1079 559.6908,1098.1079 L565.5664,1098.1079 L565.5664,1096.2036 C565.5664,1095.8944 565.5501,1095.7804 565.485,1095.6665 C565.3548,1095.4875 565.1595,1095.3735 564.9479,1095.3735 C564.7526,1095.3735 564.5573,1095.4549 564.4434,1095.634 C564.3457,1095.7642 564.3294,1095.8618 564.3294,1096.2036 L564.3294,1096.8547 L561.123,1096.8547 L561.123,1095.0643 Z " fill="#FFFFFF"/><text fill="#FFFFFF" font-family="Verdana" font-size="11.4583" lengthAdjust="spacing" textLength="50" x="591.3021" y="1098.4289">Contrato</text><line style="stroke:#2196F3;stroke-width:1.0416666666666667;" x1="523.4375" x2="678.6458" y1="1116.7562" y2="1116.7562"/><line style="stroke:#2196F3;stroke-width:1.0416666666666667;" x1="523.4375" x2="678.6458" y1="1125.0895" y2="1125.0895"/><ellipse cx="533.8542" cy="1147.9045" fill="none" rx="3.125" ry="3.125" style="stroke:#1A78C2;stroke-width:1.0416666666666667;"/><text fill="#FFFFFF" font-family="Verdana" font-size="11.4583" lengthAdjust="spacing" textLength="110.4167" x="552.6042" y="1150.3087">ID de contrato (PK)</text></g><!--class linea--><g id="elem_linea"><rect codeLine="33" fill="url(#g1upit6shxkgm91)" filter="url(#f1upit6shxkgm9)" height="163.7695" id="linea" rx="4.1667" ry="4.1667" style="stroke:#2196F3;stroke-width:1.0416666666666667;" width="138.5417" x="290.1042" y="1266.9596"/><rect fill="url(#g1upit6shxkgm92)" height="44.5882" rx="4.1667" ry="4.1667" style="stroke:url(#g1upit6shxkgm92);stroke-width:1.0416666666666667;" width="138.5417" x="290.1042" y="1266.9596"/><rect fill="url(#g1upit6shxkgm92)" height="4.1667" style="stroke:url(#g1upit6shxkgm92);stroke-width:1.0416666666666667;" width="138.5417" x="290.1042" y="1307.3812"/><rect codeLine="33" fill="none" height="163.7695" id="linea" rx="4.1667" ry="4.1667" style="stroke:#2196F3;stroke-width:1.0416666666666667;" width="138.5417" x="290.1042" y="1266.9596"/><ellipse cx="329.0625" cy="1289.2537" fill="none" rx="10.4167" ry="10.4167" style="stroke:#1A78C2;stroke-width:1.0416666666666667;"/><path d="M328.3626,1289.856 L329.4206,1289.856 L329.4206,1289.9536 C329.4206,1290.2466 329.4531,1290.3605 329.5182,1290.4744 C329.6322,1290.6698 329.8438,1290.7674 330.0553,1290.7674 C330.2344,1290.7674 330.4297,1290.6698 330.5436,1290.507 C330.6413,1290.3931 330.6576,1290.2791 330.6576,1289.9536 L330.6576,1288.5376 C330.6576,1288.4237 330.6576,1288.3911 330.6576,1288.2772 C330.5924,1287.9191 330.3809,1287.7075 330.0391,1287.7075 C329.8438,1287.7075 329.6647,1287.8052 329.5345,1287.9679 C329.4531,1288.0819 329.4206,1288.1958 329.4206,1288.5376 L329.4206,1288.619 L328.3626,1288.619 L328.3626,1286.8612 L331.2923,1286.8612 L331.2923,1287.4797 C331.2923,1287.7889 331.3086,1287.9191 331.3737,1288.0168 C331.5039,1288.2121 331.6992,1288.326 331.9108,1288.326 C332.1061,1288.326 332.3014,1288.2284 332.4316,1288.0656 C332.513,1287.9354 332.5456,1287.8377 332.5456,1287.4797 L332.5456,1285.6079 L326.9303,1285.6079 C326.6048,1285.6079 326.5072,1285.6242 326.3932,1285.7056 C326.2142,1285.8195 326.1003,1286.0311 326.1003,1286.2427 C326.1003,1286.438 326.1979,1286.617 326.3607,1286.7472 C326.4746,1286.8449 326.6048,1286.8612 326.9303,1286.8612 L327.1094,1286.8612 L327.1094,1291.6463 L326.9303,1291.6463 C326.6211,1291.6463 326.5072,1291.6626 326.3932,1291.744 C326.2142,1291.8579 326.1003,1292.0695 326.1003,1292.2811 C326.1003,1292.4764 326.1979,1292.6554 326.3607,1292.7694 C326.4583,1292.867 326.6374,1292.8996 326.9303,1292.8996 L332.806,1292.8996 L332.806,1290.9953 C332.806,1290.686 332.7897,1290.5721 332.7246,1290.4582 C332.5944,1290.2791 332.3991,1290.1652 332.1875,1290.1652 C331.9922,1290.1652 331.7969,1290.2466 331.6829,1290.4256 C331.5853,1290.5558 331.569,1290.6535 331.569,1290.9953 L331.569,1291.6463 L328.3626,1291.6463 L328.3626,1289.856 Z " fill="#FFFFFF"/><text fill="#FFFFFF" font-family="Verdana" font-size="11.4583" lengthAdjust="spacing" textLength="32.2917" x="358.4375" y="1293.2205">L&#237;nea</text><line style="stroke:#2196F3;stroke-width:1.0416666666666667;" x1="291.1458" x2="427.6042" y1="1311.5479" y2="1311.5479"/><ellipse cx="301.5625" cy="1334.3628" fill="none" rx="3.125" ry="3.125" style="stroke:#1A78C2;stroke-width:1.0416666666666667;"/><text fill="#FFFFFF" font-family="Verdana" font-size="11.4583" lengthAdjust="spacing" textLength="25" x="320.3125" y="1336.7671">Tipo</text><ellipse cx="301.5625" cy="1368.5343" fill="none" rx="3.125" ry="3.125" style="stroke:#1A78C2;stroke-width:1.0416666666666667;"/><text fill="#FFFFFF" font-family="Verdana" font-size="11.4583" lengthAdjust="spacing" textLength="35.4167" x="320.3125" y="1370.9386">Precio</text><line style="stroke:#2196F3;stroke-width:1.0416666666666667;" x1="291.1458" x2="427.6042" y1="1388.2243" y2="1388.2243"/><ellipse cx="301.5625" cy="1411.0392" fill="none" rx="3.125" ry="3.125" style="stroke:#1A78C2;stroke-width:1.0416666666666667;"/><text fill="#FFFFFF" font-family="Verdana" font-size="11.4583" lengthAdjust="spacing" textLength="91.6667" x="320.3125" y="1413.4435">ID de l&#237;nea (PK)</text></g><!--class tipoLinea--><g id="elem_tipoLinea"><rect codeLine="39" fill="url(#g1upit6shxkgm91)" filter="url(#f1upit6shxkgm9)" height="95.4264" id="tipoLinea" rx="4.1667" ry="4.1667" style="stroke:#2196F3;stroke-width:1.0416666666666667;" width="133.3333" x="17.7083" y="1546.1263"/><rect fill="url(#g1upit6shxkgm92)" height="44.5882" rx="4.1667" ry="4.1667" style="stroke:url(#g1upit6shxkgm92);stroke-width:1.0416666666666667;" width="133.3333" x="17.7083" y="1546.1263"/><rect fill="url(#g1upit6shxkgm92)" height="4.1667" style="stroke:url(#g1upit6shxkgm92);stroke-width:1.0416666666666667;" width="133.3333" x="17.7083" y="1586.5479"/><rect codeLine="39" fill="none" height="95.4264" id="tipoLinea" rx="4.1667" ry="4.1667" style="stroke:#2196F3;stroke-width:1.0416666666666667;" width="133.3333" x="17.7083" y="1546.1263"/><ellipse cx="32.2917" cy="1568.4204" fill="none" rx="10.4167" ry="10.4167" style="stroke:#1A78C2;stroke-width:1.0416666666666667;"/><path d="M31.5918,1569.0226 L32.6497,1569.0226 L32.6497,1569.1203 C32.6497,1569.4132 32.6823,1569.5272 32.7474,1569.6411 C32.8613,1569.8364 33.0729,1569.9341 33.2845,1569.9341 C33.4635,1569.9341 33.6589,1569.8364 33.7728,1569.6737 C33.8704,1569.5597 33.8867,1569.4458 33.8867,1569.1203 L33.8867,1567.7043 C33.8867,1567.5903 33.8867,1567.5578 33.8867,1567.4438 C33.8216,1567.0858 33.61,1566.8742 33.2682,1566.8742 C33.0729,1566.8742 32.8939,1566.9718 32.7637,1567.1346 C32.6823,1567.2485 32.6497,1567.3625 32.6497,1567.7043 L32.6497,1567.7856 L31.5918,1567.7856 L31.5918,1566.0278 L34.5215,1566.0278 L34.5215,1566.6463 C34.5215,1566.9556 34.5378,1567.0858 34.6029,1567.1834 C34.7331,1567.3787 34.9284,1567.4927 35.14,1567.4927 C35.3353,1567.4927 35.5306,1567.395 35.6608,1567.2323 C35.7422,1567.1021 35.7747,1567.0044 35.7747,1566.6463 L35.7747,1564.7746 L30.1595,1564.7746 C29.834,1564.7746 29.7363,1564.7909 29.6224,1564.8722 C29.4434,1564.9862 29.3294,1565.1978 29.3294,1565.4093 C29.3294,1565.6047 29.4271,1565.7837 29.5898,1565.9139 C29.7038,1566.0116 29.834,1566.0278 30.1595,1566.0278 L30.3385,1566.0278 L30.3385,1570.813 L30.1595,1570.813 C29.8503,1570.813 29.7363,1570.8293 29.6224,1570.9106 C29.4434,1571.0246 29.3294,1571.2362 29.3294,1571.4478 C29.3294,1571.6431 29.4271,1571.8221 29.5898,1571.936 C29.6875,1572.0337 29.8665,1572.0662 30.1595,1572.0662 L36.0352,1572.0662 L36.0352,1570.1619 C36.0352,1569.8527 36.0189,1569.7388 35.9538,1569.6248 C35.8236,1569.4458 35.6283,1569.3319 35.4167,1569.3319 C35.2214,1569.3319 35.026,1569.4132 34.9121,1569.5923 C34.8145,1569.7225 34.7982,1569.8201 34.7982,1570.1619 L34.7982,1570.813 L31.5918,1570.813 L31.5918,1569.0226 Z " fill="#FFFFFF"/><text fill="#FFFFFF" font-family="Verdana" font-size="11.4583" lengthAdjust="spacing" textLength="81.25" x="56.25" y="1572.3872">Tipo de L&#237;nea</text><line style="stroke:#2196F3;stroke-width:1.0416666666666667;" x1="18.75" x2="150" y1="1590.7145" y2="1590.7145"/><line style="stroke:#2196F3;stroke-width:1.0416666666666667;" x1="18.75" x2="150" y1="1599.0479" y2="1599.0479"/><ellipse cx="29.1667" cy="1621.8628" fill="none" rx="3.125" ry="3.125" style="stroke:#1A78C2;stroke-width:1.0416666666666667;"/><text fill="#FFFFFF" font-family="Verdana" font-size="11.4583" lengthAdjust="spacing" textLength="56.25" x="47.9167" y="1624.2671">Valor (PK)</text></g><!--class fijo--><g id="elem_fijo"><rect codeLine="43" fill="url(#g1upit6shxkgm91)" filter="url(#f1upit6shxkgm9)" height="95.4264" id="fijo" rx="4.1667" ry="4.1667" style="stroke:#2196F3;stroke-width:1.0416666666666667;" width="167.7083" x="188.0208" y="1546.1263"/><rect fill="url(#g1upit6shxkgm92)" height="44.5882" rx="4.1667" ry="4.1667" style="stroke:url(#g1upit6shxkgm92);stroke-width:1.0416666666666667;" width="167.7083" x="188.0208" y="1546.1263"/><rect fill="url(#g1upit6shxkgm92)" height="4.1667" style="stroke:url(#g1upit6shxkgm92);stroke-width:1.0416666666666667;" width="167.7083" x="188.0208" y="1586.5479"/><rect codeLine="43" fill="none" height="95.4264" id="fijo" rx="4.1667" ry="4.1667" style="stroke:#2196F3;stroke-width:1.0416666666666667;" width="167.7083" x="188.0208" y="1546.1263"/><ellipse cx="247.3958" cy="1568.4204" fill="none" rx="10.4167" ry="10.4167" style="stroke:#1A78C2;stroke-width:1.0416666666666667;"/><path d="M246.696,1569.0226 L247.7539,1569.0226 L247.7539,1569.1203 C247.7539,1569.4132 247.7865,1569.5272 247.8516,1569.6411 C247.9655,1569.8364 248.1771,1569.9341 248.3887,1569.9341 C248.5677,1569.9341 248.763,1569.8364 248.877,1569.6737 C248.9746,1569.5597 248.9909,1569.4458 248.9909,1569.1203 L248.9909,1567.7043 C248.9909,1567.5903 248.9909,1567.5578 248.9909,1567.4438 C248.9258,1567.0858 248.7142,1566.8742 248.3724,1566.8742 C248.1771,1566.8742 247.998,1566.9718 247.8678,1567.1346 C247.7865,1567.2485 247.7539,1567.3625 247.7539,1567.7043 L247.7539,1567.7856 L246.696,1567.7856 L246.696,1566.0278 L249.6257,1566.0278 L249.6257,1566.6463 C249.6257,1566.9556 249.6419,1567.0858 249.707,1567.1834 C249.8372,1567.3787 250.0326,1567.4927 250.2441,1567.4927 C250.4395,1567.4927 250.6348,1567.395 250.765,1567.2323 C250.8464,1567.1021 250.8789,1567.0044 250.8789,1566.6463 L250.8789,1564.7746 L245.2637,1564.7746 C244.9382,1564.7746 244.8405,1564.7909 244.7266,1564.8722 C244.5475,1564.9862 244.4336,1565.1978 244.4336,1565.4093 C244.4336,1565.6047 244.5313,1565.7837 244.694,1565.9139 C244.8079,1566.0116 244.9382,1566.0278 245.2637,1566.0278 L245.4427,1566.0278 L245.4427,1570.813 L245.2637,1570.813 C244.9544,1570.813 244.8405,1570.8293 244.7266,1570.9106 C244.5475,1571.0246 244.4336,1571.2362 244.4336,1571.4478 C244.4336,1571.6431 244.5313,1571.8221 244.694,1571.936 C244.7917,1572.0337 244.9707,1572.0662 245.2637,1572.0662 L251.1393,1572.0662 L251.1393,1570.1619 C251.1393,1569.8527 251.123,1569.7388 251.0579,1569.6248 C250.9277,1569.4458 250.7324,1569.3319 250.5208,1569.3319 C250.3255,1569.3319 250.1302,1569.4132 250.0163,1569.5923 C249.9186,1569.7225 249.9023,1569.8201 249.9023,1570.1619 L249.9023,1570.813 L246.696,1570.813 L246.696,1569.0226 Z " fill="#FFFFFF"/><text fill="#FFFFFF" font-family="Verdana" font-size="11.4583" lengthAdjust="spacing" textLength="19.7917" x="277.6042" y="1572.3872">Fijo</text><line style="stroke:#2196F3;stroke-width:1.0416666666666667;" x1="189.0625" x2="354.6875" y1="1590.7145" y2="1590.7145"/><ellipse cx="199.4792" cy="1613.5295" fill="none" rx="3.125" ry="3.125" style="stroke:#1A78C2;stroke-width:1.0416666666666667;"/><text fill="#FFFFFF" font-family="Verdana" font-size="11.4583" lengthAdjust="spacing" textLength="120.8333" x="218.2292" y="1615.9337">N&#250;mero de tel&#233;fono</text><line style="stroke:#2196F3;stroke-width:1.0416666666666667;" x1="189.0625" x2="354.6875" y1="1633.2194" y2="1633.2194"/></g><!--class movil--><g id="elem_movil"><rect codeLine="47" fill="url(#g1upit6shxkgm91)" filter="url(#f1upit6shxkgm9)" height="129.598" id="movil" rx="4.1667" ry="4.1667" style="stroke:#2196F3;stroke-width:1.0416666666666667;" width="167.7083" x="392.1875" y="1529.4596"/><rect fill="url(#g1upit6shxkgm92)" height="44.5882" rx="4.1667" ry="4.1667" style="stroke:url(#g1upit6shxkgm92);stroke-width:1.0416666666666667;" width="167.7083" x="392.1875" y="1529.4596"/><rect fill="url(#g1upit6shxkgm92)" height="4.1667" style="stroke:url(#g1upit6shxkgm92);stroke-width:1.0416666666666667;" width="167.7083" x="392.1875" y="1569.8812"/><rect codeLine="47" fill="none" height="129.598" id="movil" rx="4.1667" ry="4.1667" style="stroke:#2196F3;stroke-width:1.0416666666666667;" width="167.7083" x="392.1875" y="1529.4596"/><ellipse cx="446.3542" cy="1551.7537" fill="none" rx="10.4167" ry="10.4167" style="stroke:#1A78C2;stroke-width:1.0416666666666667;"/><path d="M445.6543,1552.356 L446.7122,1552.356 L446.7122,1552.4536 C446.7122,1552.7466 446.7448,1552.8605 446.8099,1552.9744 C446.9238,1553.1698 447.1354,1553.2674 447.347,1553.2674 C447.526,1553.2674 447.7214,1553.1698 447.8353,1553.007 C447.9329,1552.8931 447.9492,1552.7791 447.9492,1552.4536 L447.9492,1551.0376 C447.9492,1550.9237 447.9492,1550.8911 447.9492,1550.7772 C447.8841,1550.4191 447.6725,1550.2075 447.3307,1550.2075 C447.1354,1550.2075 446.9564,1550.3052 446.8262,1550.4679 C446.7448,1550.5819 446.7122,1550.6958 446.7122,1551.0376 L446.7122,1551.119 L445.6543,1551.119 L445.6543,1549.3612 L448.584,1549.3612 L448.584,1549.9797 C448.584,1550.2889 448.6003,1550.4191 448.6654,1550.5168 C448.7956,1550.7121 448.9909,1550.826 449.2025,1550.826 C449.3978,1550.826 449.5931,1550.7284 449.7233,1550.5656 C449.8047,1550.4354 449.8372,1550.3377 449.8372,1549.9797 L449.8372,1548.1079 L444.222,1548.1079 C443.8965,1548.1079 443.7988,1548.1242 443.6849,1548.2056 C443.5059,1548.3195 443.3919,1548.5311 443.3919,1548.7427 C443.3919,1548.938 443.4896,1549.117 443.6523,1549.2472 C443.7663,1549.3449 443.8965,1549.3612 444.222,1549.3612 L444.401,1549.3612 L444.401,1554.1463 L444.222,1554.1463 C443.9128,1554.1463 443.7988,1554.1626 443.6849,1554.244 C443.5059,1554.3579 443.3919,1554.5695 443.3919,1554.7811 C443.3919,1554.9764 443.4896,1555.1554 443.6523,1555.2694 C443.75,1555.367 443.929,1555.3996 444.222,1555.3996 L450.0977,1555.3996 L450.0977,1553.4953 C450.0977,1553.186 450.0814,1553.0721 450.0163,1552.9582 C449.8861,1552.7791 449.6908,1552.6652 449.4792,1552.6652 C449.2839,1552.6652 449.0885,1552.7466 448.9746,1552.9256 C448.877,1553.0558 448.8607,1553.1535 448.8607,1553.4953 L448.8607,1554.1463 L445.6543,1554.1463 L445.6543,1552.356 Z " fill="#FFFFFF"/><text fill="#FFFFFF" font-family="Verdana" font-size="11.4583" lengthAdjust="spacing" textLength="30.2083" x="476.5625" y="1555.7205">M&#243;vil</text><line style="stroke:#2196F3;stroke-width:1.0416666666666667;" x1="393.2292" x2="558.8542" y1="1574.0479" y2="1574.0479"/><ellipse cx="403.6458" cy="1596.8628" fill="none" rx="3.125" ry="3.125" style="stroke:#1A78C2;stroke-width:1.0416666666666667;"/><text fill="#FFFFFF" font-family="Verdana" font-size="11.4583" lengthAdjust="spacing" textLength="120.8333" x="422.3958" y="1599.2671">N&#250;mero de tel&#233;fono</text><ellipse cx="403.6458" cy="1631.0343" fill="none" rx="3.125" ry="3.125" style="stroke:#1A78C2;stroke-width:1.0416666666666667;"/><text fill="#FFFFFF" font-family="Verdana" font-size="11.4583" lengthAdjust="spacing" textLength="111.4583" x="422.3958" y="1633.4386">Consumo de datos</text><line style="stroke:#2196F3;stroke-width:1.0416666666666667;" x1="393.2292" x2="558.8542" y1="1650.7243" y2="1650.7243"/></g><!--class fibra--><g id="elem_fibra"><rect codeLine="52" fill="url(#g1upit6shxkgm91)" filter="url(#f1upit6shxkgm9)" height="95.4264" id="fibra" rx="4.1667" ry="4.1667" style="stroke:#2196F3;stroke-width:1.0416666666666667;" width="105.2083" x="596.3542" y="1546.1263"/><rect fill="url(#g1upit6shxkgm92)" height="44.5882" rx="4.1667" ry="4.1667" style="stroke:url(#g1upit6shxkgm92);stroke-width:1.0416666666666667;" width="105.2083" x="596.3542" y="1546.1263"/><rect fill="url(#g1upit6shxkgm92)" height="4.1667" style="stroke:url(#g1upit6shxkgm92);stroke-width:1.0416666666666667;" width="105.2083" x="596.3542" y="1586.5479"/><rect codeLine="52" fill="none" height="95.4264" id="fibra" rx="4.1667" ry="4.1667" style="stroke:#2196F3;stroke-width:1.0416666666666667;" width="105.2083" x="596.3542" y="1546.1263"/><ellipse cx="622.1875" cy="1568.4204" fill="none" rx="10.4167" ry="10.4167" style="stroke:#1A78C2;stroke-width:1.0416666666666667;"/><path d="M621.4876,1569.0226 L622.5456,1569.0226 L622.5456,1569.1203 C622.5456,1569.4132 622.5781,1569.5272 622.6432,1569.6411 C622.7572,1569.8364 622.9688,1569.9341 623.1803,1569.9341 C623.3594,1569.9341 623.5547,1569.8364 623.6686,1569.6737 C623.7663,1569.5597 623.7826,1569.4458 623.7826,1569.1203 L623.7826,1567.7043 C623.7826,1567.5903 623.7826,1567.5578 623.7826,1567.4438 C623.7174,1567.0858 623.5059,1566.8742 623.1641,1566.8742 C622.9688,1566.8742 622.7897,1566.9718 622.6595,1567.1346 C622.5781,1567.2485 622.5456,1567.3625 622.5456,1567.7043 L622.5456,1567.7856 L621.4876,1567.7856 L621.4876,1566.0278 L624.4173,1566.0278 L624.4173,1566.6463 C624.4173,1566.9556 624.4336,1567.0858 624.4987,1567.1834 C624.6289,1567.3787 624.8242,1567.4927 625.0358,1567.4927 C625.2311,1567.4927 625.4264,1567.395 625.5566,1567.2323 C625.638,1567.1021 625.6706,1567.0044 625.6706,1566.6463 L625.6706,1564.7746 L620.0553,1564.7746 C619.7298,1564.7746 619.6322,1564.7909 619.5182,1564.8722 C619.3392,1564.9862 619.2253,1565.1978 619.2253,1565.4093 C619.2253,1565.6047 619.3229,1565.7837 619.4857,1565.9139 C619.5996,1566.0116 619.7298,1566.0278 620.0553,1566.0278 L620.2344,1566.0278 L620.2344,1570.813 L620.0553,1570.813 C619.7461,1570.813 619.6322,1570.8293 619.5182,1570.9106 C619.3392,1571.0246 619.2253,1571.2362 619.2253,1571.4478 C619.2253,1571.6431 619.3229,1571.8221 619.4857,1571.936 C619.5833,1572.0337 619.7624,1572.0662 620.0553,1572.0662 L625.931,1572.0662 L625.931,1570.1619 C625.931,1569.8527 625.9147,1569.7388 625.8496,1569.6248 C625.7194,1569.4458 625.5241,1569.3319 625.3125,1569.3319 C625.1172,1569.3319 624.9219,1569.4132 624.8079,1569.5923 C624.7103,1569.7225 624.694,1569.8201 624.694,1570.1619 L624.694,1570.813 L621.4876,1570.813 L621.4876,1569.0226 Z " fill="#FFFFFF"/><text fill="#FFFFFF" font-family="Verdana" font-size="11.4583" lengthAdjust="spacing" textLength="28.125" x="648.6458" y="1572.3872">Fibra</text><line style="stroke:#2196F3;stroke-width:1.0416666666666667;" x1="597.3958" x2="700.5208" y1="1590.7145" y2="1590.7145"/><ellipse cx="607.8125" cy="1613.5295" fill="none" rx="3.125" ry="3.125" style="stroke:#1A78C2;stroke-width:1.0416666666666667;"/><text fill="#FFFFFF" font-family="Verdana" font-size="11.4583" lengthAdjust="spacing" textLength="58.3333" x="626.5625" y="1615.9337">Velocidad</text><line style="stroke:#2196F3;stroke-width:1.0416666666666667;" x1="597.3958" x2="700.5208" y1="1633.2194" y2="1633.2194"/></g><!--class factura--><g id="elem_factura"><rect codeLine="56" fill="url(#g1upit6shxkgm91)" filter="url(#f1upit6shxkgm9)" height="95.4264" id="factura" rx="4.1667" ry="4.1667" style="stroke:#2196F3;stroke-width:1.0416666666666667;" width="150" x="767.7083" y="1300.8138"/><rect fill="url(#g1upit6shxkgm92)" height="44.5882" rx="4.1667" ry="4.1667" style="stroke:url(#g1upit6shxkgm92);stroke-width:1.0416666666666667;" width="150" x="767.7083" y="1300.8138"/><rect fill="url(#g1upit6shxkgm92)" height="4.1667" style="stroke:url(#g1upit6shxkgm92);stroke-width:1.0416666666666667;" width="150" x="767.7083" y="1341.2354"/><rect codeLine="56" fill="none" height="95.4264" id="factura" rx="4.1667" ry="4.1667" style="stroke:#2196F3;stroke-width:1.0416666666666667;" width="150" x="767.7083" y="1300.8138"/><ellipse cx="807.1354" cy="1323.1079" fill="none" rx="10.4167" ry="10.4167" style="stroke:#1A78C2;stroke-width:1.0416666666666667;"/><path d="M806.4355,1323.7101 L807.4935,1323.7101 L807.4935,1323.8078 C807.4935,1324.1007 807.526,1324.2147 807.5911,1324.3286 C807.7051,1324.5239 807.9167,1324.6216 808.1283,1324.6216 C808.3073,1324.6216 808.5026,1324.5239 808.6165,1324.3612 C808.7142,1324.2472 808.7305,1324.1333 808.7305,1323.8078 L808.7305,1322.3918 C808.7305,1322.2778 808.7305,1322.2453 808.7305,1322.1313 C808.6654,1321.7733 808.4538,1321.5617 808.112,1321.5617 C807.9167,1321.5617 807.7376,1321.6593 807.6074,1321.8221 C807.526,1321.936 807.4935,1322.05 807.4935,1322.3918 L807.4935,1322.4731 L806.4355,1322.4731 L806.4355,1320.7153 L809.3652,1320.7153 L809.3652,1321.3338 C809.3652,1321.6431 809.3815,1321.7733 809.4466,1321.8709 C809.5768,1322.0662 809.7721,1322.1802 809.9837,1322.1802 C810.179,1322.1802 810.3743,1322.0825 810.5046,1321.9198 C810.5859,1321.7896 810.6185,1321.6919 810.6185,1321.3338 L810.6185,1319.4621 L805.0033,1319.4621 C804.6777,1319.4621 804.5801,1319.4784 804.4661,1319.5597 C804.2871,1319.6737 804.1732,1319.8853 804.1732,1320.0968 C804.1732,1320.2922 804.2708,1320.4712 804.4336,1320.6014 C804.5475,1320.6991 804.6777,1320.7153 805.0033,1320.7153 L805.1823,1320.7153 L805.1823,1325.5005 L805.0033,1325.5005 C804.694,1325.5005 804.5801,1325.5168 804.4661,1325.5981 C804.2871,1325.7121 804.1732,1325.9237 804.1732,1326.1353 C804.1732,1326.3306 804.2708,1326.5096 804.4336,1326.6235 C804.5313,1326.7212 804.7103,1326.7537 805.0033,1326.7537 L810.8789,1326.7537 L810.8789,1324.8494 C810.8789,1324.5402 810.8626,1324.4263 810.7975,1324.3123 C810.6673,1324.1333 810.472,1324.0194 810.2604,1324.0194 C810.0651,1324.0194 809.8698,1324.1007 809.7559,1324.2798 C809.6582,1324.41 809.6419,1324.5076 809.6419,1324.8494 L809.6419,1325.5005 L806.4355,1325.5005 L806.4355,1323.7101 Z " fill="#FFFFFF"/><text fill="#FFFFFF" font-family="Verdana" font-size="11.4583" lengthAdjust="spacing" textLength="42.7083" x="836.6146" y="1327.0747">Factura</text><line style="stroke:#2196F3;stroke-width:1.0416666666666667;" x1="768.75" x2="916.6667" y1="1345.402" y2="1345.402"/><line style="stroke:#2196F3;stroke-width:1.0416666666666667;" x1="768.75" x2="916.6667" y1="1353.7354" y2="1353.7354"/><ellipse cx="779.1667" cy="1376.5503" fill="none" rx="3.125" ry="3.125" style="stroke:#1A78C2;stroke-width:1.0416666666666667;"/><text fill="#FFFFFF" font-family="Verdana" font-size="11.4583" lengthAdjust="spacing" textLength="103.125" x="797.9167" y="1378.9546">ID de factura (PK)</text></g><!--class llamada--><g id="elem_llamada"><rect codeLine="60" fill="url(#g1upit6shxkgm91)" filter="url(#f1upit6shxkgm9)" height="95.4264" id="llamada" rx="4.1667" ry="4.1667" style="stroke:#2196F3;stroke-width:1.0416666666666667;" width="156.25" x="257.2917" y="1757.5846"/><rect fill="url(#g1upit6shxkgm92)" height="44.5882" rx="4.1667" ry="4.1667" style="stroke:url(#g1upit6shxkgm92);stroke-width:1.0416666666666667;" width="156.25" x="257.2917" y="1757.5846"/><rect fill="url(#g1upit6shxkgm92)" height="4.1667" style="stroke:url(#g1upit6shxkgm92);stroke-width:1.0416666666666667;" width="156.25" x="257.2917" y="1798.0062"/><rect codeLine="60" fill="none" height="95.4264" id="llamada" rx="4.1667" ry="4.1667" style="stroke:#2196F3;stroke-width:1.0416666666666667;" width="156.25" x="257.2917" y="1757.5846"/><ellipse cx="296.25" cy="1779.8787" fill="none" rx="10.4167" ry="10.4167" style="stroke:#1A78C2;stroke-width:1.0416666666666667;"/><path d="M295.5501,1780.481 L296.6081,1780.481 L296.6081,1780.5786 C296.6081,1780.8716 296.6406,1780.9855 296.7057,1781.0994 C296.8197,1781.2948 297.0313,1781.3924 297.2428,1781.3924 C297.4219,1781.3924 297.6172,1781.2948 297.7311,1781.132 C297.8288,1781.0181 297.8451,1780.9041 297.8451,1780.5786 L297.8451,1779.1626 C297.8451,1779.0487 297.8451,1779.0161 297.8451,1778.9022 C297.7799,1778.5441 297.5684,1778.3325 297.2266,1778.3325 C297.0313,1778.3325 296.8522,1778.4302 296.722,1778.5929 C296.6406,1778.7069 296.6081,1778.8208 296.6081,1779.1626 L296.6081,1779.244 L295.5501,1779.244 L295.5501,1777.4862 L298.4798,1777.4862 L298.4798,1778.1047 C298.4798,1778.4139 298.4961,1778.5441 298.5612,1778.6418 C298.6914,1778.8371 298.8867,1778.951 299.0983,1778.951 C299.2936,1778.951 299.4889,1778.8534 299.6191,1778.6906 C299.7005,1778.5604 299.7331,1778.4627 299.7331,1778.1047 L299.7331,1776.2329 L294.1178,1776.2329 C293.7923,1776.2329 293.6947,1776.2492 293.5807,1776.3306 C293.4017,1776.4445 293.2878,1776.6561 293.2878,1776.8677 C293.2878,1777.063 293.3854,1777.242 293.5482,1777.3722 C293.6621,1777.4699 293.7923,1777.4862 294.1178,1777.4862 L294.2969,1777.4862 L294.2969,1782.2713 L294.1178,1782.2713 C293.8086,1782.2713 293.6947,1782.2876 293.5807,1782.369 C293.4017,1782.4829 293.2878,1782.6945 293.2878,1782.9061 C293.2878,1783.1014 293.3854,1783.2804 293.5482,1783.3944 C293.6458,1783.492 293.8249,1783.5246 294.1178,1783.5246 L299.9935,1783.5246 L299.9935,1781.6203 C299.9935,1781.311 299.9772,1781.1971 299.9121,1781.0832 C299.7819,1780.9041 299.5866,1780.7902 299.375,1780.7902 C299.1797,1780.7902 298.9844,1780.8716 298.8704,1781.0506 C298.7728,1781.1808 298.7565,1781.2785 298.7565,1781.6203 L298.7565,1782.2713 L295.5501,1782.2713 L295.5501,1780.481 Z " fill="#FFFFFF"/><text fill="#FFFFFF" font-family="Verdana" font-size="11.4583" lengthAdjust="spacing" textLength="50" x="325.625" y="1783.8455">Llamada</text><line style="stroke:#2196F3;stroke-width:1.0416666666666667;" x1="258.3333" x2="412.5" y1="1802.1729" y2="1802.1729"/><line style="stroke:#2196F3;stroke-width:1.0416666666666667;" x1="258.3333" x2="412.5" y1="1810.5062" y2="1810.5062"/><ellipse cx="268.75" cy="1833.3211" fill="none" rx="3.125" ry="3.125" style="stroke:#1A78C2;stroke-width:1.0416666666666667;"/><text fill="#FFFFFF" font-family="Verdana" font-size="11.4583" lengthAdjust="spacing" textLength="109.375" x="287.5" y="1835.7254">ID de llamada (PK)</text></g><!--class reclamacion--><g id="elem_reclamacion"><rect codeLine="64" fill="url(#g1upit6shxkgm91)" filter="url(#f1upit6shxkgm9)" height="95.4264" id="reclamacion" rx="4.1667" ry="4.1667" style="stroke:#2196F3;stroke-width:1.0416666666666667;" width="181.25" x="422.9167" y="877.3763"/><rect fill="url(#g1upit6shxkgm92)" height="44.5882" rx="4.1667" ry="4.1667" style="stroke:url(#g1upit6shxkgm92);stroke-width:1.0416666666666667;" width="181.25" x="422.9167" y="877.3763"/><rect fill="url(#g1upit6shxkgm92)" height="4.1667" style="stroke:url(#g1upit6shxkgm92);stroke-width:1.0416666666666667;" width="181.25" x="422.9167" y="917.7979"/><rect codeLine="64" fill="none" height="95.4264" id="reclamacion" rx="4.1667" ry="4.1667" style="stroke:#2196F3;stroke-width:1.0416666666666667;" width="181.25" x="422.9167" y="877.3763"/><ellipse cx="461.875" cy="899.6704" fill="none" rx="10.4167" ry="10.4167" style="stroke:#1A78C2;stroke-width:1.0416666666666667;"/><path d="M461.1751,900.2726 L462.2331,900.2726 L462.2331,900.3703 C462.2331,900.6632 462.2656,900.7772 462.3307,900.8911 C462.4447,901.0864 462.6563,901.1841 462.8678,901.1841 C463.0469,901.1841 463.2422,901.0864 463.3561,900.9237 C463.4538,900.8097 463.4701,900.6958 463.4701,900.3703 L463.4701,898.9543 C463.4701,898.8403 463.4701,898.8078 463.4701,898.6938 C463.4049,898.3358 463.1934,898.1242 462.8516,898.1242 C462.6563,898.1242 462.4772,898.2218 462.347,898.3846 C462.2656,898.4985 462.2331,898.6125 462.2331,898.9543 L462.2331,899.0356 L461.1751,899.0356 L461.1751,897.2778 L464.1048,897.2778 L464.1048,897.8963 C464.1048,898.2056 464.1211,898.3358 464.1862,898.4334 C464.3164,898.6287 464.5117,898.7427 464.7233,898.7427 C464.9186,898.7427 465.1139,898.645 465.2441,898.4823 C465.3255,898.3521 465.3581,898.2544 465.3581,897.8963 L465.3581,896.0246 L459.7428,896.0246 C459.4173,896.0246 459.3197,896.0409 459.2057,896.1222 C459.0267,896.2362 458.9128,896.4478 458.9128,896.6593 C458.9128,896.8547 459.0104,897.0337 459.1732,897.1639 C459.2871,897.2616 459.4173,897.2778 459.7428,897.2778 L459.9219,897.2778 L459.9219,902.063 L459.7428,902.063 C459.4336,902.063 459.3197,902.0793 459.2057,902.1606 C459.0267,902.2746 458.9128,902.4862 458.9128,902.6978 C458.9128,902.8931 459.0104,903.0721 459.1732,903.186 C459.2708,903.2837 459.4499,903.3162 459.7428,903.3162 L465.6185,903.3162 L465.6185,901.4119 C465.6185,901.1027 465.6022,900.9888 465.5371,900.8748 C465.4069,900.6958 465.2116,900.5819 465,900.5819 C464.8047,900.5819 464.6094,900.6632 464.4954,900.8423 C464.3978,900.9725 464.3815,901.0701 464.3815,901.4119 L464.3815,902.063 L461.1751,902.063 L461.1751,900.2726 Z " fill="#FFFFFF"/><text fill="#FFFFFF" font-family="Verdana" font-size="11.4583" lengthAdjust="spacing" textLength="75" x="491.25" y="903.6372">Reclamaci&#243;n</text><line style="stroke:#2196F3;stroke-width:1.0416666666666667;" x1="423.9583" x2="603.125" y1="921.9645" y2="921.9645"/><line style="stroke:#2196F3;stroke-width:1.0416666666666667;" x1="423.9583" x2="603.125" y1="930.2979" y2="930.2979"/><ellipse cx="434.375" cy="953.1128" fill="none" rx="3.125" ry="3.125" style="stroke:#1A78C2;stroke-width:1.0416666666666667;"/><text fill="#FFFFFF" font-family="Verdana" font-size="11.4583" lengthAdjust="spacing" textLength="134.375" x="453.125" y="955.5171">ID de reclamaci&#243;n (PK)</text></g><!--class sms--><g id="elem_sms"><rect fill="url(#g1upit6shxkgm91)" filter="url(#f1upit6shxkgm9)" height="61.2549" id="sms" rx="4.1667" ry="4.1667" style="stroke:#2196F3;stroke-width:1.0416666666666667;" width="76.0417" x="513.0208" y="1774.7721"/><rect fill="url(#g1upit6shxkgm92)" height="44.5882" rx="4.1667" ry="4.1667" style="stroke:url(#g1upit6shxkgm92);stroke-width:1.0416666666666667;" width="76.0417" x="513.0208" y="1774.7721"/><rect fill="url(#g1upit6shxkgm92)" height="4.1667" style="stroke:url(#g1upit6shxkgm92);stroke-width:1.0416666666666667;" width="76.0417" x="513.0208" y="1815.1937"/><rect fill="none" height="61.2549" id="sms" rx="4.1667" ry="4.1667" style="stroke:#2196F3;stroke-width:1.0416666666666667;" width="76.0417" x="513.0208" y="1774.7721"/><ellipse cx="527.6042" cy="1797.0662" fill="none" rx="10.4167" ry="10.4167" style="stroke:#1A78C2;stroke-width:1.0416666666666667;"/><path d="M529.541,1793.6808 C528.8574,1793.3553 528.418,1793.2576 527.7669,1793.2576 C525.8464,1793.2576 524.3652,1794.7713 524.3652,1796.7733 L524.3652,1797.6034 C524.3652,1799.5076 525.9277,1800.8911 528.0436,1800.8911 C528.9388,1800.8911 529.8014,1800.6632 530.3385,1800.2563 C530.778,1799.9634 531.0059,1799.6379 531.0059,1799.3449 C531.0059,1799.0194 530.7129,1798.7264 530.3874,1798.7264 C530.2246,1798.7264 530.0781,1798.7915 529.9316,1798.9217 C529.5898,1799.2798 529.5898,1799.2798 529.4596,1799.3449 C529.1504,1799.5402 528.6458,1799.6379 528.0762,1799.6379 C526.5788,1799.6379 525.6185,1798.8241 525.6185,1797.5708 L525.6185,1796.7733 C525.6185,1795.4549 526.5462,1794.4946 527.8158,1794.4946 C528.2389,1794.4946 528.6947,1794.6086 529.0365,1794.8039 C529.3945,1794.9992 529.5247,1795.1619 529.5898,1795.4549 C529.6387,1795.7642 529.6549,1795.8455 529.7526,1795.9432 C529.8503,1796.0571 530.0293,1796.1222 530.1921,1796.1222 C530.4036,1796.1222 530.5827,1796.0246 530.7129,1795.8618 C530.7943,1795.7479 530.8268,1795.6177 530.8268,1795.2922 L530.8268,1794.2505 C530.8268,1793.9412 530.8105,1793.8436 530.7292,1793.7297 C530.6152,1793.5343 530.4199,1793.4204 530.1921,1793.4204 C529.9805,1793.4204 529.834,1793.5018 529.6712,1793.7297 L529.541,1793.6808 Z " fill="#FFFFFF"/><text fill="#FFFFFF" font-family="Verdana" font-size="11.4583" lengthAdjust="spacing" textLength="23.9583" x="551.5625" y="1801.033">sms</text><line style="stroke:#2196F3;stroke-width:1.0416666666666667;" x1="514.0625" x2="588.0208" y1="1819.3604" y2="1819.3604"/><line style="stroke:#2196F3;stroke-width:1.0416666666666667;" x1="514.0625" x2="588.0208" y1="1827.6937" y2="1827.6937"/></g><!--link usuario to cliente--><g id="link_usuario_cliente"><path codeLine="68" d="M743.1065,372.6248 C741.5315,455.6561 736.1156,556.1992 719.7917,651.3346 C718.0469,661.5013 720.5051,654.1794 717.6603,664.3044 " fill="none" id="usuario-cliente" style="stroke:#2196F3;stroke-width:3.125;"/><line style="stroke:#2196F3;stroke-width:3.125;" x1="739.0196" x2="747.3515" y1="368.3799" y2="368.5379"/><line style="stroke:#2196F3;stroke-width:3.125;" x1="738.9604" x2="747.2922" y1="371.5043" y2="371.6623"/><line style="stroke:#2196F3;stroke-width:3.125;" x1="743.1065" x2="743.2646" y1="372.6248" y2="364.293"/><line style="stroke:#2196F3;stroke-width:3.125;" x1="714.8427" x2="718.6056" y1="674.3328" y2="684.0461"/><line style="stroke:#2196F3;stroke-width:3.125;" x1="714.8427" x2="706.5715" y1="674.3328" y2="680.6649"/><line style="stroke:#2196F3;stroke-width:3.125;" x1="714.8427" x2="712.5885" y1="674.3328" y2="682.3555"/><ellipse cx="716.5332" cy="668.3158" fill="none" rx="4.1667" ry="4.1667" style="stroke:#2196F3;stroke-width:3.125;"/><text fill="#222222" font-family="Verdana" font-size="12.5" lengthAdjust="spacing" textLength="18.75" x="751.0417" y="515.5416">Rol</text></g><!--link usuario to ventasMarketing--><g id="link_usuario_ventasMarketing"><path codeLine="69" d="M656.0945,308.9245 C605.5841,354.2995 545.4542,408.7826 487.5,462.793 C440.6021,506.5013 400.5736,545.0414 367.908,576.7706 " fill="none" id="usuario-ventasMarketing" style="stroke:#2196F3;stroke-width:3.125;"/><line style="stroke:#2196F3;stroke-width:3.125;" x1="656.4096" x2="661.9786" y1="303.0403" y2="309.2396"/><line style="stroke:#2196F3;stroke-width:3.125;" x1="654.0849" x2="659.6539" y1="305.1287" y2="311.328"/><line style="stroke:#2196F3;stroke-width:3.125;" x1="656.0945" x2="662.2938" y1="308.9245" y2="303.3555"/><line style="stroke:#2196F3;stroke-width:3.125;" x1="360.436" x2="358.813" y1="584.0284" y2="594.3178"/><line style="stroke:#2196F3;stroke-width:3.125;" x1="360.436" x2="350.1036" y1="584.0284" y2="585.3514"/><line style="stroke:#2196F3;stroke-width:3.125;" x1="360.436" x2="354.4583" y1="584.0284" y2="589.8346"/><ellipse cx="364.9192" cy="579.6737" fill="none" rx="4.1667" ry="4.1667" style="stroke:#2196F3;stroke-width:3.125;"/><text fill="#222222" font-family="Verdana" font-size="12.5" lengthAdjust="spacing" textLength="18.75" x="568.75" y="418.1458">Rol</text></g><!--link usuario to atencionCliente--><g id="link_usuario_atencionCliente"><path codeLine="70" d="M664.6799,371.3616 C640.4757,414.7366 628.9963,435.3047 613.2921,463.4505 " fill="none" id="usuario-atencionCliente" style="stroke:#2196F3;stroke-width:3.125;"/><line style="stroke:#2196F3;stroke-width:3.125;" x1="663.0718" x2="670.3488" y1="365.6928" y2="369.7535"/><line style="stroke:#2196F3;stroke-width:3.125;" x1="661.549" x2="668.826" y1="368.4217" y2="372.4824"/><line style="stroke:#2196F3;stroke-width:3.125;" x1="664.6799" x2="668.7406" y1="371.3616" y2="364.0846"/><line style="stroke:#2196F3;stroke-width:3.125;" x1="608.2166" x2="609.6142" y1="472.547" y2="482.8695"/><line style="stroke:#2196F3;stroke-width:3.125;" x1="608.2166" x2="598.6983" y1="472.547" y2="476.7789"/><line style="stroke:#2196F3;stroke-width:3.125;" x1="608.2166" x2="604.1563" y1="472.547" y2="479.8242"/><ellipse cx="611.2619" cy="467.0891" fill="none" rx="4.1667" ry="4.1667" style="stroke:#2196F3;stroke-width:3.125;"/><text fill="#222222" font-family="Verdana" font-size="12.5" lengthAdjust="spacing" textLength="18.75" x="663.5417" y="418.1458">Rol</text></g><!--link usuario to finanzas--><g id="link_usuario_finanzas"><path codeLine="71" d="M827.5421,337.9389 C860.4702,388.4076 886.4583,445.5326 886.4583,509.668 C886.4583,509.668 886.4583,509.668 886.4583,926.3346 C886.4583,984.7336 896.7454,1033.5155 906.6204,1071.1415 " fill="none" id="usuario-finanzas" style="stroke:#2196F3;stroke-width:3.125;"/><line style="stroke:#2196F3;stroke-width:3.125;" x1="821.7757" x2="828.7549" y1="336.726" y2="332.1725"/><line style="stroke:#2196F3;stroke-width:3.125;" x1="823.4833" x2="830.4625" y1="339.3432" y2="334.7897"/><line style="stroke:#2196F3;stroke-width:3.125;" x1="827.5421" x2="822.9885" y1="337.9389" y2="330.9596"/><line style="stroke:#2196F3;stroke-width:3.125;" x1="909.2648" x2="917.4255" y1="1081.217" y2="1087.6908"/><line style="stroke:#2196F3;stroke-width:3.125;" x1="909.2648" x2="905.3349" y1="1081.217" y2="1090.8639"/><line style="stroke:#2196F3;stroke-width:3.125;" x1="909.2648" x2="911.3802" y1="1081.217" y2="1089.2773"/><ellipse cx="907.6782" cy="1075.1717" fill="none" rx="4.1667" ry="4.1667" style="stroke:#2196F3;stroke-width:3.125;"/><text fill="#222222" font-family="Verdana" font-size="12.5" lengthAdjust="spacing" textLength="18.75" x="897.9167" y="735.3333">Rol</text></g><!--link usuario to rol--><g id="link_usuario_rol"><path codeLine="74" d="M823.3281,302.5638 C852.9771,330.2409 886.0094,362.9805 913.5417,395.0846 C931.6427,416.1888 939.1561,425.7612 953.4738,447.1154 " fill="none" id="usuario-to-rol" style="stroke:#2196F3;stroke-width:3.125;"/><line style="stroke:#2196F3;stroke-width:3.125;" x1="959.2748" x2="969.1068" y1="455.7673" y2="459.2082"/><line style="stroke:#2196F3;stroke-width:3.125;" x1="959.2748" x2="958.7245" y1="455.7673" y2="466.1694"/><line style="stroke:#2196F3;stroke-width:3.125;" x1="959.2748" x2="963.9156" y1="455.7673" y2="462.6888"/><ellipse cx="955.7942" cy="450.5761" fill="none" rx="4.1667" ry="4.1667" style="stroke:#2196F3;stroke-width:3.125;"/><text fill="#222222" font-family="Verdana" font-size="12.5" lengthAdjust="spacing" textLength="31.25" x="954.1667" y="418.1458">tiene</text></g><!--link linea to tipoLinea--><g id="link_linea_tipoLinea"><path codeLine="75" d="M289.9813,1411.1492 C242.724,1452.9461 195.153,1495.0219 151.7384,1533.4208 " fill="none" id="linea-to-tipoLinea" style="stroke:#2196F3;stroke-width:3.125;"/><line style="stroke:#2196F3;stroke-width:3.125;" x1="143.9358" x2="141.8345" y1="1540.322" y2="1550.5245"/><line style="stroke:#2196F3;stroke-width:3.125;" x1="143.9358" x2="133.553" y1="1540.322" y2="1541.1614"/><line style="stroke:#2196F3;stroke-width:3.125;" x1="143.9358" x2="137.6938" y1="1540.322" y2="1545.843"/><ellipse cx="148.6174" cy="1536.1813" fill="none" rx="4.1667" ry="4.1667" style="stroke:#2196F3;stroke-width:3.125;"/><text fill="#222222" font-family="Verdana" font-size="12.5" lengthAdjust="spacing" textLength="31.25" x="241.6667" y="1484.8124">tiene</text></g><!--link contrato to linea--><g id="link_contrato_linea"><path codeLine="77" d="M515.238,1170.383 C499.9515,1180.5236 491.4896,1187.2638 478.125,1199.2513 C455.8917,1219.194 446.1539,1228.8695 427.8362,1252.0747 " fill="none" id="contrato-linea" style="stroke:#2196F3;stroke-width:3.125;"/><line style="stroke:#2196F3;stroke-width:3.125;" x1="516.4068" x2="521.0135" y1="1164.6075" y2="1171.5518"/><line style="stroke:#2196F3;stroke-width:3.125;" x1="513.8027" x2="518.4094" y1="1166.335" y2="1173.2793"/><line style="stroke:#2196F3;stroke-width:3.125;" x1="515.238" x2="522.1823" y1="1170.383" y2="1165.7763"/><line style="stroke:#2196F3;stroke-width:3.125;" x1="421.3821" x2="421.1245" y1="1260.2509" y2="1270.6644"/><line style="stroke:#2196F3;stroke-width:3.125;" x1="421.3821" x2="411.313" y1="1260.2509" y2="1262.9194"/><line style="stroke:#2196F3;stroke-width:3.125;" x1="421.3821" x2="416.2188" y1="1260.2509" y2="1266.7919"/><ellipse cx="425.2546" cy="1255.3452" fill="none" rx="4.1667" ry="4.1667" style="stroke:#2196F3;stroke-width:3.125;"/><text fill="#222222" font-family="Verdana" font-size="12.5" lengthAdjust="spacing" textLength="97.9167" x="489.5833" y="1222.3124">Compuesto por</text></g><!--link cliente to contrato--><g id="link_cliente_contrato"><path codeLine="79" d="M690.4156,778.6784 C681.3219,839.9826 662.6302,949.9992 634.375,1040.918 C631.1802,1051.1982 634.2773,1044.6474 630.0721,1054.7911 " fill="none" id="cliente-to-contrato" style="stroke:#2196F3;stroke-width:3.125;"/><line style="stroke:#2196F3;stroke-width:3.125;" x1="626.083" x2="628.6652" y1="1064.4137" y2="1074.5052"/><line style="stroke:#2196F3;stroke-width:3.125;" x1="626.083" x2="617.1181" y1="1064.4137" y2="1069.7182"/><line style="stroke:#2196F3;stroke-width:3.125;" x1="626.083" x2="622.8917" y1="1064.4137" y2="1072.1117"/><ellipse cx="628.4765" cy="1058.6401" fill="none" rx="4.1667" ry="4.1667" style="stroke:#2196F3;stroke-width:3.125;"/><text fill="#222222" font-family="Verdana" font-size="12.5" lengthAdjust="spacing" textLength="57.2917" x="685.4167" y="930.1249">Adquiere</text></g><!--link cliente to reclamacion--><g id="link_cliente_reclamacion"><path codeLine="80" d="M614.3355,783.5347 C601.7324,793.0243 595.9969,798.5326 585.4167,809.668 C566.4917,829.5857 559.1162,838.93 546.6266,860.9071 " fill="none" id="cliente-reclamacion" style="stroke:#2196F3;stroke-width:3.125;"/><line style="stroke:#2196F3;stroke-width:3.125;" x1="615.1578" x2="620.1704" y1="777.6998" y2="784.357"/><line style="stroke:#2196F3;stroke-width:3.125;" x1="612.6614" x2="617.6739" y1="779.5795" y2="786.2367"/><line style="stroke:#2196F3;stroke-width:3.125;" x1="614.3355" x2="620.9927" y1="783.5347" y2="778.5221"/><line style="stroke:#2196F3;stroke-width:3.125;" x1="541.4799" x2="542.7963" y1="869.9635" y2="880.2966"/><line style="stroke:#2196F3;stroke-width:3.125;" x1="541.4799" x2="531.9287" y1="869.9635" y2="874.1205"/><line style="stroke:#2196F3;stroke-width:3.125;" x1="541.4799" x2="537.3625" y1="869.9635" y2="877.2086"/><ellipse cx="544.5679" cy="864.5297" fill="none" rx="4.1667" ry="4.1667" style="stroke:#2196F3;stroke-width:3.125;"/><text fill="#222222" font-family="Verdana" font-size="12.5" lengthAdjust="spacing" textLength="41.6667" x="596.875" y="832.7291">realiza</text></g><!--link reclamacion to contrato--><g id="link_reclamacion_contrato"><path codeLine="81" d="M538.3921,981.0641 C552.0014,1011.0381 558.3574,1025.0372 571.9542,1054.982 " fill="none" id="reclamacion-contrato" style="stroke:#2196F3;stroke-width:3.125;"/><line style="stroke:#2196F3;stroke-width:3.125;" x1="532.8755" x2="540.4634" y1="978.9928" y2="975.5476"/><line style="stroke:#2196F3;stroke-width:3.125;" x1="534.1675" x2="541.7553" y1="981.8382" y2="978.3931"/><line style="stroke:#2196F3;stroke-width:3.125;" x1="538.3921" x2="534.9469" y1="981.0641" y2="973.4763"/><line style="stroke:#2196F3;stroke-width:3.125;" x1="576.2609" x2="585.3971" y1="1064.4667" y2="1069.4704"/><line style="stroke:#2196F3;stroke-width:3.125;" x1="576.2609" x2="574.0154" y1="1064.4667" y2="1074.6384"/><line style="stroke:#2196F3;stroke-width:3.125;" x1="576.2609" x2="579.7063" y1="1064.4667" y2="1072.0544"/><ellipse cx="573.6769" cy="1058.7758" fill="none" rx="4.1667" ry="4.1667" style="stroke:#2196F3;stroke-width:3.125;"/><text fill="#222222" font-family="Verdana" font-size="12.5" lengthAdjust="spacing" textLength="37.5" x="577.0833" y="1027.5208">sobre</text></g><!--link movil to llamada--><g id="link_movil_llamada"><path codeLine="83" d="M421.4121,1665.3438 C413.7882,1675.6511 411.1083,1679.6117 404.1667,1689.8763 C389.4823,1711.5919 383.8422,1720.2838 371.5369,1741.2921 " fill="none" id="movil-llamada" style="stroke:#2196F3;stroke-width:3.125;"/><line style="stroke:#2196F3;stroke-width:3.125;" x1="420.54" x2="427.2398" y1="1659.5161" y2="1664.4717"/><line style="stroke:#2196F3;stroke-width:3.125;" x1="418.6817" x2="425.3815" y1="1662.0285" y2="1666.9841"/><line style="stroke:#2196F3;stroke-width:3.125;" x1="421.4121" x2="426.3677" y1="1665.3438" y2="1658.644"/><line style="stroke:#2196F3;stroke-width:3.125;" x1="366.2722" x2="367.4534" y1="1750.2804" y2="1760.6298"/><line style="stroke:#2196F3;stroke-width:3.125;" x1="366.2722" x2="356.6674" y1="1750.2804" y2="1754.3121"/><line style="stroke:#2196F3;stroke-width:3.125;" x1="366.2722" x2="362.0604" y1="1750.2804" y2="1757.471"/><ellipse cx="369.4311" cy="1744.8874" fill="none" rx="4.1667" ry="4.1667" style="stroke:#2196F3;stroke-width:3.125;"/><text fill="#222222" font-family="Verdana" font-size="12.5" lengthAdjust="spacing" textLength="75" x="415.625" y="1712.9374">Pertenece a</text></g><!--link movil to sms--><g id="link_movil_sms"><path codeLine="84" d="M502.0526,1666.6345 C505.8088,1677.0178 506.8125,1679.8242 510.4167,1689.8763 C520.7469,1718.6846 526.1671,1733.9376 534.3369,1757.0817 " fill="none" id="movil-sms" style="stroke:#2196F3;stroke-width:3.125;"/><line style="stroke:#2196F3;stroke-width:3.125;" x1="496.717" x2="504.5533" y1="1664.1338" y2="1661.2989"/><line style="stroke:#2196F3;stroke-width:3.125;" x1="497.78" x2="505.6164" y1="1667.0724" y2="1664.2375"/><line style="stroke:#2196F3;stroke-width:3.125;" x1="502.0526" x2="499.2177" y1="1666.6345" y2="1658.7982"/><line style="stroke:#2196F3;stroke-width:3.125;" x1="537.8042" x2="546.4717" y1="1766.9043" y2="1772.682"/><line style="stroke:#2196F3;stroke-width:3.125;" x1="537.8042" x2="534.6845" y1="1766.9043" y2="1776.8429"/><line style="stroke:#2196F3;stroke-width:3.125;" x1="537.8042" x2="540.5781" y1="1766.9043" y2="1774.7624"/><ellipse cx="535.7238" cy="1761.0107" fill="none" rx="4.1667" ry="4.1667" style="stroke:#2196F3;stroke-width:3.125;"/><text fill="#222222" font-family="Verdana" font-size="12.5" lengthAdjust="spacing" textLength="75" x="534.375" y="1712.9374">Pertenece a</text></g><!--link fijo to llamada--><g id="link_fijo_llamada"><path codeLine="86" d="M261.5141,1650.2888 C258.4068,1675.9565 258.8948,1699.6023 268.75,1726.3346 C272.8208,1737.3763 267.8865,1732.9829 275.148,1742.5479 " fill="none" id="fijo-llamada" style="stroke:#2196F3;stroke-width:3.125;"/><line style="stroke:#2196F3;stroke-width:3.125;" x1="257.8784" x2="266.1513" y1="1645.6516" y2="1646.6531"/><line style="stroke:#2196F3;stroke-width:3.125;" x1="257.5028" x2="265.7758" y1="1648.7539" y2="1649.7555"/><line style="stroke:#2196F3;stroke-width:3.125;" x1="261.5141" x2="262.5156" y1="1650.2888" y2="1642.0159"/><line style="stroke:#2196F3;stroke-width:3.125;" x1="281.4466" x2="291.4634" y1="1750.8446" y2="1753.7028"/><line style="stroke:#2196F3;stroke-width:3.125;" x1="281.4466" x2="281.5074" y1="1750.8446" y2="1761.2611"/><line style="stroke:#2196F3;stroke-width:3.125;" x1="281.4466" x2="286.4854" y1="1750.8446" y2="1757.4819"/><ellipse cx="277.6674" cy="1745.8666" fill="none" rx="4.1667" ry="4.1667" style="stroke:#2196F3;stroke-width:3.125;"/><text fill="#222222" font-family="Verdana" font-size="12.5" lengthAdjust="spacing" textLength="75" x="280.2083" y="1712.9374">Pertenece a</text></g><!--link ventasMarketing to linea--><g id="link_ventasMarketing_linea"><path codeLine="88" d="M317.7865,651.4076 C310.0865,691.1888 297.9167,764.0117 297.9167,826.8555 C297.9167,826.8555 297.9167,826.8555 297.9167,1121.1263 C297.9167,1170.644 305.7011,1206.449 320.248,1249.048 " fill="none" id="ventasMarketing-to-linea" style="stroke:#2196F3;stroke-width:3.125;"/><line style="stroke:#2196F3;stroke-width:3.125;" x1="323.6143" x2="332.2219" y1="1258.9057" y2="1264.7722"/><line style="stroke:#2196F3;stroke-width:3.125;" x1="323.6143" x2="320.3926" y1="1258.9057" y2="1268.8117"/><line style="stroke:#2196F3;stroke-width:3.125;" x1="323.6143" x2="326.3073" y1="1258.9057" y2="1266.7919"/><ellipse cx="321.5945" cy="1252.9911" fill="none" rx="4.1667" ry="4.1667" style="stroke:#2196F3;stroke-width:3.125;"/><text fill="#222222" font-family="Verdana" font-size="12.5" lengthAdjust="spacing" textLength="65.625" x="309.375" y="930.1249">Administra</text></g><!--link atencionCliente to cliente--><g id="link_atencionCliente_cliente"><path codeLine="89" d="M591.9313,541.5638 C597.1906,570.8971 607.7865,616.2409 627.0833,651.3346 C633.0417,662.168 628.7359,658.3743 636.8578,668.093 " fill="none" id="atencionCliente-to-cliente" style="stroke:#2196F3;stroke-width:3.125;"/><line style="stroke:#2196F3;stroke-width:3.125;" x1="643.5375" x2="653.6771" y1="676.086" y2="678.4726"/><line style="stroke:#2196F3;stroke-width:3.125;" x1="643.5375" x2="644.0854" y1="676.086" y2="686.4883"/><line style="stroke:#2196F3;stroke-width:3.125;" x1="643.5375" x2="648.8813" y1="676.086" y2="682.4805"/><ellipse cx="639.5297" cy="671.2902" fill="none" rx="4.1667" ry="4.1667" style="stroke:#2196F3;stroke-width:3.125;"/><text fill="#222222" font-family="Verdana" font-size="12.5" lengthAdjust="spacing" textLength="65.625" x="638.5417" y="625.4374">Administra</text></g><!--link atencionCliente to reclamacion--><g id="link_atencionCliente_reclamacion"><path codeLine="90" d="M575.1469,541.6992 C561.8615,575.3451 541.2948,631.8971 531.25,682.5846 C518.0448,749.2305 514.7788,809.2198 513.9267,858.2687 " fill="none" id="atencionCliente-to-reclamacion" style="stroke:#2196F3;stroke-width:3.125;"/><line style="stroke:#2196F3;stroke-width:3.125;" x1="513.7458" x2="519.8501" y1="868.6838" y2="877.1244"/><line style="stroke:#2196F3;stroke-width:3.125;" x1="513.7458" x2="507.352" y1="868.6838" y2="876.9073"/><line style="stroke:#2196F3;stroke-width:3.125;" x1="513.7458" x2="513.601" y1="868.6838" y2="877.0159"/><ellipse cx="513.8543" cy="862.4348" fill="none" rx="4.1667" ry="4.1667" style="stroke:#2196F3;stroke-width:3.125;"/><text fill="#222222" font-family="Verdana" font-size="12.5" lengthAdjust="spacing" textLength="47.9167" x="542.7083" y="735.3333">Atiende</text></g><!--link finanzas to factura--><g id="link_finanzas_factura"><path codeLine="91" d="M896.6542,1151.1732 C886.9781,1165.1117 876.4552,1182.318 869.7917,1199.2513 C856.9865,1231.794 852.41,1252.1469 848.8204,1281.9897 " fill="none" id="finanzas-to-factura" style="stroke:#2196F3;stroke-width:3.125;"/><line style="stroke:#2196F3;stroke-width:3.125;" x1="847.5764" x2="852.7865" y1="1292.3318" y2="1301.3519"/><line style="stroke:#2196F3;stroke-width:3.125;" x1="847.5764" x2="840.376" y1="1292.3318" y2="1299.8591"/><line style="stroke:#2196F3;stroke-width:3.125;" x1="847.5764" x2="846.5813" y1="1292.3318" y2="1300.6055"/><ellipse cx="848.3228" cy="1286.1265" fill="none" rx="4.1667" ry="4.1667" style="stroke:#2196F3;stroke-width:3.125;"/><text fill="#222222" font-family="Verdana" font-size="12.5" lengthAdjust="spacing" textLength="65.625" x="881.25" y="1222.3124">Administra</text></g><!--link finanzas to factura--><g id="link_finanzas_factura"><path codeLine="92" d="M943.8302,1151.1451 C959.4281,1174.4617 974.7573,1207.4721 962.5,1235.7096 C951.5604,1260.9096 945.9597,1270.6786 925.641,1288.4515 " fill="none" id="finanzas-to-factura-1" style="stroke:#2196F3;stroke-width:3.125;"/><line style="stroke:#2196F3;stroke-width:3.125;" x1="917.8005" x2="915.643" y1="1295.3096" y2="1305.5004"/><line style="stroke:#2196F3;stroke-width:3.125;" x1="917.8005" x2="907.4133" y1="1295.3096" y2="1296.0918"/><line style="stroke:#2196F3;stroke-width:3.125;" x1="917.8005" x2="911.5281" y1="1295.3096" y2="1300.7961"/><ellipse cx="922.5048" cy="1291.1947" fill="none" rx="4.1667" ry="4.1667" style="stroke:#2196F3;stroke-width:3.125;"/><text fill="#222222" font-family="Verdana" font-size="12.5" lengthAdjust="spacing" textLength="32.2917" x="979.1667" y="1222.3124">Env&#237;a</text></g><!--link factura to cliente--><g id="link_factura_cliente"><path codeLine="93" d="M838.6792,1300.7211 C830.4594,1215.0461 808.5104,1028.3117 762.5,877.3763 C752.0969,843.2503 743.9158,823.4433 730.0668,795.4433 " fill="none" id="factura-to-cliente" style="stroke:#2196F3;stroke-width:3.125;"/><line style="stroke:#2196F3;stroke-width:3.125;" x1="725.4487" x2="716.152" y1="786.1063" y2="781.4076"/><line style="stroke:#2196F3;stroke-width:3.125;" x1="725.4487" x2="727.3564" y1="786.1063" y2="775.8658"/><line style="stroke:#2196F3;stroke-width:3.125;" x1="725.4487" x2="721.7542" y1="786.1063" y2="778.6367"/><ellipse cx="728.2196" cy="791.7085" fill="none" rx="4.1667" ry="4.1667" style="stroke:#2196F3;stroke-width:3.125;"/><text fill="#222222" font-family="Verdana" font-size="12.5" lengthAdjust="spacing" textLength="8.3333" x="813.5417" y="1027.5208">A</text></g><!--link contrato to factura--><g id="link_contrato_factura"><path codeLine="94" d="M634.2657,1175.1784 C648.8032,1197.0451 663.0531,1215.6388 683.3333,1235.7096 C708.3302,1260.4492 723.738,1273.1387 751.7265,1291.8721 " fill="none" id="contrato-factura" style="stroke:#2196F3;stroke-width:3.125;"/><line style="stroke:#2196F3;stroke-width:3.125;" x1="628.4891" x2="635.4287" y1="1174.0154" y2="1169.4018"/><line style="stroke:#2196F3;stroke-width:3.125;" x1="630.2192" x2="637.1588" y1="1176.6178" y2="1172.0042"/><line style="stroke:#2196F3;stroke-width:3.125;" x1="634.2657" x2="629.6521" y1="1175.1784" y2="1168.2388"/><line style="stroke:#2196F3;stroke-width:3.125;" x1="760.3831" x2="770.7848" y1="1297.6661" y2="1297.1074"/><line style="stroke:#2196F3;stroke-width:3.125;" x1="760.3831" x2="763.8319" y1="1297.6661" y2="1307.4952"/><line style="stroke:#2196F3;stroke-width:3.125;" x1="760.3831" x2="767.3083" y1="1297.6661" y2="1302.3013"/><ellipse cx="755.1891" cy="1294.1897" fill="none" rx="4.1667" ry="4.1667" style="stroke:#2196F3;stroke-width:3.125;"/><text fill="#222222" font-family="Verdana" font-size="12.5" lengthAdjust="spacing" textLength="79.1667" x="694.7917" y="1222.3124">Depende de</text></g><!--link linea to fijo--><g id="link_linea_fijo"><path codeLine="96" d="M327.4177,1438.6052 C313.6469,1476.8854 306.8616,1495.7468 295.1178,1528.3916 " fill="none" id="linea-fijo" style="stroke:#2196F3;stroke-width:3.125;"/><line style="stroke:#2196F3;stroke-width:3.125;" x1="324.9074" x2="332.7488" y1="1433.2741" y2="1436.0949"/><line style="stroke:#2196F3;stroke-width:3.125;" x1="323.8496" x2="331.691" y1="1436.2146" y2="1439.0354"/><line style="stroke:#2196F3;stroke-width:3.125;" x1="327.4177" x2="330.2385" y1="1438.6052" y2="1430.7638"/><line style="stroke:#2196F3;stroke-width:3.125;" x1="291.5917" x2="294.6519" y1="1538.1933" y2="1548.1503"/><line style="stroke:#2196F3;stroke-width:3.125;" x1="291.5917" x2="282.8898" y1="1538.1933" y2="1543.919"/><line style="stroke:#2196F3;stroke-width:3.125;" x1="291.5917" x2="288.7708" y1="1538.1933" y2="1546.0346"/><ellipse cx="293.7074" cy="1532.3122" fill="none" rx="4.1667" ry="4.1667" style="stroke:#2196F3;stroke-width:3.125;"/><text fill="#222222" font-family="Verdana" font-size="12.5" lengthAdjust="spacing" textLength="27.0833" x="330.2083" y="1484.8124">Tipo</text></g><!--link linea to movil--><g id="link_linea_movil"><path codeLine="97" d="M401.827,1438.2774 C417.2062,1470.3389 422.9114,1482.2363 437.3655,1512.3686 " fill="none" id="linea-movil" style="stroke:#2196F3;stroke-width:3.125;"/><line style="stroke:#2196F3;stroke-width:3.125;" x1="396.2682" x2="403.7818" y1="1436.3227" y2="1432.7186"/><line style="stroke:#2196F3;stroke-width:3.125;" x1="397.6197" x2="405.1333" y1="1439.1403" y2="1435.5362"/><line style="stroke:#2196F3;stroke-width:3.125;" x1="401.827" x2="398.2229" y1="1438.2774" y2="1430.7638"/><line style="stroke:#2196F3;stroke-width:3.125;" x1="441.8708" x2="451.1102" y1="1521.7606" y2="1526.5711"/><line style="stroke:#2196F3;stroke-width:3.125;" x1="441.8708" x2="439.8398" y1="1521.7606" y2="1531.9774"/><line style="stroke:#2196F3;stroke-width:3.125;" x1="441.8708" x2="445.475" y1="1521.7606" y2="1529.2742"/><ellipse cx="439.1676" cy="1516.1254" fill="none" rx="4.1667" ry="4.1667" style="stroke:#2196F3;stroke-width:3.125;"/><text fill="#222222" font-family="Verdana" font-size="12.5" lengthAdjust="spacing" textLength="27.0833" x="440.625" y="1484.8124">Tipo</text></g><!--link linea to fibra--><g id="link_linea_fibra"><path codeLine="98" d="M435.454,1410.9078 C478.7571,1445.9932 528.9021,1487.2003 578.125,1529.4596 C584.2667,1534.7326 576.6071,1527.8942 582.9176,1533.4744 " fill="none" id="linea-fibra" style="stroke:#2196F3;stroke-width:3.125;"/><line style="stroke:#2196F3;stroke-width:3.125;" x1="429.5935" x2="434.8396" y1="1411.5222" y2="1405.0474"/><line style="stroke:#2196F3;stroke-width:3.125;" x1="432.0216" x2="437.2677" y1="1413.4894" y2="1407.0146"/><line style="stroke:#2196F3;stroke-width:3.125;" x1="435.454" x2="428.9792" y1="1410.9078" y2="1405.6617"/><line style="stroke:#2196F3;stroke-width:3.125;" x1="590.7209" x2="601.1038" y1="1540.3748" y2="1541.2131"/><line style="stroke:#2196F3;stroke-width:3.125;" x1="590.7209" x2="592.8233" y1="1540.3748" y2="1550.577"/><line style="stroke:#2196F3;stroke-width:3.125;" x1="590.7209" x2="596.9635" y1="1540.3748" y2="1545.8951"/><ellipse cx="586.0389" cy="1536.2345" fill="none" rx="4.1667" ry="4.1667" style="stroke:#2196F3;stroke-width:3.125;"/><text fill="#222222" font-family="Verdana" font-size="12.5" lengthAdjust="spacing" textLength="27.0833" x="548.9583" y="1484.8124">Tipo</text></g><!--SRC=[XLJ9Rjim4BtpAzYSMXJv0TqCEm6Ane4H9BapqgIXoqKbAGDP-a4zv9HRh_gn3ZUPb9tqDfmtwvidEUu4qBNkG6YwrAg5tWrCq0xeYZbjoIVt01AeP0uCPmIKu-wHdjpOWHckJoYpT8WsVIQKVgNVLZuv-pvlldy9xaijxmmKKE4Dvg878NWN_MUISH6iAot8RpBrNGgE9eI-RRJVxrlatQA1AO-uYFa9ZgiVeSGkkDVPXwMAd8K3rVBnJL4af2qQim1ejPm6ABBEkMBgYTaGUPyUTGZk552ZHHh-bWbj3eR6UpY3LuZRfaUrxkISfrwChmfOI1GShIfB171_cslUHzet1d2liew7V4fHpw7hegXvVFPpljM9WcsU-NByAy64UWx4-ETUgwhPUdpRyKYDr6XzbEO1vCSECW1T46lL_ywmD01QULQKUSixrbMXh7L33evsHLVs7N0ic6HT8ZdQDSt9Dy-xWjOZGLfH1zcXLLN0585JbQpmbvVJK_qyVGHD-59cu5pUHuFcQZuQD0avelin0kg5tA0mG069SWlklL8oI2R1fheYmKij-m4i0hqs69PcYIlcd8Okkby31_nZv81KfcImmHSJ_8cHqflfIhKQQhN_yv0ej3nDkbX3Ds2G5cY1iZh4IZk3IL3uXnN8_13xtVrEaYjkSImoFqLvuVy75kjYi2Uy0p8TBfunIhcgzKx4cTgDhuWcySz6EJXaZcle2dhV6GLCaXWc3Mtz3SFVfW8YmSUG-Er6v1y0]--></g></svg>