<?xml version="1.0" encoding="us-ascii" standalone="no"?><svg xmlns="http://www.w3.org/2000/svg" xmlns:xlink="http://www.w3.org/1999/xlink" contentStyleType="text/css" height="1208.3333px" preserveAspectRatio="none" style="width:1367px;height:1208px;" version="1.1" viewBox="0 0 1367 1208" width="1367.7083px" zoomAndPan="magnify"><defs><linearGradient id="g1ckrx31y8jpad0" x1="50%" x2="50%" y1="0%" y2="100%"><stop offset="0%" stop-color="#FFFFFF"/><stop offset="100%" stop-color="#FFFFFF"/></linearGradient><linearGradient id="g1ckrx31y8jpad1" x1="50%" x2="50%" y1="0%" y2="100%"><stop offset="0%" stop-color="#4DABF5"/><stop offset="100%" stop-color="#2196F3"/></linearGradient><filter height="300%" id="f1ckrx31y8jpad" width="300%" x="-1" y="-1"><feGaussianBlur result="blurOut" stdDeviation="2.0833333333333335"/><feColorMatrix in="blurOut" result="blurOut2" type="matrix" values="0 0 0 0 0 0 0 0 0 0 0 0 0 0 0 0 0 0 .4 0"/><feOffset dx="4.166666666666667" dy="4.166666666666667" in="blurOut2" result="blurOut3"/><feBlend in="SourceGraphic" in2="blurOut3" mode="normal"/></filter><linearGradient id="g1ckrx31y8jpad2" x1="50%" x2="50%" y1="0%" y2="100%"><stop offset="0%" stop-color="#2196F3"/><stop offset="100%" stop-color="#1A78C2"/></linearGradient></defs><g><rect fill="url(#g1ckrx31y8jpad0)" height="57.5846" id="_title" rx="4.1667" ry="4.1667" style="stroke:#CCCCCC;stroke-width:1.0416666666666667;" width="379.1667" x="489.5833" y="20.8333"/><text fill="#2196F3" font-family="Verdana" font-size="20.8333" font-weight="bold" lengthAdjust="spacing" textLength="345.8333" x="506.25" y="56.838">Modelo Conceptual de Datos</text><!--class usuario--><g id="elem_usuario"><rect codeLine="5" fill="url(#g1ckrx31y8jpad1)" filter="url(#f1ckrx31y8jpad)" height="266.2842" id="usuario" rx="4.1667" ry="4.1667" style="stroke:#2196F3;stroke-width:1.0416666666666667;" width="160.4167" x="17.7083" y="97.168"/><rect fill="url(#g1ckrx31y8jpad2)" height="44.5882" rx="4.1667" ry="4.1667" style="stroke:url(#g1ckrx31y8jpad2);stroke-width:1.0416666666666667;" width="160.4167" x="17.7083" y="97.168"/><rect fill="url(#g1ckrx31y8jpad2)" height="4.1667" style="stroke:url(#g1ckrx31y8jpad2);stroke-width:1.0416666666666667;" width="160.4167" x="17.7083" y="137.5895"/><rect codeLine="5" fill="none" height="266.2842" id="usuario" rx="4.1667" ry="4.1667" style="stroke:#2196F3;stroke-width:1.0416666666666667;" width="160.4167" x="17.7083" y="97.168"/><ellipse cx="61.4583" cy="119.4621" fill="none" rx="10.4167" ry="10.4167" style="stroke:#1A78C2;stroke-width:1.0416666666666667;"/><path d="M60.7585,120.0643 L61.8164,120.0643 L61.8164,120.1619 C61.8164,120.4549 61.849,120.5688 61.9141,120.6828 C62.028,120.8781 62.2396,120.9757 62.4512,120.9757 C62.6302,120.9757 62.8255,120.8781 62.9395,120.7153 C63.0371,120.6014 63.0534,120.4875 63.0534,120.1619 L63.0534,118.7459 C63.0534,118.632 63.0534,118.5994 63.0534,118.4855 C62.9883,118.1274 62.7767,117.9159 62.4349,117.9159 C62.2396,117.9159 62.0605,118.0135 61.9303,118.1763 C61.849,118.2902 61.8164,118.4041 61.8164,118.7459 L61.8164,118.8273 L60.7585,118.8273 L60.7585,117.0695 L63.6882,117.0695 L63.6882,117.688 C63.6882,117.9972 63.7044,118.1274 63.7695,118.2251 C63.8997,118.4204 64.0951,118.5343 64.3066,118.5343 C64.502,118.5343 64.6973,118.4367 64.8275,118.2739 C64.9089,118.1437 64.9414,118.0461 64.9414,117.688 L64.9414,115.8162 L59.3262,115.8162 C59.0007,115.8162 58.903,115.8325 58.7891,115.9139 C58.61,116.0278 58.4961,116.2394 58.4961,116.451 C58.4961,116.6463 58.5938,116.8254 58.7565,116.9556 C58.8704,117.0532 59.0007,117.0695 59.3262,117.0695 L59.5052,117.0695 L59.5052,121.8547 L59.3262,121.8547 C59.0169,121.8547 58.903,121.8709 58.7891,121.9523 C58.61,122.0662 58.4961,122.2778 58.4961,122.4894 C58.4961,122.6847 58.5938,122.8638 58.7565,122.9777 C58.8542,123.0754 59.0332,123.1079 59.3262,123.1079 L65.2018,123.1079 L65.2018,121.2036 C65.2018,120.8944 65.1855,120.7804 65.1204,120.6665 C64.9902,120.4875 64.7949,120.3735 64.5833,120.3735 C64.388,120.3735 64.1927,120.4549 64.0788,120.634 C63.9811,120.7642 63.9648,120.8618 63.9648,121.2036 L63.9648,121.8547 L60.7585,121.8547 L60.7585,120.0643 Z " fill="#FFFFFF"/><text fill="#FFFFFF" font-family="Verdana" font-size="11.4583" lengthAdjust="spacing" textLength="43.75" x="91.6667" y="123.4289">Usuario</text><line style="stroke:#2196F3;stroke-width:1.0416666666666667;" x1="18.75" x2="177.0833" y1="141.7562" y2="141.7562"/><ellipse cx="29.1667" cy="164.5711" fill="none" rx="3.125" ry="3.125" style="stroke:#1A78C2;stroke-width:1.0416666666666667;"/><text fill="#FFFFFF" font-family="Verdana" font-size="11.4583" lengthAdjust="spacing" textLength="113.5417" x="47.9167" y="166.9754">Nombre de usuario</text><ellipse cx="29.1667" cy="198.7427" fill="none" rx="3.125" ry="3.125" style="stroke:#1A78C2;stroke-width:1.0416666666666667;"/><text fill="#FFFFFF" font-family="Verdana" font-size="11.4583" lengthAdjust="spacing" textLength="46.875" x="47.9167" y="201.147">Nombre</text><ellipse cx="29.1667" cy="232.9142" fill="none" rx="3.125" ry="3.125" style="stroke:#1A78C2;stroke-width:1.0416666666666667;"/><text fill="#FFFFFF" font-family="Verdana" font-size="11.4583" lengthAdjust="spacing" textLength="47.9167" x="47.9167" y="235.3185">Apellido</text><ellipse cx="29.1667" cy="267.0858" fill="none" rx="3.125" ry="3.125" style="stroke:#1A78C2;stroke-width:1.0416666666666667;"/><text fill="#FFFFFF" font-family="Verdana" font-size="11.4583" lengthAdjust="spacing" textLength="32.2917" x="47.9167" y="269.4901">Email</text><ellipse cx="29.1667" cy="301.2573" fill="none" rx="3.125" ry="3.125" style="stroke:#1A78C2;stroke-width:1.0416666666666667;"/><text fill="#FFFFFF" font-family="Verdana" font-size="11.4583" lengthAdjust="spacing" textLength="17.7083" x="47.9167" y="303.6616">Rol</text><line style="stroke:#2196F3;stroke-width:1.0416666666666667;" x1="18.75" x2="177.0833" y1="320.9473" y2="320.9473"/><ellipse cx="29.1667" cy="343.7622" fill="none" rx="3.125" ry="3.125" style="stroke:#1A78C2;stroke-width:1.0416666666666667;"/><text fill="#FFFFFF" font-family="Verdana" font-size="11.4583" lengthAdjust="spacing" textLength="105.2083" x="47.9167" y="346.1665">ID de usuario (PK)</text></g><!--class rol--><g id="elem_rol"><rect codeLine="14" fill="url(#g1ckrx31y8jpad1)" filter="url(#f1ckrx31y8jpad)" height="95.4264" id="rol" rx="4.1667" ry="4.1667" style="stroke:#2196F3;stroke-width:1.0416666666666667;" width="103.125" x="277.0833" y="116.9596"/><rect fill="url(#g1ckrx31y8jpad2)" height="44.5882" rx="4.1667" ry="4.1667" style="stroke:url(#g1ckrx31y8jpad2);stroke-width:1.0416666666666667;" width="103.125" x="277.0833" y="116.9596"/><rect fill="url(#g1ckrx31y8jpad2)" height="4.1667" style="stroke:url(#g1ckrx31y8jpad2);stroke-width:1.0416666666666667;" width="103.125" x="277.0833" y="157.3812"/><rect codeLine="14" fill="none" height="95.4264" id="rol" rx="4.1667" ry="4.1667" style="stroke:#2196F3;stroke-width:1.0416666666666667;" width="103.125" x="277.0833" y="116.9596"/><ellipse cx="306.6667" cy="139.2537" fill="none" rx="10.4167" ry="10.4167" style="stroke:#1A78C2;stroke-width:1.0416666666666667;"/><path d="M305.9668,139.856 L307.0247,139.856 L307.0247,139.9536 C307.0247,140.2466 307.0573,140.3605 307.1224,140.4744 C307.2363,140.6698 307.4479,140.7674 307.6595,140.7674 C307.8385,140.7674 308.0339,140.6698 308.1478,140.507 C308.2454,140.3931 308.2617,140.2791 308.2617,139.9536 L308.2617,138.5376 C308.2617,138.4237 308.2617,138.3911 308.2617,138.2772 C308.1966,137.9191 307.985,137.7075 307.6432,137.7075 C307.4479,137.7075 307.2689,137.8052 307.1387,137.9679 C307.0573,138.0819 307.0247,138.1958 307.0247,138.5376 L307.0247,138.619 L305.9668,138.619 L305.9668,136.8612 L308.8965,136.8612 L308.8965,137.4797 C308.8965,137.7889 308.9128,137.9191 308.9779,138.0168 C309.1081,138.2121 309.3034,138.326 309.515,138.326 C309.7103,138.326 309.9056,138.2284 310.0358,138.0656 C310.1172,137.9354 310.1497,137.8377 310.1497,137.4797 L310.1497,135.6079 L304.5345,135.6079 C304.209,135.6079 304.1113,135.6242 303.9974,135.7056 C303.8184,135.8195 303.7044,136.0311 303.7044,136.2427 C303.7044,136.438 303.8021,136.617 303.9648,136.7472 C304.0788,136.8449 304.209,136.8612 304.5345,136.8612 L304.7135,136.8612 L304.7135,141.6463 L304.5345,141.6463 C304.2253,141.6463 304.1113,141.6626 303.9974,141.744 C303.8184,141.8579 303.7044,142.0695 303.7044,142.2811 C303.7044,142.4764 303.8021,142.6554 303.9648,142.7694 C304.0625,142.867 304.2415,142.8996 304.5345,142.8996 L310.4102,142.8996 L310.4102,140.9953 C310.4102,140.686 310.3939,140.5721 310.3288,140.4582 C310.1986,140.2791 310.0033,140.1652 309.7917,140.1652 C309.5964,140.1652 309.401,140.2466 309.2871,140.4256 C309.1895,140.5558 309.1732,140.6535 309.1732,140.9953 L309.1732,141.6463 L305.9668,141.6463 L305.9668,139.856 Z " fill="#FFFFFF"/><text fill="#FFFFFF" font-family="Verdana" font-size="11.4583" lengthAdjust="spacing" textLength="17.7083" x="333.9583" y="143.2205">Rol</text><line style="stroke:#2196F3;stroke-width:1.0416666666666667;" x1="278.125" x2="379.1667" y1="161.5479" y2="161.5479"/><line style="stroke:#2196F3;stroke-width:1.0416666666666667;" x1="278.125" x2="379.1667" y1="169.8812" y2="169.8812"/><ellipse cx="288.5417" cy="192.6961" fill="none" rx="3.125" ry="3.125" style="stroke:#1A78C2;stroke-width:1.0416666666666667;"/><text fill="#FFFFFF" font-family="Verdana" font-size="11.4583" lengthAdjust="spacing" textLength="56.25" x="307.2917" y="195.1004">Valor (PK)</text></g><!--class contrato--><g id="elem_contrato"><rect codeLine="18" fill="url(#g1ckrx31y8jpad1)" filter="url(#f1ckrx31y8jpad)" height="266.2842" id="contrato" rx="4.1667" ry="4.1667" style="stroke:#2196F3;stroke-width:1.0416666666666667;" width="173.9583" x="241.6667" y="249.2513"/><rect fill="url(#g1ckrx31y8jpad2)" height="44.5882" rx="4.1667" ry="4.1667" style="stroke:url(#g1ckrx31y8jpad2);stroke-width:1.0416666666666667;" width="173.9583" x="241.6667" y="249.2513"/><rect fill="url(#g1ckrx31y8jpad2)" height="4.1667" style="stroke:url(#g1ckrx31y8jpad2);stroke-width:1.0416666666666667;" width="173.9583" x="241.6667" y="289.6729"/><rect codeLine="18" fill="none" height="266.2842" id="contrato" rx="4.1667" ry="4.1667" style="stroke:#2196F3;stroke-width:1.0416666666666667;" width="173.9583" x="241.6667" y="249.2513"/><ellipse cx="289.0625" cy="271.5454" fill="none" rx="10.4167" ry="10.4167" style="stroke:#1A78C2;stroke-width:1.0416666666666667;"/><path d="M288.3626,272.1476 L289.4206,272.1476 L289.4206,272.2453 C289.4206,272.5382 289.4531,272.6522 289.5182,272.7661 C289.6322,272.9614 289.8438,273.0591 290.0553,273.0591 C290.2344,273.0591 290.4297,272.9614 290.5436,272.7987 C290.6413,272.6847 290.6576,272.5708 290.6576,272.2453 L290.6576,270.8293 C290.6576,270.7153 290.6576,270.6828 290.6576,270.5688 C290.5924,270.2108 290.3809,269.9992 290.0391,269.9992 C289.8438,269.9992 289.6647,270.0968 289.5345,270.2596 C289.4531,270.3735 289.4206,270.4875 289.4206,270.8293 L289.4206,270.9106 L288.3626,270.9106 L288.3626,269.1528 L291.2923,269.1528 L291.2923,269.7713 C291.2923,270.0806 291.3086,270.2108 291.3737,270.3084 C291.5039,270.5037 291.6992,270.6177 291.9108,270.6177 C292.1061,270.6177 292.3014,270.52 292.4316,270.3573 C292.513,270.2271 292.5456,270.1294 292.5456,269.7713 L292.5456,267.8996 L286.9303,267.8996 C286.6048,267.8996 286.5072,267.9159 286.3932,267.9972 C286.2142,268.1112 286.1003,268.3228 286.1003,268.5343 C286.1003,268.7297 286.1979,268.9087 286.3607,269.0389 C286.4746,269.1366 286.6048,269.1528 286.9303,269.1528 L287.1094,269.1528 L287.1094,273.938 L286.9303,273.938 C286.6211,273.938 286.5072,273.9543 286.3932,274.0356 C286.2142,274.1496 286.1003,274.3612 286.1003,274.5728 C286.1003,274.7681 286.1979,274.9471 286.3607,275.061 C286.4583,275.1587 286.6374,275.1912 286.9303,275.1912 L292.806,275.1912 L292.806,273.2869 C292.806,272.9777 292.7897,272.8638 292.7246,272.7498 C292.5944,272.5708 292.3991,272.4569 292.1875,272.4569 C291.9922,272.4569 291.7969,272.5382 291.6829,272.7173 C291.5853,272.8475 291.569,272.9451 291.569,273.2869 L291.569,273.938 L288.3626,273.938 L288.3626,272.1476 Z " fill="#FFFFFF"/><text fill="#FFFFFF" font-family="Verdana" font-size="11.4583" lengthAdjust="spacing" textLength="50" x="319.2708" y="275.5122">Contrato</text><line style="stroke:#2196F3;stroke-width:1.0416666666666667;" x1="242.7083" x2="414.5833" y1="293.8395" y2="293.8395"/><ellipse cx="253.125" cy="316.6545" fill="none" rx="3.125" ry="3.125" style="stroke:#1A78C2;stroke-width:1.0416666666666667;"/><text fill="#FFFFFF" font-family="Verdana" font-size="11.4583" lengthAdjust="spacing" textLength="127.0833" x="271.875" y="319.0587">Duraci&#243;n del contrato</text><ellipse cx="253.125" cy="350.826" fill="none" rx="3.125" ry="3.125" style="stroke:#1A78C2;stroke-width:1.0416666666666667;"/><text fill="#FFFFFF" font-family="Verdana" font-size="11.4583" lengthAdjust="spacing" textLength="89.5833" x="271.875" y="353.2303">Fecha de inicio</text><ellipse cx="253.125" cy="384.9976" fill="none" rx="3.125" ry="3.125" style="stroke:#1A78C2;stroke-width:1.0416666666666667;"/><text fill="#FFFFFF" font-family="Verdana" font-size="11.4583" lengthAdjust="spacing" textLength="73.9583" x="271.875" y="387.4018">Fecha de fin</text><ellipse cx="253.125" cy="419.1691" fill="none" rx="3.125" ry="3.125" style="stroke:#1A78C2;stroke-width:1.0416666666666667;"/><text fill="#FFFFFF" font-family="Verdana" font-size="11.4583" lengthAdjust="spacing" textLength="116.6667" x="271.875" y="421.5734">Datos compartidos?</text><line style="stroke:#2196F3;stroke-width:1.0416666666666667;" x1="242.7083" x2="414.5833" y1="438.859" y2="438.859"/><ellipse cx="253.125" cy="461.674" fill="none" rx="3.125" ry="3.125" style="stroke:#1A78C2;stroke-width:1.0416666666666667;"/><text fill="#FFFFFF" font-family="Verdana" font-size="11.4583" lengthAdjust="spacing" textLength="110.4167" x="271.875" y="464.0783">ID de contrato (PK)</text><ellipse cx="253.125" cy="495.8455" fill="none" rx="3.125" ry="3.125" style="stroke:#1A78C2;stroke-width:1.0416666666666667;"/><text fill="#FFFFFF" font-family="Verdana" font-size="11.4583" lengthAdjust="spacing" textLength="105.2083" x="271.875" y="498.2498">ID de usuario (FK)</text></g><!--class linea--><g id="elem_linea"><rect codeLine="27" fill="url(#g1ckrx31y8jpad1)" filter="url(#f1ckrx31y8jpad)" height="334.6273" id="linea" rx="4.1667" ry="4.1667" style="stroke:#2196F3;stroke-width:1.0416666666666667;" width="168.75" x="244.2708" y="552.8971"/><rect fill="url(#g1ckrx31y8jpad2)" height="44.5882" rx="4.1667" ry="4.1667" style="stroke:url(#g1ckrx31y8jpad2);stroke-width:1.0416666666666667;" width="168.75" x="244.2708" y="552.8971"/><rect fill="url(#g1ckrx31y8jpad2)" height="4.1667" style="stroke:url(#g1ckrx31y8jpad2);stroke-width:1.0416666666666667;" width="168.75" x="244.2708" y="593.3187"/><rect codeLine="27" fill="none" height="334.6273" id="linea" rx="4.1667" ry="4.1667" style="stroke:#2196F3;stroke-width:1.0416666666666667;" width="168.75" x="244.2708" y="552.8971"/><ellipse cx="297.9167" cy="575.1912" fill="none" rx="10.4167" ry="10.4167" style="stroke:#1A78C2;stroke-width:1.0416666666666667;"/><path d="M297.2168,575.7935 L298.2747,575.7935 L298.2747,575.8911 C298.2747,576.1841 298.3073,576.298 298.3724,576.4119 C298.4863,576.6073 298.6979,576.7049 298.9095,576.7049 C299.0885,576.7049 299.2839,576.6073 299.3978,576.4445 C299.4954,576.3306 299.5117,576.2166 299.5117,575.8911 L299.5117,574.4751 C299.5117,574.3612 299.5117,574.3286 299.5117,574.2147 C299.4466,573.8566 299.235,573.645 298.8932,573.645 C298.6979,573.645 298.5189,573.7427 298.3887,573.9054 C298.3073,574.0194 298.2747,574.1333 298.2747,574.4751 L298.2747,574.5565 L297.2168,574.5565 L297.2168,572.7987 L300.1465,572.7987 L300.1465,573.4172 C300.1465,573.7264 300.1628,573.8566 300.2279,573.9543 C300.3581,574.1496 300.5534,574.2635 300.765,574.2635 C300.9603,574.2635 301.1556,574.1659 301.2858,574.0031 C301.3672,573.8729 301.3997,573.7752 301.3997,573.4172 L301.3997,571.5454 L295.7845,571.5454 C295.459,571.5454 295.3613,571.5617 295.2474,571.6431 C295.0684,571.757 294.9544,571.9686 294.9544,572.1802 C294.9544,572.3755 295.0521,572.5545 295.2148,572.6847 C295.3288,572.7824 295.459,572.7987 295.7845,572.7987 L295.9635,572.7987 L295.9635,577.5838 L295.7845,577.5838 C295.4753,577.5838 295.3613,577.6001 295.2474,577.6815 C295.0684,577.7954 294.9544,578.007 294.9544,578.2186 C294.9544,578.4139 295.0521,578.5929 295.2148,578.7069 C295.3125,578.8045 295.4915,578.8371 295.7845,578.8371 L301.6602,578.8371 L301.6602,576.9328 C301.6602,576.6235 301.6439,576.5096 301.5788,576.3957 C301.4486,576.2166 301.2533,576.1027 301.0417,576.1027 C300.8464,576.1027 300.651,576.1841 300.5371,576.3631 C300.4395,576.4933 300.4232,576.591 300.4232,576.9328 L300.4232,577.5838 L297.2168,577.5838 L297.2168,575.7935 Z " fill="#FFFFFF"/><text fill="#FFFFFF" font-family="Verdana" font-size="11.4583" lengthAdjust="spacing" textLength="32.2917" x="328.125" y="579.158">L&#237;nea</text><line style="stroke:#2196F3;stroke-width:1.0416666666666667;" x1="245.3125" x2="411.9792" y1="597.4854" y2="597.4854"/><ellipse cx="255.7292" cy="620.3003" fill="none" rx="3.125" ry="3.125" style="stroke:#1A78C2;stroke-width:1.0416666666666667;"/><text fill="#FFFFFF" font-family="Verdana" font-size="11.4583" lengthAdjust="spacing" textLength="100" x="274.4792" y="622.7046">Nombre de l&#237;nea</text><ellipse cx="255.7292" cy="654.4718" fill="none" rx="3.125" ry="3.125" style="stroke:#1A78C2;stroke-width:1.0416666666666667;"/><text fill="#FFFFFF" font-family="Verdana" font-size="11.4583" lengthAdjust="spacing" textLength="68.75" x="274.4792" y="656.8761">Descripci&#243;n</text><ellipse cx="255.7292" cy="688.6434" fill="none" rx="3.125" ry="3.125" style="stroke:#1A78C2;stroke-width:1.0416666666666667;"/><text fill="#FFFFFF" font-family="Verdana" font-size="11.4583" lengthAdjust="spacing" textLength="103.125" x="274.4792" y="691.0477">Precio por minuto</text><ellipse cx="255.7292" cy="722.8149" fill="none" rx="3.125" ry="3.125" style="stroke:#1A78C2;stroke-width:1.0416666666666667;"/><text fill="#FFFFFF" font-family="Verdana" font-size="11.4583" lengthAdjust="spacing" textLength="121.875" x="274.4792" y="725.2192">Precio por Megabyte</text><ellipse cx="255.7292" cy="756.9865" fill="none" rx="3.125" ry="3.125" style="stroke:#1A78C2;stroke-width:1.0416666666666667;"/><text fill="#FFFFFF" font-family="Verdana" font-size="11.4583" lengthAdjust="spacing" textLength="100" x="274.4792" y="759.3908">Duraci&#243;n m&#237;nima</text><ellipse cx="255.7292" cy="791.158" fill="none" rx="3.125" ry="3.125" style="stroke:#1A78C2;stroke-width:1.0416666666666667;"/><text fill="#FFFFFF" font-family="Verdana" font-size="11.4583" lengthAdjust="spacing" textLength="81.25" x="274.4792" y="793.5623">Minutos gratis</text><ellipse cx="255.7292" cy="825.3296" fill="none" rx="3.125" ry="3.125" style="stroke:#1A78C2;stroke-width:1.0416666666666667;"/><text fill="#FFFFFF" font-family="Verdana" font-size="11.4583" lengthAdjust="spacing" textLength="102.0833" x="274.4792" y="827.7339">Megabytes gratis</text><line style="stroke:#2196F3;stroke-width:1.0416666666666667;" x1="245.3125" x2="411.9792" y1="845.0195" y2="845.0195"/><ellipse cx="255.7292" cy="867.8345" fill="none" rx="3.125" ry="3.125" style="stroke:#1A78C2;stroke-width:1.0416666666666667;"/><text fill="#FFFFFF" font-family="Verdana" font-size="11.4583" lengthAdjust="spacing" textLength="91.6667" x="274.4792" y="870.2387">ID de l&#237;nea (PK)</text></g><!--class lineaCliente--><g id="elem_lineaCliente"><rect codeLine="39" fill="url(#g1ckrx31y8jpad1)" filter="url(#f1ckrx31y8jpad)" height="368.7988" id="lineaCliente" rx="4.1667" ry="4.1667" style="stroke:#2196F3;stroke-width:1.0416666666666667;" width="203.125" x="479.1667" y="501.3346"/><rect fill="url(#g1ckrx31y8jpad2)" height="44.5882" rx="4.1667" ry="4.1667" style="stroke:url(#g1ckrx31y8jpad2);stroke-width:1.0416666666666667;" width="203.125" x="479.1667" y="501.3346"/><rect fill="url(#g1ckrx31y8jpad2)" height="4.1667" style="stroke:url(#g1ckrx31y8jpad2);stroke-width:1.0416666666666667;" width="203.125" x="479.1667" y="541.7562"/><rect codeLine="39" fill="none" height="368.7988" id="lineaCliente" rx="4.1667" ry="4.1667" style="stroke:#2196F3;stroke-width:1.0416666666666667;" width="203.125" x="479.1667" y="501.3346"/><ellipse cx="518.125" cy="523.6287" fill="none" rx="10.4167" ry="10.4167" style="stroke:#1A78C2;stroke-width:1.0416666666666667;"/><path d="M517.4251,524.231 L518.4831,524.231 L518.4831,524.3286 C518.4831,524.6216 518.5156,524.7355 518.5807,524.8494 C518.6947,525.0448 518.9063,525.1424 519.1178,525.1424 C519.2969,525.1424 519.4922,525.0448 519.6061,524.882 C519.7038,524.7681 519.7201,524.6541 519.7201,524.3286 L519.7201,522.9126 C519.7201,522.7987 519.7201,522.7661 519.7201,522.6522 C519.6549,522.2941 519.4434,522.0825 519.1016,522.0825 C518.9063,522.0825 518.7272,522.1802 518.597,522.3429 C518.5156,522.4569 518.4831,522.5708 518.4831,522.9126 L518.4831,522.994 L517.4251,522.994 L517.4251,521.2362 L520.3548,521.2362 L520.3548,521.8547 C520.3548,522.1639 520.3711,522.2941 520.4362,522.3918 C520.5664,522.5871 520.7617,522.701 520.9733,522.701 C521.1686,522.701 521.3639,522.6034 521.4941,522.4406 C521.5755,522.3104 521.6081,522.2127 521.6081,521.8547 L521.6081,519.9829 L515.9928,519.9829 C515.6673,519.9829 515.5697,519.9992 515.4557,520.0806 C515.2767,520.1945 515.1628,520.4061 515.1628,520.6177 C515.1628,520.813 515.2604,520.992 515.4232,521.1222 C515.5371,521.2199 515.6673,521.2362 515.9928,521.2362 L516.1719,521.2362 L516.1719,526.0213 L515.9928,526.0213 C515.6836,526.0213 515.5697,526.0376 515.4557,526.119 C515.2767,526.2329 515.1628,526.4445 515.1628,526.6561 C515.1628,526.8514 515.2604,527.0304 515.4232,527.1444 C515.5208,527.242 515.6999,527.2746 515.9928,527.2746 L521.8685,527.2746 L521.8685,525.3703 C521.8685,525.061 521.8522,524.9471 521.7871,524.8332 C521.6569,524.6541 521.4616,524.5402 521.25,524.5402 C521.0547,524.5402 520.8594,524.6216 520.7454,524.8006 C520.6478,524.9308 520.6315,525.0285 520.6315,525.3703 L520.6315,526.0213 L517.4251,526.0213 L517.4251,524.231 Z " fill="#FFFFFF"/><text fill="#FFFFFF" font-family="Verdana" font-size="11.4583" lengthAdjust="spacing" textLength="96.875" x="547.5" y="527.5955">L&#237;nea de cliente</text><line style="stroke:#2196F3;stroke-width:1.0416666666666667;" x1="480.2083" x2="681.25" y1="545.9229" y2="545.9229"/><ellipse cx="490.625" cy="568.7378" fill="none" rx="3.125" ry="3.125" style="stroke:#1A78C2;stroke-width:1.0416666666666667;"/><text fill="#FFFFFF" font-family="Verdana" font-size="11.4583" lengthAdjust="spacing" textLength="120.8333" x="509.375" y="571.1421">N&#250;mero de tel&#233;fono</text><ellipse cx="490.625" cy="602.9093" fill="none" rx="3.125" ry="3.125" style="stroke:#1A78C2;stroke-width:1.0416666666666667;"/><text fill="#FFFFFF" font-family="Verdana" font-size="11.4583" lengthAdjust="spacing" textLength="57.2917" x="509.375" y="605.3136">Roaming?</text><ellipse cx="490.625" cy="637.0809" fill="none" rx="3.125" ry="3.125" style="stroke:#1A78C2;stroke-width:1.0416666666666667;"/><text fill="#FFFFFF" font-family="Verdana" font-size="11.4583" lengthAdjust="spacing" textLength="103.125" x="509.375" y="639.4852">Precio por minuto</text><ellipse cx="490.625" cy="671.2524" fill="none" rx="3.125" ry="3.125" style="stroke:#1A78C2;stroke-width:1.0416666666666667;"/><text fill="#FFFFFF" font-family="Verdana" font-size="11.4583" lengthAdjust="spacing" textLength="121.875" x="509.375" y="673.6567">Precio por Megabyte</text><ellipse cx="490.625" cy="705.424" fill="none" rx="3.125" ry="3.125" style="stroke:#1A78C2;stroke-width:1.0416666666666667;"/><text fill="#FFFFFF" font-family="Verdana" font-size="11.4583" lengthAdjust="spacing" textLength="81.25" x="509.375" y="707.8283">Minutos gratis</text><ellipse cx="490.625" cy="739.5955" fill="none" rx="3.125" ry="3.125" style="stroke:#1A78C2;stroke-width:1.0416666666666667;"/><text fill="#FFFFFF" font-family="Verdana" font-size="11.4583" lengthAdjust="spacing" textLength="102.0833" x="509.375" y="741.9998">Megabytes gratis</text><line style="stroke:#2196F3;stroke-width:1.0416666666666667;" x1="480.2083" x2="681.25" y1="759.2855" y2="759.2855"/><ellipse cx="490.625" cy="782.1004" fill="none" rx="3.125" ry="3.125" style="stroke:#1A78C2;stroke-width:1.0416666666666667;"/><text fill="#FFFFFF" font-family="Verdana" font-size="11.4583" lengthAdjust="spacing" textLength="156.25" x="509.375" y="784.5047">ID de l&#237;nea de cliente (PK)</text><ellipse cx="490.625" cy="816.272" fill="none" rx="3.125" ry="3.125" style="stroke:#1A78C2;stroke-width:1.0416666666666667;"/><text fill="#FFFFFF" font-family="Verdana" font-size="11.4583" lengthAdjust="spacing" textLength="110.4167" x="509.375" y="818.6762">ID de contrato (FK)</text><ellipse cx="490.625" cy="850.4435" fill="none" rx="3.125" ry="3.125" style="stroke:#1A78C2;stroke-width:1.0416666666666667;"/><text fill="#FFFFFF" font-family="Verdana" font-size="11.4583" lengthAdjust="spacing" textLength="91.6667" x="509.375" y="852.8478">ID de l&#237;nea (FK)</text></g><!--class factura--><g id="elem_factura"><rect codeLine="51" fill="url(#g1ckrx31y8jpad1)" filter="url(#f1ckrx31y8jpad)" height="95.4264" id="factura" rx="4.1667" ry="4.1667" style="stroke:#2196F3;stroke-width:1.0416666666666667;" width="150" x="505.7292" y="334.668"/><rect fill="url(#g1ckrx31y8jpad2)" height="44.5882" rx="4.1667" ry="4.1667" style="stroke:url(#g1ckrx31y8jpad2);stroke-width:1.0416666666666667;" width="150" x="505.7292" y="334.668"/><rect fill="url(#g1ckrx31y8jpad2)" height="4.1667" style="stroke:url(#g1ckrx31y8jpad2);stroke-width:1.0416666666666667;" width="150" x="505.7292" y="375.0895"/><rect codeLine="51" fill="none" height="95.4264" id="factura" rx="4.1667" ry="4.1667" style="stroke:#2196F3;stroke-width:1.0416666666666667;" width="150" x="505.7292" y="334.668"/><ellipse cx="545.1563" cy="356.9621" fill="none" rx="10.4167" ry="10.4167" style="stroke:#1A78C2;stroke-width:1.0416666666666667;"/><path d="M544.4564,357.5643 L545.5143,357.5643 L545.5143,357.6619 C545.5143,357.9549 545.5469,358.0688 545.612,358.1828 C545.7259,358.3781 545.9375,358.4757 546.1491,358.4757 C546.3281,358.4757 546.5234,358.3781 546.6374,358.2153 C546.735,358.1014 546.7513,357.9875 546.7513,357.6619 L546.7513,356.2459 C546.7513,356.132 546.7513,356.0994 546.7513,355.9855 C546.6862,355.6274 546.4746,355.4159 546.1328,355.4159 C545.9375,355.4159 545.7585,355.5135 545.6283,355.6763 C545.5469,355.7902 545.5143,355.9041 545.5143,356.2459 L545.5143,356.3273 L544.4564,356.3273 L544.4564,354.5695 L547.3861,354.5695 L547.3861,355.188 C547.3861,355.4972 547.4023,355.6274 547.4674,355.7251 C547.5977,355.9204 547.793,356.0343 548.0046,356.0343 C548.1999,356.0343 548.3952,355.9367 548.5254,355.7739 C548.6068,355.6437 548.6393,355.5461 548.6393,355.188 L548.6393,353.3162 L543.0241,353.3162 C542.6986,353.3162 542.6009,353.3325 542.487,353.4139 C542.3079,353.5278 542.194,353.7394 542.194,353.951 C542.194,354.1463 542.2917,354.3254 542.4544,354.4556 C542.5684,354.5532 542.6986,354.5695 543.0241,354.5695 L543.2031,354.5695 L543.2031,359.3547 L543.0241,359.3547 C542.7148,359.3547 542.6009,359.3709 542.487,359.4523 C542.3079,359.5662 542.194,359.7778 542.194,359.9894 C542.194,360.1847 542.2917,360.3638 542.4544,360.4777 C542.5521,360.5754 542.7311,360.6079 543.0241,360.6079 L548.8997,360.6079 L548.8997,358.7036 C548.8997,358.3944 548.8835,358.2804 548.8184,358.1665 C548.6882,357.9875 548.4928,357.8735 548.2813,357.8735 C548.0859,357.8735 547.8906,357.9549 547.7767,358.134 C547.679,358.2642 547.6628,358.3618 547.6628,358.7036 L547.6628,359.3547 L544.4564,359.3547 L544.4564,357.5643 Z " fill="#FFFFFF"/><text fill="#FFFFFF" font-family="Verdana" font-size="11.4583" lengthAdjust="spacing" textLength="42.7083" x="574.6354" y="360.9289">Factura</text><line style="stroke:#2196F3;stroke-width:1.0416666666666667;" x1="506.7708" x2="654.6875" y1="379.2562" y2="379.2562"/><line style="stroke:#2196F3;stroke-width:1.0416666666666667;" x1="506.7708" x2="654.6875" y1="387.5895" y2="387.5895"/><ellipse cx="517.1875" cy="410.4045" fill="none" rx="3.125" ry="3.125" style="stroke:#1A78C2;stroke-width:1.0416666666666667;"/><text fill="#FFFFFF" font-family="Verdana" font-size="11.4583" lengthAdjust="spacing" textLength="103.125" x="535.9375" y="412.8087">ID de factura (PK)</text></g><!--class llamada--><g id="elem_llamada"><rect codeLine="55" fill="url(#g1ckrx31y8jpad1)" filter="url(#f1ckrx31y8jpad)" height="232.1126" id="llamada" rx="4.1667" ry="4.1667" style="stroke:#2196F3;stroke-width:1.0416666666666667;" width="261.4583" x="758.8542" y="253.9388"/><rect fill="url(#g1ckrx31y8jpad2)" height="44.5882" rx="4.1667" ry="4.1667" style="stroke:url(#g1ckrx31y8jpad2);stroke-width:1.0416666666666667;" width="261.4583" x="758.8542" y="253.9388"/><rect fill="url(#g1ckrx31y8jpad2)" height="4.1667" style="stroke:url(#g1ckrx31y8jpad2);stroke-width:1.0416666666666667;" width="261.4583" x="758.8542" y="294.3604"/><rect codeLine="55" fill="none" height="232.1126" id="llamada" rx="4.1667" ry="4.1667" style="stroke:#2196F3;stroke-width:1.0416666666666667;" width="261.4583" x="758.8542" y="253.9388"/><ellipse cx="850" cy="276.2329" fill="none" rx="10.4167" ry="10.4167" style="stroke:#1A78C2;stroke-width:1.0416666666666667;"/><path d="M849.3001,276.8351 L850.3581,276.8351 L850.3581,276.9328 C850.3581,277.2257 850.3906,277.3397 850.4557,277.4536 C850.5697,277.6489 850.7813,277.7466 850.9928,277.7466 C851.1719,277.7466 851.3672,277.6489 851.4811,277.4862 C851.5788,277.3722 851.5951,277.2583 851.5951,276.9328 L851.5951,275.5168 C851.5951,275.4028 851.5951,275.3703 851.5951,275.2563 C851.5299,274.8983 851.3184,274.6867 850.9766,274.6867 C850.7813,274.6867 850.6022,274.7843 850.472,274.9471 C850.3906,275.061 850.3581,275.175 850.3581,275.5168 L850.3581,275.5981 L849.3001,275.5981 L849.3001,273.8403 L852.2298,273.8403 L852.2298,274.4588 C852.2298,274.7681 852.2461,274.8983 852.3112,274.9959 C852.4414,275.1912 852.6367,275.3052 852.8483,275.3052 C853.0436,275.3052 853.2389,275.2075 853.3691,275.0448 C853.4505,274.9146 853.4831,274.8169 853.4831,274.4588 L853.4831,272.5871 L847.8678,272.5871 C847.5423,272.5871 847.4447,272.6034 847.3307,272.6847 C847.1517,272.7987 847.0378,273.0103 847.0378,273.2218 C847.0378,273.4172 847.1354,273.5962 847.2982,273.7264 C847.4121,273.8241 847.5423,273.8403 847.8678,273.8403 L848.0469,273.8403 L848.0469,278.6255 L847.8678,278.6255 C847.5586,278.6255 847.4447,278.6418 847.3307,278.7231 C847.1517,278.8371 847.0378,279.0487 847.0378,279.2603 C847.0378,279.4556 847.1354,279.6346 847.2982,279.7485 C847.3958,279.8462 847.5749,279.8787 847.8678,279.8787 L853.7435,279.8787 L853.7435,277.9744 C853.7435,277.6652 853.7272,277.5513 853.6621,277.4373 C853.5319,277.2583 853.3366,277.1444 853.125,277.1444 C852.9297,277.1444 852.7344,277.2257 852.6204,277.4048 C852.5228,277.535 852.5065,277.6326 852.5065,277.9744 L852.5065,278.6255 L849.3001,278.6255 L849.3001,276.8351 Z " fill="#FFFFFF"/><text fill="#FFFFFF" font-family="Verdana" font-size="11.4583" lengthAdjust="spacing" textLength="50" x="880.2083" y="280.1997">Llamada</text><line style="stroke:#2196F3;stroke-width:1.0416666666666667;" x1="759.8958" x2="1019.2708" y1="298.527" y2="298.527"/><ellipse cx="770.3125" cy="321.342" fill="none" rx="3.125" ry="3.125" style="stroke:#1A78C2;stroke-width:1.0416666666666667;"/><text fill="#FFFFFF" font-family="Verdana" font-size="11.4583" lengthAdjust="spacing" textLength="35.4167" x="789.0625" y="323.7462">Fecha</text><ellipse cx="770.3125" cy="355.5135" fill="none" rx="3.125" ry="3.125" style="stroke:#1A78C2;stroke-width:1.0416666666666667;"/><text fill="#FFFFFF" font-family="Verdana" font-size="11.4583" lengthAdjust="spacing" textLength="52.0833" x="789.0625" y="357.9178">Duraci&#243;n</text><line style="stroke:#2196F3;stroke-width:1.0416666666666667;" x1="759.8958" x2="1019.2708" y1="375.2035" y2="375.2035"/><ellipse cx="770.3125" cy="398.0184" fill="none" rx="3.125" ry="3.125" style="stroke:#1A78C2;stroke-width:1.0416666666666667;"/><text fill="#FFFFFF" font-family="Verdana" font-size="11.4583" lengthAdjust="spacing" textLength="109.375" x="789.0625" y="400.4227">ID de llamada (PK)</text><ellipse cx="770.3125" cy="432.1899" fill="none" rx="3.125" ry="3.125" style="stroke:#1A78C2;stroke-width:1.0416666666666667;"/><text fill="#FFFFFF" font-family="Verdana" font-size="11.4583" lengthAdjust="spacing" textLength="208.3333" x="789.0625" y="434.5942">N&#250;mero de tel&#233;fono de origen (FK)</text><ellipse cx="770.3125" cy="466.3615" fill="none" rx="3.125" ry="3.125" style="stroke:#1A78C2;stroke-width:1.0416666666666667;"/><text fill="#FFFFFF" font-family="Verdana" font-size="11.4583" lengthAdjust="spacing" textLength="214.5833" x="789.0625" y="468.7658">N&#250;mero de tel&#233;fono de destino (FK)</text></g><!--class consumoDatos--><g id="elem_consumoDatos"><rect codeLine="63" fill="url(#g1ckrx31y8jpad1)" filter="url(#f1ckrx31y8jpad)" height="197.9411" id="consumoDatos" rx="4.1667" ry="4.1667" style="stroke:#2196F3;stroke-width:1.0416666666666667;" width="218.75" x="780.2083" y="523.2096"/><rect fill="url(#g1ckrx31y8jpad2)" height="44.5882" rx="4.1667" ry="4.1667" style="stroke:url(#g1ckrx31y8jpad2);stroke-width:1.0416666666666667;" width="218.75" x="780.2083" y="523.2096"/><rect fill="url(#g1ckrx31y8jpad2)" height="4.1667" style="stroke:url(#g1ckrx31y8jpad2);stroke-width:1.0416666666666667;" width="218.75" x="780.2083" y="563.6312"/><rect codeLine="63" fill="none" height="197.9411" id="consumoDatos" rx="4.1667" ry="4.1667" style="stroke:#2196F3;stroke-width:1.0416666666666667;" width="218.75" x="780.2083" y="523.2096"/><ellipse cx="819.6354" cy="545.5037" fill="none" rx="10.4167" ry="10.4167" style="stroke:#1A78C2;stroke-width:1.0416666666666667;"/><path d="M818.9355,546.106 L819.9935,546.106 L819.9935,546.2036 C819.9935,546.4966 820.026,546.6105 820.0911,546.7244 C820.2051,546.9198 820.4167,547.0174 820.6283,547.0174 C820.8073,547.0174 821.0026,546.9198 821.1165,546.757 C821.2142,546.6431 821.2305,546.5291 821.2305,546.2036 L821.2305,544.7876 C821.2305,544.6737 821.2305,544.6411 821.2305,544.5272 C821.1654,544.1691 820.9538,543.9575 820.612,543.9575 C820.4167,543.9575 820.2376,544.0552 820.1074,544.2179 C820.026,544.3319 819.9935,544.4458 819.9935,544.7876 L819.9935,544.869 L818.9355,544.869 L818.9355,543.1112 L821.8652,543.1112 L821.8652,543.7297 C821.8652,544.0389 821.8815,544.1691 821.9466,544.2668 C822.0768,544.4621 822.2721,544.576 822.4837,544.576 C822.679,544.576 822.8743,544.4784 823.0046,544.3156 C823.0859,544.1854 823.1185,544.0877 823.1185,543.7297 L823.1185,541.8579 L817.5033,541.8579 C817.1777,541.8579 817.0801,541.8742 816.9661,541.9556 C816.7871,542.0695 816.6732,542.2811 816.6732,542.4927 C816.6732,542.688 816.7708,542.867 816.9336,542.9972 C817.0475,543.0949 817.1777,543.1112 817.5033,543.1112 L817.6823,543.1112 L817.6823,547.8963 L817.5033,547.8963 C817.194,547.8963 817.0801,547.9126 816.9661,547.994 C816.7871,548.1079 816.6732,548.3195 816.6732,548.5311 C816.6732,548.7264 816.7708,548.9054 816.9336,549.0194 C817.0313,549.117 817.2103,549.1496 817.5033,549.1496 L823.3789,549.1496 L823.3789,547.2453 C823.3789,546.936 823.3626,546.8221 823.2975,546.7082 C823.1673,546.5291 822.972,546.4152 822.7604,546.4152 C822.5651,546.4152 822.3698,546.4966 822.2559,546.6756 C822.1582,546.8058 822.1419,546.9035 822.1419,547.2453 L822.1419,547.8963 L818.9355,547.8963 L818.9355,546.106 Z " fill="#FFFFFF"/><text fill="#FFFFFF" font-family="Verdana" font-size="11.4583" lengthAdjust="spacing" textLength="111.4583" x="849.1146" y="549.4705">Consumo de datos</text><line style="stroke:#2196F3;stroke-width:1.0416666666666667;" x1="781.25" x2="997.9167" y1="567.7979" y2="567.7979"/><ellipse cx="791.6667" cy="590.6128" fill="none" rx="3.125" ry="3.125" style="stroke:#1A78C2;stroke-width:1.0416666666666667;"/><text fill="#FFFFFF" font-family="Verdana" font-size="11.4583" lengthAdjust="spacing" textLength="65.625" x="810.4167" y="593.0171">Megabytes</text><ellipse cx="791.6667" cy="624.7843" fill="none" rx="3.125" ry="3.125" style="stroke:#1A78C2;stroke-width:1.0416666666666667;"/><text fill="#FFFFFF" font-family="Verdana" font-size="11.4583" lengthAdjust="spacing" textLength="35.4167" x="810.4167" y="627.1886">Fecha</text><line style="stroke:#2196F3;stroke-width:1.0416666666666667;" x1="781.25" x2="997.9167" y1="644.4743" y2="644.4743"/><ellipse cx="791.6667" cy="667.2892" fill="none" rx="3.125" ry="3.125" style="stroke:#1A78C2;stroke-width:1.0416666666666667;"/><text fill="#FFFFFF" font-family="Verdana" font-size="11.4583" lengthAdjust="spacing" textLength="171.875" x="810.4167" y="669.6935">ID de consumo de datos (PK)</text><ellipse cx="791.6667" cy="701.4608" fill="none" rx="3.125" ry="3.125" style="stroke:#1A78C2;stroke-width:1.0416666666666667;"/><text fill="#FFFFFF" font-family="Verdana" font-size="11.4583" lengthAdjust="spacing" textLength="146.875" x="810.4167" y="703.8651">N&#250;mero de tel&#233;fono (FK)</text></g><!--class reclamacion--><g id="elem_reclamacion"><rect codeLine="70" fill="url(#g1ckrx31y8jpad1)" filter="url(#f1ckrx31y8jpad)" height="232.1126" id="reclamacion" rx="4.1667" ry="4.1667" style="stroke:#2196F3;stroke-width:1.0416666666666667;" width="203.125" x="788.0208" y="758.1055"/><rect fill="url(#g1ckrx31y8jpad2)" height="44.5882" rx="4.1667" ry="4.1667" style="stroke:url(#g1ckrx31y8jpad2);stroke-width:1.0416666666666667;" width="203.125" x="788.0208" y="758.1055"/><rect fill="url(#g1ckrx31y8jpad2)" height="4.1667" style="stroke:url(#g1ckrx31y8jpad2);stroke-width:1.0416666666666667;" width="203.125" x="788.0208" y="798.527"/><rect codeLine="70" fill="none" height="232.1126" id="reclamacion" rx="4.1667" ry="4.1667" style="stroke:#2196F3;stroke-width:1.0416666666666667;" width="203.125" x="788.0208" y="758.1055"/><ellipse cx="837.5" cy="780.3996" fill="none" rx="10.4167" ry="10.4167" style="stroke:#1A78C2;stroke-width:1.0416666666666667;"/><path d="M836.8001,781.0018 L837.8581,781.0018 L837.8581,781.0994 C837.8581,781.3924 837.8906,781.5063 837.9557,781.6203 C838.0697,781.8156 838.2813,781.9132 838.4928,781.9132 C838.6719,781.9132 838.8672,781.8156 838.9811,781.6528 C839.0788,781.5389 839.0951,781.425 839.0951,781.0994 L839.0951,779.6834 C839.0951,779.5695 839.0951,779.5369 839.0951,779.423 C839.0299,779.0649 838.8184,778.8534 838.4766,778.8534 C838.2813,778.8534 838.1022,778.951 837.972,779.1138 C837.8906,779.2277 837.8581,779.3416 837.8581,779.6834 L837.8581,779.7648 L836.8001,779.7648 L836.8001,778.007 L839.7298,778.007 L839.7298,778.6255 C839.7298,778.9347 839.7461,779.0649 839.8112,779.1626 C839.9414,779.3579 840.1367,779.4718 840.3483,779.4718 C840.5436,779.4718 840.7389,779.3742 840.8691,779.2114 C840.9505,779.0812 840.9831,778.9836 840.9831,778.6255 L840.9831,776.7537 L835.3678,776.7537 C835.0423,776.7537 834.9447,776.77 834.8307,776.8514 C834.6517,776.9653 834.5378,777.1769 834.5378,777.3885 C834.5378,777.5838 834.6354,777.7629 834.7982,777.8931 C834.9121,777.9907 835.0423,778.007 835.3678,778.007 L835.5469,778.007 L835.5469,782.7922 L835.3678,782.7922 C835.0586,782.7922 834.9447,782.8084 834.8307,782.8898 C834.6517,783.0037 834.5378,783.2153 834.5378,783.4269 C834.5378,783.6222 834.6354,783.8013 834.7982,783.9152 C834.8958,784.0129 835.0749,784.0454 835.3678,784.0454 L841.2435,784.0454 L841.2435,782.1411 C841.2435,781.8319 841.2272,781.7179 841.1621,781.604 C841.0319,781.425 840.8366,781.311 840.625,781.311 C840.4297,781.311 840.2344,781.3924 840.1204,781.5715 C840.0228,781.7017 840.0065,781.7993 840.0065,782.1411 L840.0065,782.7922 L836.8001,782.7922 L836.8001,781.0018 Z " fill="#FFFFFF"/><text fill="#FFFFFF" font-family="Verdana" font-size="11.4583" lengthAdjust="spacing" textLength="75" x="867.7083" y="784.3664">Reclamaci&#243;n</text><line style="stroke:#2196F3;stroke-width:1.0416666666666667;" x1="789.0625" x2="990.1042" y1="802.6937" y2="802.6937"/><ellipse cx="799.4792" cy="825.5086" fill="none" rx="3.125" ry="3.125" style="stroke:#1A78C2;stroke-width:1.0416666666666667;"/><text fill="#FFFFFF" font-family="Verdana" font-size="11.4583" lengthAdjust="spacing" textLength="40.625" x="818.2292" y="827.9129">Asunto</text><ellipse cx="799.4792" cy="859.6802" fill="none" rx="3.125" ry="3.125" style="stroke:#1A78C2;stroke-width:1.0416666666666667;"/><text fill="#FFFFFF" font-family="Verdana" font-size="11.4583" lengthAdjust="spacing" textLength="35.4167" x="818.2292" y="862.0845">Fecha</text><line style="stroke:#2196F3;stroke-width:1.0416666666666667;" x1="789.0625" x2="990.1042" y1="879.3701" y2="879.3701"/><ellipse cx="799.4792" cy="902.1851" fill="none" rx="3.125" ry="3.125" style="stroke:#1A78C2;stroke-width:1.0416666666666667;"/><text fill="#FFFFFF" font-family="Verdana" font-size="11.4583" lengthAdjust="spacing" textLength="134.375" x="818.2292" y="904.5893">ID de reclamaci&#243;n (PK)</text><ellipse cx="799.4792" cy="936.3566" fill="none" rx="3.125" ry="3.125" style="stroke:#1A78C2;stroke-width:1.0416666666666667;"/><text fill="#FFFFFF" font-family="Verdana" font-size="11.4583" lengthAdjust="spacing" textLength="156.25" x="818.2292" y="938.7609">ID de l&#237;nea de cliente (FK)</text><ellipse cx="799.4792" cy="970.5282" fill="none" rx="3.125" ry="3.125" style="stroke:#1A78C2;stroke-width:1.0416666666666667;"/><text fill="#FFFFFF" font-family="Verdana" font-size="11.4583" lengthAdjust="spacing" textLength="65.625" x="818.2292" y="972.9324">Estado (FK)</text></g><!--class msgReclamacion--><g id="elem_msgReclamacion"><rect codeLine="78" fill="url(#g1ckrx31y8jpad1)" filter="url(#f1ckrx31y8jpad)" height="232.1126" id="msgReclamacion" rx="4.1667" ry="4.1667" style="stroke:#2196F3;stroke-width:1.0416666666666667;" width="200" x="1150" y="595.6055"/><rect fill="url(#g1ckrx31y8jpad2)" height="44.5882" rx="4.1667" ry="4.1667" style="stroke:url(#g1ckrx31y8jpad2);stroke-width:1.0416666666666667;" width="200" x="1150" y="595.6055"/><rect fill="url(#g1ckrx31y8jpad2)" height="4.1667" style="stroke:url(#g1ckrx31y8jpad2);stroke-width:1.0416666666666667;" width="200" x="1150" y="636.027"/><rect codeLine="78" fill="none" height="232.1126" id="msgReclamacion" rx="4.1667" ry="4.1667" style="stroke:#2196F3;stroke-width:1.0416666666666667;" width="200" x="1150" y="595.6055"/><ellipse cx="1165.5208" cy="617.8996" fill="none" rx="10.4167" ry="10.4167" style="stroke:#1A78C2;stroke-width:1.0416666666666667;"/><path d="M1164.821,618.5018 L1165.8789,618.5018 L1165.8789,618.5994 C1165.8789,618.8924 1165.9115,619.0063 1165.9766,619.1203 C1166.0905,619.3156 1166.3021,619.4132 1166.5137,619.4132 C1166.6927,619.4132 1166.888,619.3156 1167.002,619.1528 C1167.0996,619.0389 1167.1159,618.925 1167.1159,618.5994 L1167.1159,617.1834 C1167.1159,617.0695 1167.1159,617.0369 1167.1159,616.923 C1167.0508,616.5649 1166.8392,616.3534 1166.4974,616.3534 C1166.3021,616.3534 1166.123,616.451 1165.9928,616.6138 C1165.9115,616.7277 1165.8789,616.8416 1165.8789,617.1834 L1165.8789,617.2648 L1164.821,617.2648 L1164.821,615.507 L1167.7507,615.507 L1167.7507,616.1255 C1167.7507,616.4347 1167.7669,616.5649 1167.832,616.6626 C1167.9622,616.8579 1168.1576,616.9718 1168.3691,616.9718 C1168.5645,616.9718 1168.7598,616.8742 1168.89,616.7114 C1168.9714,616.5812 1169.0039,616.4836 1169.0039,616.1255 L1169.0039,614.2537 L1163.3887,614.2537 C1163.0632,614.2537 1162.9655,614.27 1162.8516,614.3514 C1162.6725,614.4653 1162.5586,614.6769 1162.5586,614.8885 C1162.5586,615.0838 1162.6563,615.2629 1162.819,615.3931 C1162.9329,615.4907 1163.0632,615.507 1163.3887,615.507 L1163.5677,615.507 L1163.5677,620.2922 L1163.3887,620.2922 C1163.0794,620.2922 1162.9655,620.3084 1162.8516,620.3898 C1162.6725,620.5037 1162.5586,620.7153 1162.5586,620.9269 C1162.5586,621.1222 1162.6563,621.3013 1162.819,621.4152 C1162.9167,621.5129 1163.0957,621.5454 1163.3887,621.5454 L1169.2643,621.5454 L1169.2643,619.6411 C1169.2643,619.3319 1169.248,619.2179 1169.1829,619.104 C1169.0527,618.925 1168.8574,618.811 1168.6458,618.811 C1168.4505,618.811 1168.2552,618.8924 1168.1413,619.0715 C1168.0436,619.2017 1168.0273,619.2993 1168.0273,619.6411 L1168.0273,620.2922 L1164.821,620.2922 L1164.821,618.5018 Z " fill="#FFFFFF"/><text fill="#FFFFFF" font-family="Verdana" font-size="11.4583" lengthAdjust="spacing" textLength="145.8333" x="1189.6875" y="621.8664">Mensaje de reclamaci&#243;n</text><line style="stroke:#2196F3;stroke-width:1.0416666666666667;" x1="1151.0417" x2="1348.9583" y1="640.1937" y2="640.1937"/><ellipse cx="1161.4583" cy="663.0086" fill="none" rx="3.125" ry="3.125" style="stroke:#1A78C2;stroke-width:1.0416666666666667;"/><text fill="#FFFFFF" font-family="Verdana" font-size="11.4583" lengthAdjust="spacing" textLength="60.4167" x="1180.2083" y="665.4129">Contenido</text><ellipse cx="1161.4583" cy="697.1802" fill="none" rx="3.125" ry="3.125" style="stroke:#1A78C2;stroke-width:1.0416666666666667;"/><text fill="#FFFFFF" font-family="Verdana" font-size="11.4583" lengthAdjust="spacing" textLength="77.0833" x="1180.2083" y="699.5845">Fecha y hora</text><line style="stroke:#2196F3;stroke-width:1.0416666666666667;" x1="1151.0417" x2="1348.9583" y1="716.8701" y2="716.8701"/><ellipse cx="1161.4583" cy="739.6851" fill="none" rx="3.125" ry="3.125" style="stroke:#1A78C2;stroke-width:1.0416666666666667;"/><text fill="#FFFFFF" font-family="Verdana" font-size="11.4583" lengthAdjust="spacing" textLength="114.5833" x="1180.2083" y="742.0893">ID de mensaje (PK)</text><ellipse cx="1161.4583" cy="773.8566" fill="none" rx="3.125" ry="3.125" style="stroke:#1A78C2;stroke-width:1.0416666666666667;"/><text fill="#FFFFFF" font-family="Verdana" font-size="11.4583" lengthAdjust="spacing" textLength="134.375" x="1180.2083" y="776.2609">ID de reclamaci&#243;n (FK)</text><ellipse cx="1161.4583" cy="808.0282" fill="none" rx="3.125" ry="3.125" style="stroke:#1A78C2;stroke-width:1.0416666666666667;"/><text fill="#FFFFFF" font-family="Verdana" font-size="11.4583" lengthAdjust="spacing" textLength="153.125" x="1180.2083" y="810.4324">ID de mensaje padre (FK)</text></g><!--class estadoReclamacion--><g id="elem_estadoReclamacion"><rect codeLine="87" fill="url(#g1ckrx31y8jpad1)" filter="url(#f1ckrx31y8jpad)" height="95.4264" id="estadoReclamacion" rx="4.1667" ry="4.1667" style="stroke:#2196F3;stroke-width:1.0416666666666667;" width="187.5" x="1156.25" y="864.8763"/><rect fill="url(#g1ckrx31y8jpad2)" height="44.5882" rx="4.1667" ry="4.1667" style="stroke:url(#g1ckrx31y8jpad2);stroke-width:1.0416666666666667;" width="187.5" x="1156.25" y="864.8763"/><rect fill="url(#g1ckrx31y8jpad2)" height="4.1667" style="stroke:url(#g1ckrx31y8jpad2);stroke-width:1.0416666666666667;" width="187.5" x="1156.25" y="905.2979"/><rect codeLine="87" fill="none" height="95.4264" id="estadoReclamacion" rx="4.1667" ry="4.1667" style="stroke:#2196F3;stroke-width:1.0416666666666667;" width="187.5" x="1156.25" y="864.8763"/><ellipse cx="1170.8333" cy="887.1704" fill="none" rx="10.4167" ry="10.4167" style="stroke:#1A78C2;stroke-width:1.0416666666666667;"/><path d="M1170.1335,887.7726 L1171.1914,887.7726 L1171.1914,887.8703 C1171.1914,888.1632 1171.224,888.2772 1171.2891,888.3911 C1171.403,888.5864 1171.6146,888.6841 1171.8262,888.6841 C1172.0052,888.6841 1172.2005,888.5864 1172.3145,888.4237 C1172.4121,888.3097 1172.4284,888.1958 1172.4284,887.8703 L1172.4284,886.4543 C1172.4284,886.3403 1172.4284,886.3078 1172.4284,886.1938 C1172.3633,885.8358 1172.1517,885.6242 1171.8099,885.6242 C1171.6146,885.6242 1171.4355,885.7218 1171.3053,885.8846 C1171.224,885.9985 1171.1914,886.1125 1171.1914,886.4543 L1171.1914,886.5356 L1170.1335,886.5356 L1170.1335,884.7778 L1173.0632,884.7778 L1173.0632,885.3963 C1173.0632,885.7056 1173.0794,885.8358 1173.1445,885.9334 C1173.2747,886.1287 1173.4701,886.2427 1173.6816,886.2427 C1173.877,886.2427 1174.0723,886.145 1174.2025,885.9823 C1174.2839,885.8521 1174.3164,885.7544 1174.3164,885.3963 L1174.3164,883.5246 L1168.7012,883.5246 C1168.3757,883.5246 1168.278,883.5409 1168.1641,883.6222 C1167.985,883.7362 1167.8711,883.9478 1167.8711,884.1593 C1167.8711,884.3547 1167.9688,884.5337 1168.1315,884.6639 C1168.2454,884.7616 1168.3757,884.7778 1168.7012,884.7778 L1168.8802,884.7778 L1168.8802,889.563 L1168.7012,889.563 C1168.3919,889.563 1168.278,889.5793 1168.1641,889.6606 C1167.985,889.7746 1167.8711,889.9862 1167.8711,890.1978 C1167.8711,890.3931 1167.9688,890.5721 1168.1315,890.686 C1168.2292,890.7837 1168.4082,890.8162 1168.7012,890.8162 L1174.5768,890.8162 L1174.5768,888.9119 C1174.5768,888.6027 1174.5605,888.4888 1174.4954,888.3748 C1174.3652,888.1958 1174.1699,888.0819 1173.9583,888.0819 C1173.763,888.0819 1173.5677,888.1632 1173.4538,888.3423 C1173.3561,888.4725 1173.3398,888.5701 1173.3398,888.9119 L1173.3398,889.563 L1170.1335,889.563 L1170.1335,887.7726 Z " fill="#FFFFFF"/><text fill="#FFFFFF" font-family="Verdana" font-size="11.4583" lengthAdjust="spacing" textLength="135.4167" x="1194.7917" y="891.1372">Estado de reclamaci&#243;n</text><line style="stroke:#2196F3;stroke-width:1.0416666666666667;" x1="1157.2917" x2="1342.7083" y1="909.4645" y2="909.4645"/><line style="stroke:#2196F3;stroke-width:1.0416666666666667;" x1="1157.2917" x2="1342.7083" y1="917.7979" y2="917.7979"/><ellipse cx="1167.7083" cy="940.6128" fill="none" rx="3.125" ry="3.125" style="stroke:#1A78C2;stroke-width:1.0416666666666667;"/><text fill="#FFFFFF" font-family="Verdana" font-size="11.4583" lengthAdjust="spacing" textLength="56.25" x="1186.4583" y="943.0171">Valor (PK)</text></g><!--class bloqueoNumero--><g id="elem_bloqueoNumero"><rect codeLine="91" fill="url(#g1ckrx31y8jpad1)" filter="url(#f1ckrx31y8jpad)" height="163.7695" id="bloqueoNumero" rx="4.1667" ry="4.1667" style="stroke:#2196F3;stroke-width:1.0416666666666667;" width="287.5" x="745.8333" y="1026.8555"/><rect fill="url(#g1ckrx31y8jpad2)" height="44.5882" rx="4.1667" ry="4.1667" style="stroke:url(#g1ckrx31y8jpad2);stroke-width:1.0416666666666667;" width="287.5" x="745.8333" y="1026.8555"/><rect fill="url(#g1ckrx31y8jpad2)" height="4.1667" style="stroke:url(#g1ckrx31y8jpad2);stroke-width:1.0416666666666667;" width="287.5" x="745.8333" y="1067.277"/><rect codeLine="91" fill="none" height="163.7695" id="bloqueoNumero" rx="4.1667" ry="4.1667" style="stroke:#2196F3;stroke-width:1.0416666666666667;" width="287.5" x="745.8333" y="1026.8555"/><ellipse cx="815.625" cy="1049.1496" fill="none" rx="10.4167" ry="10.4167" style="stroke:#1A78C2;stroke-width:1.0416666666666667;"/><path d="M814.9251,1049.7518 L815.9831,1049.7518 L815.9831,1049.8494 C815.9831,1050.1424 816.0156,1050.2563 816.0807,1050.3703 C816.1947,1050.5656 816.4063,1050.6632 816.6178,1050.6632 C816.7969,1050.6632 816.9922,1050.5656 817.1061,1050.4028 C817.2038,1050.2889 817.2201,1050.175 817.2201,1049.8494 L817.2201,1048.4334 C817.2201,1048.3195 817.2201,1048.2869 817.2201,1048.173 C817.1549,1047.8149 816.9434,1047.6034 816.6016,1047.6034 C816.4063,1047.6034 816.2272,1047.701 816.097,1047.8638 C816.0156,1047.9777 815.9831,1048.0916 815.9831,1048.4334 L815.9831,1048.5148 L814.9251,1048.5148 L814.9251,1046.757 L817.8548,1046.757 L817.8548,1047.3755 C817.8548,1047.6847 817.8711,1047.8149 817.9362,1047.9126 C818.0664,1048.1079 818.2617,1048.2218 818.4733,1048.2218 C818.6686,1048.2218 818.8639,1048.1242 818.9941,1047.9614 C819.0755,1047.8312 819.1081,1047.7336 819.1081,1047.3755 L819.1081,1045.5037 L813.4928,1045.5037 C813.1673,1045.5037 813.0697,1045.52 812.9557,1045.6014 C812.7767,1045.7153 812.6628,1045.9269 812.6628,1046.1385 C812.6628,1046.3338 812.7604,1046.5129 812.9232,1046.6431 C813.0371,1046.7407 813.1673,1046.757 813.4928,1046.757 L813.6719,1046.757 L813.6719,1051.5422 L813.4928,1051.5422 C813.1836,1051.5422 813.0697,1051.5584 812.9557,1051.6398 C812.7767,1051.7537 812.6628,1051.9653 812.6628,1052.1769 C812.6628,1052.3722 812.7604,1052.5513 812.9232,1052.6652 C813.0208,1052.7629 813.1999,1052.7954 813.4928,1052.7954 L819.3685,1052.7954 L819.3685,1050.8911 C819.3685,1050.5819 819.3522,1050.4679 819.2871,1050.354 C819.1569,1050.175 818.9616,1050.061 818.75,1050.061 C818.5547,1050.061 818.3594,1050.1424 818.2454,1050.3215 C818.1478,1050.4517 818.1315,1050.5493 818.1315,1050.8911 L818.1315,1051.5422 L814.9251,1051.5422 L814.9251,1049.7518 Z " fill="#FFFFFF"/><text fill="#FFFFFF" font-family="Verdana" font-size="11.4583" lengthAdjust="spacing" textLength="118.75" x="845.8333" y="1053.1164">Bloqueo de n&#250;mero</text><line style="stroke:#2196F3;stroke-width:1.0416666666666667;" x1="746.875" x2="1032.2917" y1="1071.4437" y2="1071.4437"/><line style="stroke:#2196F3;stroke-width:1.0416666666666667;" x1="746.875" x2="1032.2917" y1="1079.777" y2="1079.777"/><ellipse cx="757.2917" cy="1102.592" fill="none" rx="3.125" ry="3.125" style="stroke:#1A78C2;stroke-width:1.0416666666666667;"/><text fill="#FFFFFF" font-family="Verdana" font-size="11.4583" lengthAdjust="spacing" textLength="110.4167" x="776.0417" y="1104.9962">ID de bloqueo (PK)</text><ellipse cx="757.2917" cy="1136.7635" fill="none" rx="3.125" ry="3.125" style="stroke:#1A78C2;stroke-width:1.0416666666666667;"/><text fill="#FFFFFF" font-family="Verdana" font-size="11.4583" lengthAdjust="spacing" textLength="240.625" x="776.0417" y="1139.1678">N&#250;mero de tel&#233;fono del bloqueador (FK)</text><ellipse cx="757.2917" cy="1170.9351" fill="none" rx="3.125" ry="3.125" style="stroke:#1A78C2;stroke-width:1.0416666666666667;"/><text fill="#FFFFFF" font-family="Verdana" font-size="11.4583" lengthAdjust="spacing" textLength="240.625" x="776.0417" y="1173.3393">N&#250;mero de tel&#233;fono del bloqueado  (FK)</text></g><!--link usuario to rol--><g id="link_usuario_rol"><path codeLine="97" d="M178.2854,207.7326 C211.0469,198.3305 248.0521,187.7096 277.026,179.393 " fill="none" id="usuario-rol" style="stroke:#2196F3;stroke-width:3.125;"/><text fill="#222222" font-family="Verdana" font-size="12.5" lengthAdjust="spacing" textLength="7.2917" x="196.8173" y="229.3322">1</text><text fill="#222222" font-family="Verdana" font-size="12.5" lengthAdjust="spacing" textLength="20.8333" x="237.3986" y="205.1601">1..*</text></g><!--link usuario to contrato--><g id="link_usuario_contrato"><path codeLine="98" d="M178.2854,283.2659 C198.6646,296.8211 220.6854,311.468 241.3948,325.243 " fill="none" id="usuario-contrato" style="stroke:#2196F3;stroke-width:3.125;"/><text fill="#222222" font-family="Verdana" font-size="12.5" lengthAdjust="spacing" textLength="7.2917" x="196.8173" y="311.3566">1</text><text fill="#222222" font-family="Verdana" font-size="12.5" lengthAdjust="spacing" textLength="20.8333" x="202.2073" y="344.3647">1..*</text></g><!--link contrato to lineaCliente--><g id="link_contrato_lineaCliente"><path codeLine="100" d="M415.7229,486.9034 C436.1333,511.6492 458.0823,538.2628 479.076,563.719 " fill="none" id="contrato-lineaCliente" style="stroke:#2196F3;stroke-width:3.125;"/><text fill="#222222" font-family="Verdana" font-size="12.5" lengthAdjust="spacing" textLength="7.2917" x="434.5152" y="519.0427">1</text><text fill="#222222" font-family="Verdana" font-size="12.5" lengthAdjust="spacing" textLength="20.8333" x="439.5965" y="578.7293">1..*</text></g><!--link contrato to factura--><g id="link_contrato_factura"><path codeLine="101" d="M415.7229,382.5846 C444.9604,382.5846 477.3573,382.5846 505.5802,382.5846 " fill="none" id="contrato-factura" style="stroke:#2196F3;stroke-width:3.125;"/><text fill="#222222" font-family="Verdana" font-size="12.5" lengthAdjust="spacing" textLength="7.2917" x="434.5152" y="406.085">1</text><text fill="#222222" font-family="Verdana" font-size="12.5" lengthAdjust="spacing" textLength="7.2917" x="479.6477" y="406.2538">*</text></g><!--link linea to lineaCliente--><g id="link_linea_lineaCliente"><path codeLine="104" d="M413.2813,708.5909 C434.2896,705.7023 457.0573,702.5711 478.8104,699.5805 " fill="none" id="linea-lineaCliente" style="stroke:#2196F3;stroke-width:3.125;"/><text fill="#222222" font-family="Verdana" font-size="12.5" lengthAdjust="spacing" textLength="7.2917" x="431.8713" y="731.1132">1</text><text fill="#222222" font-family="Verdana" font-size="12.5" lengthAdjust="spacing" textLength="7.2917" x="452.9472" y="723.8175">*</text></g><!--link lineaCliente to llamada--><g id="link_lineaCliente_llamada"><path codeLine="106" d="M682.4802,572.5398 C703.1417,550.0492 724.9604,526.8096 745.8333,505.5013 C752.0479,499.1576 758.4708,492.7055 764.9979,486.2326 " fill="none" id="lineaCliente-llamada" style="stroke:#2196F3;stroke-width:3.125;"/><text fill="#222222" font-family="Verdana" font-size="12.5" lengthAdjust="spacing" textLength="7.2917" x="701.04" y="587.8443">1</text><text fill="#222222" font-family="Verdana" font-size="12.5" lengthAdjust="spacing" textLength="7.2917" x="738.8407" y="516.4133">*</text></g><!--link lineaCliente to consumoDatos--><g id="link_lineaCliente_consumoDatos"><path codeLine="107" d="M682.6438,664.8159 C713.8156,658.3586 748.2781,651.2211 779.949,644.6607 " fill="none" id="lineaCliente-consumoDatos" style="stroke:#2196F3;stroke-width:3.125;"/><text fill="#222222" font-family="Verdana" font-size="12.5" lengthAdjust="spacing" textLength="7.2917" x="701.2151" y="686.6085">1</text><text fill="#222222" font-family="Verdana" font-size="12.5" lengthAdjust="spacing" textLength="7.2917" x="754.3163" y="669.2537">*</text></g><!--link lineaCliente to bloqueoNumero--><g id="link_lineaCliente_bloqueoNumero"><path codeLine="108" d="M656.0448,870.1742 C680.4135,918.2315 710.4885,967.9044 745.8333,1008.6263 C751.1875,1014.7951 757,1020.7753 763.1135,1026.5367 " fill="none" id="lineaCliente-bloqueoNumero" style="stroke:#2196F3;stroke-width:3.125;"/><text fill="#222222" font-family="Verdana" font-size="12.5" lengthAdjust="spacing" textLength="7.2917" x="640.9206" y="900.7211">1</text><text fill="#222222" font-family="Verdana" font-size="12.5" lengthAdjust="spacing" textLength="7.2917" x="732.4499" y="1005.0651">*</text></g><!--link lineaCliente to reclamacion--><g id="link_lineaCliente_reclamacion"><path codeLine="109" d="M682.6438,747.7065 C716.4354,768.4742 754.0938,791.619 787.8698,812.3784 " fill="none" id="lineaCliente-reclamacion" style="stroke:#2196F3;stroke-width:3.125;"/><text fill="#222222" font-family="Verdana" font-size="12.5" lengthAdjust="spacing" textLength="7.2917" x="701.2151" y="775.3274">1</text><text fill="#222222" font-family="Verdana" font-size="12.5" lengthAdjust="spacing" textLength="7.2917" x="762.021" y="831.2977">*</text></g><!--link reclamacion to msgReclamacion--><g id="link_reclamacion_msgReclamacion"><path codeLine="111" d="M991.3948,828.5534 C1040.9719,806.0711 1100.5208,779.0638 1149.875,756.6846 " fill="none" id="reclamacion-msgReclamacion" style="stroke:#2196F3;stroke-width:3.125;"/><text fill="#222222" font-family="Verdana" font-size="12.5" lengthAdjust="spacing" textLength="31.25" x="1076.0417" y="759.8124">tiene</text><text fill="#222222" font-family="Verdana" font-size="12.5" lengthAdjust="spacing" textLength="7.2917" x="1009.9588" y="848.61">1</text><text fill="#222222" font-family="Verdana" font-size="12.5" lengthAdjust="spacing" textLength="7.2917" x="1123.781" y="783.3097">*</text></g><!--link reclamacion to estadoReclamacion--><g id="link_reclamacion_estadoReclamacion"><path codeLine="112" d="M991.3948,885.0898 C1043.0417,890.6451 1105.5208,897.3648 1156,902.7951 " fill="none" id="reclamacion-estadoReclamacion" style="stroke:#2196F3;stroke-width:3.125;"/><text fill="#222222" font-family="Verdana" font-size="12.5" lengthAdjust="spacing" textLength="31.25" x="1076.0417" y="879.6041">tiene</text><text fill="#222222" font-family="Verdana" font-size="12.5" lengthAdjust="spacing" textLength="7.2917" x="1009.9588" y="909.1216">1</text><text fill="#222222" font-family="Verdana" font-size="12.5" lengthAdjust="spacing" textLength="7.2917" x="1130.3558" y="925.3945">1</text></g><!--link msgReclamacion to msgReclamacion--><g id="link_msgReclamacion_msgReclamacion"><path codeLine="113" d="M1221.9479,595.3128 C1225.4896,574.0565 1234.8438,559.1471 1250,559.1471 C1265.1563,559.1471 1274.5104,574.0565 1278.0521,595.3128 " fill="none" id="msgReclamacion-msgReclamacion" style="stroke:#2196F3;stroke-width:3.125;"/><text fill="#222222" font-family="Verdana" font-size="12.5" lengthAdjust="spacing" textLength="94.7917" x="1202.6042" y="540.5416">mensaje padre</text><text fill="#222222" font-family="Verdana" font-size="12.5" lengthAdjust="spacing" textLength="7.2917" x="1201.41" y="574.0191">1</text><text fill="#222222" font-family="Verdana" font-size="12.5" lengthAdjust="spacing" textLength="7.2917" x="1261.2837" y="574.0191">1</text></g><!--SRC=[dLKxZnCn4ExzAqmg7hgJQ6bEn-KY8IxHwIJeVRkJnCYFnVOM4U87KL3HqUQFuTTknjuDGLJnVlFmzurd9eux0NIjMn2QtcdLGETw9cWBTCcSjkI5suC4Afa3mnaHi7NKQMhuRkzeomqqZcj522Z7tO4kFjcU6QuNb5dQfpFzHYXzGpyiGzO1U_duyLM4Dre-6q0cXCRZRGT2y3RXzv9n4KzFMf3lftlzPxpJQ97l-yo4DkaUvESrEkELHUScVnGCHt2aM35VPNZP6zRmuo_bhM8CYwOLD7iMWhZY3Q-mBLSfFXJOnycE6US5sXjCzE7uKm6BD0NtfuAZYCQv8YPBoW-sCRoB52Fmw5_B2-XyMIHNVUQAq3NisFF1GILF-fnSfgJh66ZfpclbDa4vQWIdCc9T1VSWd1JT9M1EsCczVeNJwwmAVAZ8W6wEloKO7KmEnF77LYkT-uPvyRkR_wZ8lsX7qbUiSRw6KV0sdGkj0rQtw8DWahNvwTEvh576Jgy_epLyQ3-beFvUa_3HWdLSePB6LYsRe9eXsyiK6dfucAK0fgQkvgdmli1x936M5b720mzDg4CaboP_0BGgxZV8iUwccNORhh-rlShzS6yTQoVbGLpMe2px0lLjaPQqkwSpp6GEgqYLXCis7q8wrXf4DcmrK7w7KBHg3dIl3IkcCIkPumdHDAKwlqRV2_srXvX9fLUCIPuJlEdZksAjsNAnQKNsz5pCnSv5pZGvUuh3dbwyNT2hA_zpVVrw4VuNpbZ6nKt6tL8wu6KrzV4EUP098MbJ8rCHIugrXxtIH9-ruzawwrJK_gmNcX92yCWWdwfbtr7dqy2ij_-PDiuGKEL1CPCRYhx-0m00]--></g></svg>