<?xml version="1.0" encoding="us-ascii" standalone="no"?><svg xmlns="http://www.w3.org/2000/svg" xmlns:xlink="http://www.w3.org/1999/xlink" contentStyleType="text/css" height="1675px" preserveAspectRatio="none" style="width:1202px;height:1675px;" version="1.1" viewBox="0 0 1202 1675" width="1202.0833px" zoomAndPan="magnify"><defs><linearGradient id="g1r2fyjulz4sr40" x1="50%" x2="50%" y1="0%" y2="100%"><stop offset="0%" stop-color="#FFFFFF"/><stop offset="100%" stop-color="#FFFFFF"/></linearGradient><linearGradient id="g1r2fyjulz4sr41" x1="50%" x2="50%" y1="0%" y2="100%"><stop offset="0%" stop-color="#4DABF5"/><stop offset="100%" stop-color="#2196F3"/></linearGradient><filter height="300%" id="f1r2fyjulz4sr4" width="300%" x="-1" y="-1"><feGaussianBlur result="blurOut" stdDeviation="2.0833333333333335"/><feColorMatrix in="blurOut" result="blurOut2" type="matrix" values="0 0 0 0 0 0 0 0 0 0 0 0 0 0 0 0 0 0 .4 0"/><feOffset dx="4.166666666666667" dy="4.166666666666667" in="blurOut2" result="blurOut3"/><feBlend in="SourceGraphic" in2="blurOut3" mode="normal"/></filter><linearGradient id="g1r2fyjulz4sr42" x1="50%" x2="50%" y1="0%" y2="100%"><stop offset="0%" stop-color="#2196F3"/><stop offset="100%" stop-color="#1A78C2"/></linearGradient></defs><g><rect fill="url(#g1r2fyjulz4sr40)" height="57.5846" id="_title" rx="4.1667" ry="4.1667" style="stroke:#CCCCCC;stroke-width:1.0416666666666667;" width="379.1667" x="407.0313" y="20.8333"/><text fill="#2196F3" font-family="Verdana" font-size="20.8333" font-weight="bold" lengthAdjust="spacing" textLength="345.8333" x="423.6979" y="56.838">Modelo Conceptual de Datos</text><!--class usuario--><g id="elem_usuario"><rect codeLine="3" fill="url(#g1r2fyjulz4sr41)" filter="url(#f1r2fyjulz4sr4)" height="232.1126" id="usuario" rx="4.1667" ry="4.1667" style="stroke:#2196F3;stroke-width:1.0416666666666667;" width="160.4167" x="792.7083" y="97.168"/><rect fill="url(#g1r2fyjulz4sr42)" height="44.5882" rx="4.1667" ry="4.1667" style="stroke:url(#g1r2fyjulz4sr42);stroke-width:1.0416666666666667;" width="160.4167" x="792.7083" y="97.168"/><rect fill="url(#g1r2fyjulz4sr42)" height="4.1667" style="stroke:url(#g1r2fyjulz4sr42);stroke-width:1.0416666666666667;" width="160.4167" x="792.7083" y="137.5895"/><rect codeLine="3" fill="none" height="232.1126" id="usuario" rx="4.1667" ry="4.1667" style="stroke:#2196F3;stroke-width:1.0416666666666667;" width="160.4167" x="792.7083" y="97.168"/><ellipse cx="836.4583" cy="119.4621" fill="none" rx="10.4167" ry="10.4167" style="stroke:#1A78C2;stroke-width:1.0416666666666667;"/><path d="M835.7585,120.0643 L836.8164,120.0643 L836.8164,120.1619 C836.8164,120.4549 836.849,120.5688 836.9141,120.6828 C837.028,120.8781 837.2396,120.9757 837.4512,120.9757 C837.6302,120.9757 837.8255,120.8781 837.9395,120.7153 C838.0371,120.6014 838.0534,120.4875 838.0534,120.1619 L838.0534,118.7459 C838.0534,118.632 838.0534,118.5994 838.0534,118.4855 C837.9883,118.1274 837.7767,117.9159 837.4349,117.9159 C837.2396,117.9159 837.0605,118.0135 836.9303,118.1763 C836.849,118.2902 836.8164,118.4041 836.8164,118.7459 L836.8164,118.8273 L835.7585,118.8273 L835.7585,117.0695 L838.6882,117.0695 L838.6882,117.688 C838.6882,117.9972 838.7044,118.1274 838.7695,118.2251 C838.8997,118.4204 839.0951,118.5343 839.3066,118.5343 C839.502,118.5343 839.6973,118.4367 839.8275,118.2739 C839.9089,118.1437 839.9414,118.0461 839.9414,117.688 L839.9414,115.8162 L834.3262,115.8162 C834.0007,115.8162 833.903,115.8325 833.7891,115.9139 C833.61,116.0278 833.4961,116.2394 833.4961,116.451 C833.4961,116.6463 833.5938,116.8254 833.7565,116.9556 C833.8704,117.0532 834.0007,117.0695 834.3262,117.0695 L834.5052,117.0695 L834.5052,121.8547 L834.3262,121.8547 C834.0169,121.8547 833.903,121.8709 833.7891,121.9523 C833.61,122.0662 833.4961,122.2778 833.4961,122.4894 C833.4961,122.6847 833.5938,122.8638 833.7565,122.9777 C833.8542,123.0754 834.0332,123.1079 834.3262,123.1079 L840.2018,123.1079 L840.2018,121.2036 C840.2018,120.8944 840.1855,120.7804 840.1204,120.6665 C839.9902,120.4875 839.7949,120.3735 839.5833,120.3735 C839.388,120.3735 839.1927,120.4549 839.0788,120.634 C838.9811,120.7642 838.9648,120.8618 838.9648,121.2036 L838.9648,121.8547 L835.7585,121.8547 L835.7585,120.0643 Z " fill="#FFFFFF"/><text fill="#FFFFFF" font-family="Verdana" font-size="11.4583" lengthAdjust="spacing" textLength="43.75" x="866.6667" y="123.4289">Usuario</text><line style="stroke:#2196F3;stroke-width:1.0416666666666667;" x1="793.75" x2="952.0833" y1="141.7562" y2="141.7562"/><ellipse cx="804.1667" cy="164.5711" fill="none" rx="3.125" ry="3.125" style="stroke:#1A78C2;stroke-width:1.0416666666666667;"/><text fill="#FFFFFF" font-family="Verdana" font-size="11.4583" lengthAdjust="spacing" textLength="113.5417" x="822.9167" y="166.9754">Nombre de usuario</text><ellipse cx="804.1667" cy="198.7427" fill="none" rx="3.125" ry="3.125" style="stroke:#1A78C2;stroke-width:1.0416666666666667;"/><text fill="#FFFFFF" font-family="Verdana" font-size="11.4583" lengthAdjust="spacing" textLength="46.875" x="822.9167" y="201.147">Nombre</text><ellipse cx="804.1667" cy="232.9142" fill="none" rx="3.125" ry="3.125" style="stroke:#1A78C2;stroke-width:1.0416666666666667;"/><text fill="#FFFFFF" font-family="Verdana" font-size="11.4583" lengthAdjust="spacing" textLength="47.9167" x="822.9167" y="235.3185">Apellido</text><ellipse cx="804.1667" cy="267.0858" fill="none" rx="3.125" ry="3.125" style="stroke:#1A78C2;stroke-width:1.0416666666666667;"/><text fill="#FFFFFF" font-family="Verdana" font-size="11.4583" lengthAdjust="spacing" textLength="17.7083" x="822.9167" y="269.4901">Rol</text><line style="stroke:#2196F3;stroke-width:1.0416666666666667;" x1="793.75" x2="952.0833" y1="286.7757" y2="286.7757"/><ellipse cx="804.1667" cy="309.5907" fill="none" rx="3.125" ry="3.125" style="stroke:#1A78C2;stroke-width:1.0416666666666667;"/><text fill="#FFFFFF" font-family="Verdana" font-size="11.4583" lengthAdjust="spacing" textLength="105.2083" x="822.9167" y="311.9949">ID de usuario (PK)</text></g><!--class cliente--><g id="elem_cliente"><rect codeLine="11" fill="url(#g1r2fyjulz4sr41)" filter="url(#f1r2fyjulz4sr4)" height="95.4264" id="cliente" rx="4.1667" ry="4.1667" style="stroke:#2196F3;stroke-width:1.0416666666666667;" width="152.0833" x="572.9167" y="428.418"/><rect fill="url(#g1r2fyjulz4sr42)" height="44.5882" rx="4.1667" ry="4.1667" style="stroke:url(#g1r2fyjulz4sr42);stroke-width:1.0416666666666667;" width="152.0833" x="572.9167" y="428.418"/><rect fill="url(#g1r2fyjulz4sr42)" height="4.1667" style="stroke:url(#g1r2fyjulz4sr42);stroke-width:1.0416666666666667;" width="152.0833" x="572.9167" y="468.8395"/><rect codeLine="11" fill="none" height="95.4264" id="cliente" rx="4.1667" ry="4.1667" style="stroke:#2196F3;stroke-width:1.0416666666666667;" width="152.0833" x="572.9167" y="428.418"/><ellipse cx="613.2813" cy="450.7121" fill="none" rx="10.4167" ry="10.4167" style="stroke:#1A78C2;stroke-width:1.0416666666666667;"/><path d="M612.5814,451.3143 L613.6393,451.3143 L613.6393,451.4119 C613.6393,451.7049 613.6719,451.8188 613.737,451.9328 C613.8509,452.1281 614.0625,452.2257 614.2741,452.2257 C614.4531,452.2257 614.6484,452.1281 614.7624,451.9653 C614.86,451.8514 614.8763,451.7375 614.8763,451.4119 L614.8763,449.9959 C614.8763,449.882 614.8763,449.8494 614.8763,449.7355 C614.8112,449.3774 614.5996,449.1659 614.2578,449.1659 C614.0625,449.1659 613.8835,449.2635 613.7533,449.4263 C613.6719,449.5402 613.6393,449.6541 613.6393,449.9959 L613.6393,450.0773 L612.5814,450.0773 L612.5814,448.3195 L615.5111,448.3195 L615.5111,448.938 C615.5111,449.2472 615.5273,449.3774 615.5924,449.4751 C615.7227,449.6704 615.918,449.7843 616.1296,449.7843 C616.3249,449.7843 616.5202,449.6867 616.6504,449.5239 C616.7318,449.3937 616.7643,449.2961 616.7643,448.938 L616.7643,447.0662 L611.1491,447.0662 C610.8236,447.0662 610.7259,447.0825 610.612,447.1639 C610.4329,447.2778 610.319,447.4894 610.319,447.701 C610.319,447.8963 610.4167,448.0754 610.5794,448.2056 C610.6934,448.3032 610.8236,448.3195 611.1491,448.3195 L611.3281,448.3195 L611.3281,453.1047 L611.1491,453.1047 C610.8398,453.1047 610.7259,453.1209 610.612,453.2023 C610.4329,453.3162 610.319,453.5278 610.319,453.7394 C610.319,453.9347 610.4167,454.1138 610.5794,454.2277 C610.6771,454.3254 610.8561,454.3579 611.1491,454.3579 L617.0247,454.3579 L617.0247,452.4536 C617.0247,452.1444 617.0085,452.0304 616.9434,451.9165 C616.8132,451.7375 616.6178,451.6235 616.4063,451.6235 C616.2109,451.6235 616.0156,451.7049 615.9017,451.884 C615.804,452.0142 615.7878,452.1118 615.7878,452.4536 L615.7878,453.1047 L612.5814,453.1047 L612.5814,451.3143 Z " fill="#FFFFFF"/><text fill="#FFFFFF" font-family="Verdana" font-size="11.4583" lengthAdjust="spacing" textLength="42.7083" x="642.9688" y="454.6789">Cliente</text><line style="stroke:#2196F3;stroke-width:1.0416666666666667;" x1="573.9583" x2="723.9583" y1="473.0062" y2="473.0062"/><line style="stroke:#2196F3;stroke-width:1.0416666666666667;" x1="573.9583" x2="723.9583" y1="481.3395" y2="481.3395"/><ellipse cx="584.375" cy="504.1545" fill="none" rx="3.125" ry="3.125" style="stroke:#1A78C2;stroke-width:1.0416666666666667;"/><text fill="#FFFFFF" font-family="Verdana" font-size="11.4583" lengthAdjust="spacing" textLength="105.2083" x="603.125" y="506.5587">ID de usuario (PK)</text></g><!--class ventasMarketing--><g id="elem_ventasMarketing"><rect codeLine="15" fill="url(#g1r2fyjulz4sr41)" filter="url(#f1r2fyjulz4sr4)" height="95.4264" id="ventasMarketing" rx="4.1667" ry="4.1667" style="stroke:#2196F3;stroke-width:1.0416666666666667;" width="168.75" x="232.2917" y="555.5013"/><rect fill="url(#g1r2fyjulz4sr42)" height="44.5882" rx="4.1667" ry="4.1667" style="stroke:url(#g1r2fyjulz4sr42);stroke-width:1.0416666666666667;" width="168.75" x="232.2917" y="555.5013"/><rect fill="url(#g1r2fyjulz4sr42)" height="4.1667" style="stroke:url(#g1r2fyjulz4sr42);stroke-width:1.0416666666666667;" width="168.75" x="232.2917" y="595.9229"/><rect codeLine="15" fill="none" height="95.4264" id="ventasMarketing" rx="4.1667" ry="4.1667" style="stroke:#2196F3;stroke-width:1.0416666666666667;" width="168.75" x="232.2917" y="555.5013"/><ellipse cx="246.875" cy="577.7954" fill="none" rx="10.4167" ry="10.4167" style="stroke:#1A78C2;stroke-width:1.0416666666666667;"/><path d="M246.1751,578.3976 L247.2331,578.3976 L247.2331,578.4953 C247.2331,578.7882 247.2656,578.9022 247.3307,579.0161 C247.4447,579.2114 247.6563,579.3091 247.8678,579.3091 C248.0469,579.3091 248.2422,579.2114 248.3561,579.0487 C248.4538,578.9347 248.4701,578.8208 248.4701,578.4953 L248.4701,577.0793 C248.4701,576.9653 248.4701,576.9328 248.4701,576.8188 C248.4049,576.4608 248.1934,576.2492 247.8516,576.2492 C247.6563,576.2492 247.4772,576.3468 247.347,576.5096 C247.2656,576.6235 247.2331,576.7375 247.2331,577.0793 L247.2331,577.1606 L246.1751,577.1606 L246.1751,575.4028 L249.1048,575.4028 L249.1048,576.0213 C249.1048,576.3306 249.1211,576.4608 249.1862,576.5584 C249.3164,576.7537 249.5117,576.8677 249.7233,576.8677 C249.9186,576.8677 250.1139,576.77 250.2441,576.6073 C250.3255,576.4771 250.3581,576.3794 250.3581,576.0213 L250.3581,574.1496 L244.7428,574.1496 C244.4173,574.1496 244.3197,574.1659 244.2057,574.2472 C244.0267,574.3612 243.9128,574.5728 243.9128,574.7843 C243.9128,574.9797 244.0104,575.1587 244.1732,575.2889 C244.2871,575.3866 244.4173,575.4028 244.7428,575.4028 L244.9219,575.4028 L244.9219,580.188 L244.7428,580.188 C244.4336,580.188 244.3197,580.2043 244.2057,580.2856 C244.0267,580.3996 243.9128,580.6112 243.9128,580.8228 C243.9128,581.0181 244.0104,581.1971 244.1732,581.311 C244.2708,581.4087 244.4499,581.4412 244.7428,581.4412 L250.6185,581.4412 L250.6185,579.5369 C250.6185,579.2277 250.6022,579.1138 250.5371,578.9998 C250.4069,578.8208 250.2116,578.7069 250,578.7069 C249.8047,578.7069 249.6094,578.7882 249.4954,578.9673 C249.3978,579.0975 249.3815,579.1951 249.3815,579.5369 L249.3815,580.188 L246.1751,580.188 L246.1751,578.3976 Z " fill="#FFFFFF"/><text fill="#FFFFFF" font-family="Verdana" font-size="11.4583" lengthAdjust="spacing" textLength="116.6667" x="270.8333" y="581.7622">Ventas y marketing</text><line style="stroke:#2196F3;stroke-width:1.0416666666666667;" x1="233.3333" x2="400" y1="600.0895" y2="600.0895"/><line style="stroke:#2196F3;stroke-width:1.0416666666666667;" x1="233.3333" x2="400" y1="608.4229" y2="608.4229"/><ellipse cx="243.75" cy="631.2378" fill="none" rx="3.125" ry="3.125" style="stroke:#1A78C2;stroke-width:1.0416666666666667;"/><text fill="#FFFFFF" font-family="Verdana" font-size="11.4583" lengthAdjust="spacing" textLength="105.2083" x="262.5" y="633.6421">ID de usuario (PK)</text></g><!--class atencionCliente--><g id="elem_atencionCliente"><rect codeLine="19" fill="url(#g1r2fyjulz4sr41)" filter="url(#f1r2fyjulz4sr4)" height="95.4264" id="atencionCliente" rx="4.1667" ry="4.1667" style="stroke:#2196F3;stroke-width:1.0416666666666667;" width="163.5417" x="791.1458" y="428.418"/><rect fill="url(#g1r2fyjulz4sr42)" height="44.5882" rx="4.1667" ry="4.1667" style="stroke:url(#g1r2fyjulz4sr42);stroke-width:1.0416666666666667;" width="163.5417" x="791.1458" y="428.418"/><rect fill="url(#g1r2fyjulz4sr42)" height="4.1667" style="stroke:url(#g1r2fyjulz4sr42);stroke-width:1.0416666666666667;" width="163.5417" x="791.1458" y="468.8395"/><rect codeLine="19" fill="none" height="95.4264" id="atencionCliente" rx="4.1667" ry="4.1667" style="stroke:#2196F3;stroke-width:1.0416666666666667;" width="163.5417" x="791.1458" y="428.418"/><ellipse cx="805.7292" cy="450.7121" fill="none" rx="10.4167" ry="10.4167" style="stroke:#1A78C2;stroke-width:1.0416666666666667;"/><path d="M805.0293,451.3143 L806.0872,451.3143 L806.0872,451.4119 C806.0872,451.7049 806.1198,451.8188 806.1849,451.9328 C806.2988,452.1281 806.5104,452.2257 806.722,452.2257 C806.901,452.2257 807.0964,452.1281 807.2103,451.9653 C807.3079,451.8514 807.3242,451.7375 807.3242,451.4119 L807.3242,449.9959 C807.3242,449.882 807.3242,449.8494 807.3242,449.7355 C807.2591,449.3774 807.0475,449.1659 806.7057,449.1659 C806.5104,449.1659 806.3314,449.2635 806.2012,449.4263 C806.1198,449.5402 806.0872,449.6541 806.0872,449.9959 L806.0872,450.0773 L805.0293,450.0773 L805.0293,448.3195 L807.959,448.3195 L807.959,448.938 C807.959,449.2472 807.9753,449.3774 808.0404,449.4751 C808.1706,449.6704 808.3659,449.7843 808.5775,449.7843 C808.7728,449.7843 808.9681,449.6867 809.0983,449.5239 C809.1797,449.3937 809.2122,449.2961 809.2122,448.938 L809.2122,447.0662 L803.597,447.0662 C803.2715,447.0662 803.1738,447.0825 803.0599,447.1639 C802.8809,447.2778 802.7669,447.4894 802.7669,447.701 C802.7669,447.8963 802.8646,448.0754 803.0273,448.2056 C803.1413,448.3032 803.2715,448.3195 803.597,448.3195 L803.776,448.3195 L803.776,453.1047 L803.597,453.1047 C803.2878,453.1047 803.1738,453.1209 803.0599,453.2023 C802.8809,453.3162 802.7669,453.5278 802.7669,453.7394 C802.7669,453.9347 802.8646,454.1138 803.0273,454.2277 C803.125,454.3254 803.304,454.3579 803.597,454.3579 L809.4727,454.3579 L809.4727,452.4536 C809.4727,452.1444 809.4564,452.0304 809.3913,451.9165 C809.2611,451.7375 809.0658,451.6235 808.8542,451.6235 C808.6589,451.6235 808.4635,451.7049 808.3496,451.884 C808.252,452.0142 808.2357,452.1118 808.2357,452.4536 L808.2357,453.1047 L805.0293,453.1047 L805.0293,451.3143 Z " fill="#FFFFFF"/><text fill="#FFFFFF" font-family="Verdana" font-size="11.4583" lengthAdjust="spacing" textLength="111.4583" x="829.6875" y="454.6789">Atenci&#243;n al cliente</text><line style="stroke:#2196F3;stroke-width:1.0416666666666667;" x1="792.1875" x2="953.6458" y1="473.0062" y2="473.0062"/><line style="stroke:#2196F3;stroke-width:1.0416666666666667;" x1="792.1875" x2="953.6458" y1="481.3395" y2="481.3395"/><ellipse cx="802.6042" cy="504.1545" fill="none" rx="3.125" ry="3.125" style="stroke:#1A78C2;stroke-width:1.0416666666666667;"/><text fill="#FFFFFF" font-family="Verdana" font-size="11.4583" lengthAdjust="spacing" textLength="105.2083" x="821.3542" y="506.5587">ID de usuario (PK)</text></g><!--class finanzas--><g id="elem_finanzas"><rect codeLine="23" fill="url(#g1r2fyjulz4sr41)" filter="url(#f1r2fyjulz4sr4)" height="95.4264" id="finanzas" rx="4.1667" ry="4.1667" style="stroke:#2196F3;stroke-width:1.0416666666666667;" width="152.0833" x="894.7917" y="877.3763"/><rect fill="url(#g1r2fyjulz4sr42)" height="44.5882" rx="4.1667" ry="4.1667" style="stroke:url(#g1r2fyjulz4sr42);stroke-width:1.0416666666666667;" width="152.0833" x="894.7917" y="877.3763"/><rect fill="url(#g1r2fyjulz4sr42)" height="4.1667" style="stroke:url(#g1r2fyjulz4sr42);stroke-width:1.0416666666666667;" width="152.0833" x="894.7917" y="917.7979"/><rect codeLine="23" fill="none" height="95.4264" id="finanzas" rx="4.1667" ry="4.1667" style="stroke:#2196F3;stroke-width:1.0416666666666667;" width="152.0833" x="894.7917" y="877.3763"/><ellipse cx="930.9375" cy="899.6704" fill="none" rx="10.4167" ry="10.4167" style="stroke:#1A78C2;stroke-width:1.0416666666666667;"/><path d="M930.2376,900.2726 L931.2956,900.2726 L931.2956,900.3703 C931.2956,900.6632 931.3281,900.7772 931.3932,900.8911 C931.5072,901.0864 931.7188,901.1841 931.9303,901.1841 C932.1094,901.1841 932.3047,901.0864 932.4186,900.9237 C932.5163,900.8097 932.5326,900.6958 932.5326,900.3703 L932.5326,898.9543 C932.5326,898.8403 932.5326,898.8078 932.5326,898.6938 C932.4674,898.3358 932.2559,898.1242 931.9141,898.1242 C931.7188,898.1242 931.5397,898.2218 931.4095,898.3846 C931.3281,898.4985 931.2956,898.6125 931.2956,898.9543 L931.2956,899.0356 L930.2376,899.0356 L930.2376,897.2778 L933.1673,897.2778 L933.1673,897.8963 C933.1673,898.2056 933.1836,898.3358 933.2487,898.4334 C933.3789,898.6287 933.5742,898.7427 933.7858,898.7427 C933.9811,898.7427 934.1764,898.645 934.3066,898.4823 C934.388,898.3521 934.4206,898.2544 934.4206,897.8963 L934.4206,896.0246 L928.8053,896.0246 C928.4798,896.0246 928.3822,896.0409 928.2682,896.1222 C928.0892,896.2362 927.9753,896.4478 927.9753,896.6593 C927.9753,896.8547 928.0729,897.0337 928.2357,897.1639 C928.3496,897.2616 928.4798,897.2778 928.8053,897.2778 L928.9844,897.2778 L928.9844,902.063 L928.8053,902.063 C928.4961,902.063 928.3822,902.0793 928.2682,902.1606 C928.0892,902.2746 927.9753,902.4862 927.9753,902.6978 C927.9753,902.8931 928.0729,903.0721 928.2357,903.186 C928.3333,903.2837 928.5124,903.3162 928.8053,903.3162 L934.681,903.3162 L934.681,901.4119 C934.681,901.1027 934.6647,900.9888 934.5996,900.8748 C934.4694,900.6958 934.2741,900.5819 934.0625,900.5819 C933.8672,900.5819 933.6719,900.6632 933.5579,900.8423 C933.4603,900.9725 933.444,901.0701 933.444,901.4119 L933.444,902.063 L930.2376,902.063 L930.2376,900.2726 Z " fill="#FFFFFF"/><text fill="#FFFFFF" font-family="Verdana" font-size="11.4583" lengthAdjust="spacing" textLength="52.0833" x="959.6875" y="903.6372">Finanzas</text><line style="stroke:#2196F3;stroke-width:1.0416666666666667;" x1="895.8333" x2="1045.8333" y1="921.9645" y2="921.9645"/><line style="stroke:#2196F3;stroke-width:1.0416666666666667;" x1="895.8333" x2="1045.8333" y1="930.2979" y2="930.2979"/><ellipse cx="906.25" cy="953.1128" fill="none" rx="3.125" ry="3.125" style="stroke:#1A78C2;stroke-width:1.0416666666666667;"/><text fill="#FFFFFF" font-family="Verdana" font-size="11.4583" lengthAdjust="spacing" textLength="105.2083" x="925" y="955.5171">ID de usuario (PK)</text></g><!--class rol--><g id="elem_rol"><rect codeLine="27" fill="url(#g1r2fyjulz4sr41)" filter="url(#f1r2fyjulz4sr4)" height="95.4264" id="rol" rx="4.1667" ry="4.1667" style="stroke:#2196F3;stroke-width:1.0416666666666667;" width="103.125" x="1081.7708" y="428.418"/><rect fill="url(#g1r2fyjulz4sr42)" height="44.5882" rx="4.1667" ry="4.1667" style="stroke:url(#g1r2fyjulz4sr42);stroke-width:1.0416666666666667;" width="103.125" x="1081.7708" y="428.418"/><rect fill="url(#g1r2fyjulz4sr42)" height="4.1667" style="stroke:url(#g1r2fyjulz4sr42);stroke-width:1.0416666666666667;" width="103.125" x="1081.7708" y="468.8395"/><rect codeLine="27" fill="none" height="95.4264" id="rol" rx="4.1667" ry="4.1667" style="stroke:#2196F3;stroke-width:1.0416666666666667;" width="103.125" x="1081.7708" y="428.418"/><ellipse cx="1111.3542" cy="450.7121" fill="none" rx="10.4167" ry="10.4167" style="stroke:#1A78C2;stroke-width:1.0416666666666667;"/><path d="M1110.6543,451.3143 L1111.7122,451.3143 L1111.7122,451.4119 C1111.7122,451.7049 1111.7448,451.8188 1111.8099,451.9328 C1111.9238,452.1281 1112.1354,452.2257 1112.347,452.2257 C1112.526,452.2257 1112.7214,452.1281 1112.8353,451.9653 C1112.9329,451.8514 1112.9492,451.7375 1112.9492,451.4119 L1112.9492,449.9959 C1112.9492,449.882 1112.9492,449.8494 1112.9492,449.7355 C1112.8841,449.3774 1112.6725,449.1659 1112.3307,449.1659 C1112.1354,449.1659 1111.9564,449.2635 1111.8262,449.4263 C1111.7448,449.5402 1111.7122,449.6541 1111.7122,449.9959 L1111.7122,450.0773 L1110.6543,450.0773 L1110.6543,448.3195 L1113.584,448.3195 L1113.584,448.938 C1113.584,449.2472 1113.6003,449.3774 1113.6654,449.4751 C1113.7956,449.6704 1113.9909,449.7843 1114.2025,449.7843 C1114.3978,449.7843 1114.5931,449.6867 1114.7233,449.5239 C1114.8047,449.3937 1114.8372,449.2961 1114.8372,448.938 L1114.8372,447.0662 L1109.222,447.0662 C1108.8965,447.0662 1108.7988,447.0825 1108.6849,447.1639 C1108.5059,447.2778 1108.3919,447.4894 1108.3919,447.701 C1108.3919,447.8963 1108.4896,448.0754 1108.6523,448.2056 C1108.7663,448.3032 1108.8965,448.3195 1109.222,448.3195 L1109.401,448.3195 L1109.401,453.1047 L1109.222,453.1047 C1108.9128,453.1047 1108.7988,453.1209 1108.6849,453.2023 C1108.5059,453.3162 1108.3919,453.5278 1108.3919,453.7394 C1108.3919,453.9347 1108.4896,454.1138 1108.6523,454.2277 C1108.75,454.3254 1108.929,454.3579 1109.222,454.3579 L1115.0977,454.3579 L1115.0977,452.4536 C1115.0977,452.1444 1115.0814,452.0304 1115.0163,451.9165 C1114.8861,451.7375 1114.6908,451.6235 1114.4792,451.6235 C1114.2839,451.6235 1114.0885,451.7049 1113.9746,451.884 C1113.877,452.0142 1113.8607,452.1118 1113.8607,452.4536 L1113.8607,453.1047 L1110.6543,453.1047 L1110.6543,451.3143 Z " fill="#FFFFFF"/><text fill="#FFFFFF" font-family="Verdana" font-size="11.4583" lengthAdjust="spacing" textLength="17.7083" x="1138.6458" y="454.6789">Rol</text><line style="stroke:#2196F3;stroke-width:1.0416666666666667;" x1="1082.8125" x2="1183.8542" y1="473.0062" y2="473.0062"/><line style="stroke:#2196F3;stroke-width:1.0416666666666667;" x1="1082.8125" x2="1183.8542" y1="481.3395" y2="481.3395"/><ellipse cx="1093.2292" cy="504.1545" fill="none" rx="3.125" ry="3.125" style="stroke:#1A78C2;stroke-width:1.0416666666666667;"/><text fill="#FFFFFF" font-family="Verdana" font-size="11.4583" lengthAdjust="spacing" textLength="56.25" x="1111.9792" y="506.5587">Valor (PK)</text></g><!--class contrato--><g id="elem_contrato"><rect codeLine="31" fill="url(#g1r2fyjulz4sr41)" filter="url(#f1r2fyjulz4sr4)" height="95.4264" id="contrato" rx="4.1667" ry="4.1667" style="stroke:#2196F3;stroke-width:1.0416666666666667;" width="157.2917" x="449.4792" y="877.3763"/><rect fill="url(#g1r2fyjulz4sr42)" height="44.5882" rx="4.1667" ry="4.1667" style="stroke:url(#g1r2fyjulz4sr42);stroke-width:1.0416666666666667;" width="157.2917" x="449.4792" y="877.3763"/><rect fill="url(#g1r2fyjulz4sr42)" height="4.1667" style="stroke:url(#g1r2fyjulz4sr42);stroke-width:1.0416666666666667;" width="157.2917" x="449.4792" y="917.7979"/><rect codeLine="31" fill="none" height="95.4264" id="contrato" rx="4.1667" ry="4.1667" style="stroke:#2196F3;stroke-width:1.0416666666666667;" width="157.2917" x="449.4792" y="877.3763"/><ellipse cx="488.9063" cy="899.6704" fill="none" rx="10.4167" ry="10.4167" style="stroke:#1A78C2;stroke-width:1.0416666666666667;"/><path d="M488.2064,900.2726 L489.2643,900.2726 L489.2643,900.3703 C489.2643,900.6632 489.2969,900.7772 489.362,900.8911 C489.4759,901.0864 489.6875,901.1841 489.8991,901.1841 C490.0781,901.1841 490.2734,901.0864 490.3874,900.9237 C490.485,900.8097 490.5013,900.6958 490.5013,900.3703 L490.5013,898.9543 C490.5013,898.8403 490.5013,898.8078 490.5013,898.6938 C490.4362,898.3358 490.2246,898.1242 489.8828,898.1242 C489.6875,898.1242 489.5085,898.2218 489.3783,898.3846 C489.2969,898.4985 489.2643,898.6125 489.2643,898.9543 L489.2643,899.0356 L488.2064,899.0356 L488.2064,897.2778 L491.1361,897.2778 L491.1361,897.8963 C491.1361,898.2056 491.1523,898.3358 491.2174,898.4334 C491.3477,898.6287 491.543,898.7427 491.7546,898.7427 C491.9499,898.7427 492.1452,898.645 492.2754,898.4823 C492.3568,898.3521 492.3893,898.2544 492.3893,897.8963 L492.3893,896.0246 L486.7741,896.0246 C486.4486,896.0246 486.3509,896.0409 486.237,896.1222 C486.0579,896.2362 485.944,896.4478 485.944,896.6593 C485.944,896.8547 486.0417,897.0337 486.2044,897.1639 C486.3184,897.2616 486.4486,897.2778 486.7741,897.2778 L486.9531,897.2778 L486.9531,902.063 L486.7741,902.063 C486.4648,902.063 486.3509,902.0793 486.237,902.1606 C486.0579,902.2746 485.944,902.4862 485.944,902.6978 C485.944,902.8931 486.0417,903.0721 486.2044,903.186 C486.3021,903.2837 486.4811,903.3162 486.7741,903.3162 L492.6497,903.3162 L492.6497,901.4119 C492.6497,901.1027 492.6335,900.9888 492.5684,900.8748 C492.4382,900.6958 492.2428,900.5819 492.0313,900.5819 C491.8359,900.5819 491.6406,900.6632 491.5267,900.8423 C491.429,900.9725 491.4128,901.0701 491.4128,901.4119 L491.4128,902.063 L488.2064,902.063 L488.2064,900.2726 Z " fill="#FFFFFF"/><text fill="#FFFFFF" font-family="Verdana" font-size="11.4583" lengthAdjust="spacing" textLength="50" x="518.3854" y="903.6372">Contrato</text><line style="stroke:#2196F3;stroke-width:1.0416666666666667;" x1="450.5208" x2="605.7292" y1="921.9645" y2="921.9645"/><line style="stroke:#2196F3;stroke-width:1.0416666666666667;" x1="450.5208" x2="605.7292" y1="930.2979" y2="930.2979"/><ellipse cx="460.9375" cy="953.1128" fill="none" rx="3.125" ry="3.125" style="stroke:#1A78C2;stroke-width:1.0416666666666667;"/><text fill="#FFFFFF" font-family="Verdana" font-size="11.4583" lengthAdjust="spacing" textLength="110.4167" x="479.6875" y="955.5171">ID de contrato (PK)</text></g><!--class linea--><g id="elem_linea"><rect codeLine="35" fill="url(#g1r2fyjulz4sr41)" filter="url(#f1r2fyjulz4sr4)" height="163.7695" id="linea" rx="4.1667" ry="4.1667" style="stroke:#2196F3;stroke-width:1.0416666666666667;" width="138.5417" x="290.1042" y="1072.168"/><rect fill="url(#g1r2fyjulz4sr42)" height="44.5882" rx="4.1667" ry="4.1667" style="stroke:url(#g1r2fyjulz4sr42);stroke-width:1.0416666666666667;" width="138.5417" x="290.1042" y="1072.168"/><rect fill="url(#g1r2fyjulz4sr42)" height="4.1667" style="stroke:url(#g1r2fyjulz4sr42);stroke-width:1.0416666666666667;" width="138.5417" x="290.1042" y="1112.5895"/><rect codeLine="35" fill="none" height="163.7695" id="linea" rx="4.1667" ry="4.1667" style="stroke:#2196F3;stroke-width:1.0416666666666667;" width="138.5417" x="290.1042" y="1072.168"/><ellipse cx="329.0625" cy="1094.4621" fill="none" rx="10.4167" ry="10.4167" style="stroke:#1A78C2;stroke-width:1.0416666666666667;"/><path d="M328.3626,1095.0643 L329.4206,1095.0643 L329.4206,1095.1619 C329.4206,1095.4549 329.4531,1095.5688 329.5182,1095.6828 C329.6322,1095.8781 329.8438,1095.9757 330.0553,1095.9757 C330.2344,1095.9757 330.4297,1095.8781 330.5436,1095.7153 C330.6413,1095.6014 330.6576,1095.4875 330.6576,1095.1619 L330.6576,1093.7459 C330.6576,1093.632 330.6576,1093.5994 330.6576,1093.4855 C330.5924,1093.1274 330.3809,1092.9159 330.0391,1092.9159 C329.8438,1092.9159 329.6647,1093.0135 329.5345,1093.1763 C329.4531,1093.2902 329.4206,1093.4041 329.4206,1093.7459 L329.4206,1093.8273 L328.3626,1093.8273 L328.3626,1092.0695 L331.2923,1092.0695 L331.2923,1092.688 C331.2923,1092.9972 331.3086,1093.1274 331.3737,1093.2251 C331.5039,1093.4204 331.6992,1093.5343 331.9108,1093.5343 C332.1061,1093.5343 332.3014,1093.4367 332.4316,1093.2739 C332.513,1093.1437 332.5456,1093.0461 332.5456,1092.688 L332.5456,1090.8162 L326.9303,1090.8162 C326.6048,1090.8162 326.5072,1090.8325 326.3932,1090.9139 C326.2142,1091.0278 326.1003,1091.2394 326.1003,1091.451 C326.1003,1091.6463 326.1979,1091.8254 326.3607,1091.9556 C326.4746,1092.0532 326.6048,1092.0695 326.9303,1092.0695 L327.1094,1092.0695 L327.1094,1096.8547 L326.9303,1096.8547 C326.6211,1096.8547 326.5072,1096.8709 326.3932,1096.9523 C326.2142,1097.0662 326.1003,1097.2778 326.1003,1097.4894 C326.1003,1097.6847 326.1979,1097.8638 326.3607,1097.9777 C326.4583,1098.0754 326.6374,1098.1079 326.9303,1098.1079 L332.806,1098.1079 L332.806,1096.2036 C332.806,1095.8944 332.7897,1095.7804 332.7246,1095.6665 C332.5944,1095.4875 332.3991,1095.3735 332.1875,1095.3735 C331.9922,1095.3735 331.7969,1095.4549 331.6829,1095.634 C331.5853,1095.7642 331.569,1095.8618 331.569,1096.2036 L331.569,1096.8547 L328.3626,1096.8547 L328.3626,1095.0643 Z " fill="#FFFFFF"/><text fill="#FFFFFF" font-family="Verdana" font-size="11.4583" lengthAdjust="spacing" textLength="32.2917" x="358.4375" y="1098.4289">L&#237;nea</text><line style="stroke:#2196F3;stroke-width:1.0416666666666667;" x1="291.1458" x2="427.6042" y1="1116.7562" y2="1116.7562"/><ellipse cx="301.5625" cy="1139.5711" fill="none" rx="3.125" ry="3.125" style="stroke:#1A78C2;stroke-width:1.0416666666666667;"/><text fill="#FFFFFF" font-family="Verdana" font-size="11.4583" lengthAdjust="spacing" textLength="25" x="320.3125" y="1141.9754">Tipo</text><ellipse cx="301.5625" cy="1173.7427" fill="none" rx="3.125" ry="3.125" style="stroke:#1A78C2;stroke-width:1.0416666666666667;"/><text fill="#FFFFFF" font-family="Verdana" font-size="11.4583" lengthAdjust="spacing" textLength="35.4167" x="320.3125" y="1176.147">Precio</text><line style="stroke:#2196F3;stroke-width:1.0416666666666667;" x1="291.1458" x2="427.6042" y1="1193.4326" y2="1193.4326"/><ellipse cx="301.5625" cy="1216.2476" fill="none" rx="3.125" ry="3.125" style="stroke:#1A78C2;stroke-width:1.0416666666666667;"/><text fill="#FFFFFF" font-family="Verdana" font-size="11.4583" lengthAdjust="spacing" textLength="91.6667" x="320.3125" y="1218.6518">ID de l&#237;nea (PK)</text></g><!--class tipoLinea--><g id="elem_tipoLinea"><rect codeLine="41" fill="url(#g1r2fyjulz4sr41)" filter="url(#f1r2fyjulz4sr4)" height="95.4264" id="tipoLinea" rx="4.1667" ry="4.1667" style="stroke:#2196F3;stroke-width:1.0416666666666667;" width="133.3333" x="17.7083" y="1351.3346"/><rect fill="url(#g1r2fyjulz4sr42)" height="44.5882" rx="4.1667" ry="4.1667" style="stroke:url(#g1r2fyjulz4sr42);stroke-width:1.0416666666666667;" width="133.3333" x="17.7083" y="1351.3346"/><rect fill="url(#g1r2fyjulz4sr42)" height="4.1667" style="stroke:url(#g1r2fyjulz4sr42);stroke-width:1.0416666666666667;" width="133.3333" x="17.7083" y="1391.7562"/><rect codeLine="41" fill="none" height="95.4264" id="tipoLinea" rx="4.1667" ry="4.1667" style="stroke:#2196F3;stroke-width:1.0416666666666667;" width="133.3333" x="17.7083" y="1351.3346"/><ellipse cx="32.2917" cy="1373.6287" fill="none" rx="10.4167" ry="10.4167" style="stroke:#1A78C2;stroke-width:1.0416666666666667;"/><path d="M31.5918,1374.231 L32.6497,1374.231 L32.6497,1374.3286 C32.6497,1374.6216 32.6823,1374.7355 32.7474,1374.8494 C32.8613,1375.0448 33.0729,1375.1424 33.2845,1375.1424 C33.4635,1375.1424 33.6589,1375.0448 33.7728,1374.882 C33.8704,1374.7681 33.8867,1374.6541 33.8867,1374.3286 L33.8867,1372.9126 C33.8867,1372.7987 33.8867,1372.7661 33.8867,1372.6522 C33.8216,1372.2941 33.61,1372.0825 33.2682,1372.0825 C33.0729,1372.0825 32.8939,1372.1802 32.7637,1372.3429 C32.6823,1372.4569 32.6497,1372.5708 32.6497,1372.9126 L32.6497,1372.994 L31.5918,1372.994 L31.5918,1371.2362 L34.5215,1371.2362 L34.5215,1371.8547 C34.5215,1372.1639 34.5378,1372.2941 34.6029,1372.3918 C34.7331,1372.5871 34.9284,1372.701 35.14,1372.701 C35.3353,1372.701 35.5306,1372.6034 35.6608,1372.4406 C35.7422,1372.3104 35.7747,1372.2127 35.7747,1371.8547 L35.7747,1369.9829 L30.1595,1369.9829 C29.834,1369.9829 29.7363,1369.9992 29.6224,1370.0806 C29.4434,1370.1945 29.3294,1370.4061 29.3294,1370.6177 C29.3294,1370.813 29.4271,1370.992 29.5898,1371.1222 C29.7038,1371.2199 29.834,1371.2362 30.1595,1371.2362 L30.3385,1371.2362 L30.3385,1376.0213 L30.1595,1376.0213 C29.8503,1376.0213 29.7363,1376.0376 29.6224,1376.119 C29.4434,1376.2329 29.3294,1376.4445 29.3294,1376.6561 C29.3294,1376.8514 29.4271,1377.0304 29.5898,1377.1444 C29.6875,1377.242 29.8665,1377.2746 30.1595,1377.2746 L36.0352,1377.2746 L36.0352,1375.3703 C36.0352,1375.061 36.0189,1374.9471 35.9538,1374.8332 C35.8236,1374.6541 35.6283,1374.5402 35.4167,1374.5402 C35.2214,1374.5402 35.026,1374.6216 34.9121,1374.8006 C34.8145,1374.9308 34.7982,1375.0285 34.7982,1375.3703 L34.7982,1376.0213 L31.5918,1376.0213 L31.5918,1374.231 Z " fill="#FFFFFF"/><text fill="#FFFFFF" font-family="Verdana" font-size="11.4583" lengthAdjust="spacing" textLength="81.25" x="56.25" y="1377.5955">Tipo de L&#237;nea</text><line style="stroke:#2196F3;stroke-width:1.0416666666666667;" x1="18.75" x2="150" y1="1395.9229" y2="1395.9229"/><line style="stroke:#2196F3;stroke-width:1.0416666666666667;" x1="18.75" x2="150" y1="1404.2562" y2="1404.2562"/><ellipse cx="29.1667" cy="1427.0711" fill="none" rx="3.125" ry="3.125" style="stroke:#1A78C2;stroke-width:1.0416666666666667;"/><text fill="#FFFFFF" font-family="Verdana" font-size="11.4583" lengthAdjust="spacing" textLength="56.25" x="47.9167" y="1429.4754">Valor (PK)</text></g><!--class fijo--><g id="elem_fijo"><rect codeLine="45" fill="url(#g1r2fyjulz4sr41)" filter="url(#f1r2fyjulz4sr4)" height="95.4264" id="fijo" rx="4.1667" ry="4.1667" style="stroke:#2196F3;stroke-width:1.0416666666666667;" width="167.7083" x="188.0208" y="1351.3346"/><rect fill="url(#g1r2fyjulz4sr42)" height="44.5882" rx="4.1667" ry="4.1667" style="stroke:url(#g1r2fyjulz4sr42);stroke-width:1.0416666666666667;" width="167.7083" x="188.0208" y="1351.3346"/><rect fill="url(#g1r2fyjulz4sr42)" height="4.1667" style="stroke:url(#g1r2fyjulz4sr42);stroke-width:1.0416666666666667;" width="167.7083" x="188.0208" y="1391.7562"/><rect codeLine="45" fill="none" height="95.4264" id="fijo" rx="4.1667" ry="4.1667" style="stroke:#2196F3;stroke-width:1.0416666666666667;" width="167.7083" x="188.0208" y="1351.3346"/><ellipse cx="247.3958" cy="1373.6287" fill="none" rx="10.4167" ry="10.4167" style="stroke:#1A78C2;stroke-width:1.0416666666666667;"/><path d="M246.696,1374.231 L247.7539,1374.231 L247.7539,1374.3286 C247.7539,1374.6216 247.7865,1374.7355 247.8516,1374.8494 C247.9655,1375.0448 248.1771,1375.1424 248.3887,1375.1424 C248.5677,1375.1424 248.763,1375.0448 248.877,1374.882 C248.9746,1374.7681 248.9909,1374.6541 248.9909,1374.3286 L248.9909,1372.9126 C248.9909,1372.7987 248.9909,1372.7661 248.9909,1372.6522 C248.9258,1372.2941 248.7142,1372.0825 248.3724,1372.0825 C248.1771,1372.0825 247.998,1372.1802 247.8678,1372.3429 C247.7865,1372.4569 247.7539,1372.5708 247.7539,1372.9126 L247.7539,1372.994 L246.696,1372.994 L246.696,1371.2362 L249.6257,1371.2362 L249.6257,1371.8547 C249.6257,1372.1639 249.6419,1372.2941 249.707,1372.3918 C249.8372,1372.5871 250.0326,1372.701 250.2441,1372.701 C250.4395,1372.701 250.6348,1372.6034 250.765,1372.4406 C250.8464,1372.3104 250.8789,1372.2127 250.8789,1371.8547 L250.8789,1369.9829 L245.2637,1369.9829 C244.9382,1369.9829 244.8405,1369.9992 244.7266,1370.0806 C244.5475,1370.1945 244.4336,1370.4061 244.4336,1370.6177 C244.4336,1370.813 244.5313,1370.992 244.694,1371.1222 C244.8079,1371.2199 244.9382,1371.2362 245.2637,1371.2362 L245.4427,1371.2362 L245.4427,1376.0213 L245.2637,1376.0213 C244.9544,1376.0213 244.8405,1376.0376 244.7266,1376.119 C244.5475,1376.2329 244.4336,1376.4445 244.4336,1376.6561 C244.4336,1376.8514 244.5313,1377.0304 244.694,1377.1444 C244.7917,1377.242 244.9707,1377.2746 245.2637,1377.2746 L251.1393,1377.2746 L251.1393,1375.3703 C251.1393,1375.061 251.123,1374.9471 251.0579,1374.8332 C250.9277,1374.6541 250.7324,1374.5402 250.5208,1374.5402 C250.3255,1374.5402 250.1302,1374.6216 250.0163,1374.8006 C249.9186,1374.9308 249.9023,1375.0285 249.9023,1375.3703 L249.9023,1376.0213 L246.696,1376.0213 L246.696,1374.231 Z " fill="#FFFFFF"/><text fill="#FFFFFF" font-family="Verdana" font-size="11.4583" lengthAdjust="spacing" textLength="19.7917" x="277.6042" y="1377.5955">Fijo</text><line style="stroke:#2196F3;stroke-width:1.0416666666666667;" x1="189.0625" x2="354.6875" y1="1395.9229" y2="1395.9229"/><ellipse cx="199.4792" cy="1418.7378" fill="none" rx="3.125" ry="3.125" style="stroke:#1A78C2;stroke-width:1.0416666666666667;"/><text fill="#FFFFFF" font-family="Verdana" font-size="11.4583" lengthAdjust="spacing" textLength="120.8333" x="218.2292" y="1421.1421">N&#250;mero de tel&#233;fono</text><line style="stroke:#2196F3;stroke-width:1.0416666666666667;" x1="189.0625" x2="354.6875" y1="1438.4277" y2="1438.4277"/></g><!--class movil--><g id="elem_movil"><rect codeLine="49" fill="url(#g1r2fyjulz4sr41)" filter="url(#f1r2fyjulz4sr4)" height="129.598" id="movil" rx="4.1667" ry="4.1667" style="stroke:#2196F3;stroke-width:1.0416666666666667;" width="167.7083" x="392.1875" y="1334.668"/><rect fill="url(#g1r2fyjulz4sr42)" height="44.5882" rx="4.1667" ry="4.1667" style="stroke:url(#g1r2fyjulz4sr42);stroke-width:1.0416666666666667;" width="167.7083" x="392.1875" y="1334.668"/><rect fill="url(#g1r2fyjulz4sr42)" height="4.1667" style="stroke:url(#g1r2fyjulz4sr42);stroke-width:1.0416666666666667;" width="167.7083" x="392.1875" y="1375.0895"/><rect codeLine="49" fill="none" height="129.598" id="movil" rx="4.1667" ry="4.1667" style="stroke:#2196F3;stroke-width:1.0416666666666667;" width="167.7083" x="392.1875" y="1334.668"/><ellipse cx="446.3542" cy="1356.9621" fill="none" rx="10.4167" ry="10.4167" style="stroke:#1A78C2;stroke-width:1.0416666666666667;"/><path d="M445.6543,1357.5643 L446.7122,1357.5643 L446.7122,1357.6619 C446.7122,1357.9549 446.7448,1358.0688 446.8099,1358.1828 C446.9238,1358.3781 447.1354,1358.4757 447.347,1358.4757 C447.526,1358.4757 447.7214,1358.3781 447.8353,1358.2153 C447.9329,1358.1014 447.9492,1357.9875 447.9492,1357.6619 L447.9492,1356.2459 C447.9492,1356.132 447.9492,1356.0994 447.9492,1355.9855 C447.8841,1355.6274 447.6725,1355.4159 447.3307,1355.4159 C447.1354,1355.4159 446.9564,1355.5135 446.8262,1355.6763 C446.7448,1355.7902 446.7122,1355.9041 446.7122,1356.2459 L446.7122,1356.3273 L445.6543,1356.3273 L445.6543,1354.5695 L448.584,1354.5695 L448.584,1355.188 C448.584,1355.4972 448.6003,1355.6274 448.6654,1355.7251 C448.7956,1355.9204 448.9909,1356.0343 449.2025,1356.0343 C449.3978,1356.0343 449.5931,1355.9367 449.7233,1355.7739 C449.8047,1355.6437 449.8372,1355.5461 449.8372,1355.188 L449.8372,1353.3162 L444.222,1353.3162 C443.8965,1353.3162 443.7988,1353.3325 443.6849,1353.4139 C443.5059,1353.5278 443.3919,1353.7394 443.3919,1353.951 C443.3919,1354.1463 443.4896,1354.3254 443.6523,1354.4556 C443.7663,1354.5532 443.8965,1354.5695 444.222,1354.5695 L444.401,1354.5695 L444.401,1359.3547 L444.222,1359.3547 C443.9128,1359.3547 443.7988,1359.3709 443.6849,1359.4523 C443.5059,1359.5662 443.3919,1359.7778 443.3919,1359.9894 C443.3919,1360.1847 443.4896,1360.3638 443.6523,1360.4777 C443.75,1360.5754 443.929,1360.6079 444.222,1360.6079 L450.0977,1360.6079 L450.0977,1358.7036 C450.0977,1358.3944 450.0814,1358.2804 450.0163,1358.1665 C449.8861,1357.9875 449.6908,1357.8735 449.4792,1357.8735 C449.2839,1357.8735 449.0885,1357.9549 448.9746,1358.134 C448.877,1358.2642 448.8607,1358.3618 448.8607,1358.7036 L448.8607,1359.3547 L445.6543,1359.3547 L445.6543,1357.5643 Z " fill="#FFFFFF"/><text fill="#FFFFFF" font-family="Verdana" font-size="11.4583" lengthAdjust="spacing" textLength="30.2083" x="476.5625" y="1360.9289">M&#243;vil</text><line style="stroke:#2196F3;stroke-width:1.0416666666666667;" x1="393.2292" x2="558.8542" y1="1379.2562" y2="1379.2562"/><ellipse cx="403.6458" cy="1402.0711" fill="none" rx="3.125" ry="3.125" style="stroke:#1A78C2;stroke-width:1.0416666666666667;"/><text fill="#FFFFFF" font-family="Verdana" font-size="11.4583" lengthAdjust="spacing" textLength="120.8333" x="422.3958" y="1404.4754">N&#250;mero de tel&#233;fono</text><ellipse cx="403.6458" cy="1436.2427" fill="none" rx="3.125" ry="3.125" style="stroke:#1A78C2;stroke-width:1.0416666666666667;"/><text fill="#FFFFFF" font-family="Verdana" font-size="11.4583" lengthAdjust="spacing" textLength="111.4583" x="422.3958" y="1438.647">Consumo de datos</text><line style="stroke:#2196F3;stroke-width:1.0416666666666667;" x1="393.2292" x2="558.8542" y1="1455.9326" y2="1455.9326"/></g><!--class fibra--><g id="elem_fibra"><rect codeLine="54" fill="url(#g1r2fyjulz4sr41)" filter="url(#f1r2fyjulz4sr4)" height="95.4264" id="fibra" rx="4.1667" ry="4.1667" style="stroke:#2196F3;stroke-width:1.0416666666666667;" width="105.2083" x="596.3542" y="1351.3346"/><rect fill="url(#g1r2fyjulz4sr42)" height="44.5882" rx="4.1667" ry="4.1667" style="stroke:url(#g1r2fyjulz4sr42);stroke-width:1.0416666666666667;" width="105.2083" x="596.3542" y="1351.3346"/><rect fill="url(#g1r2fyjulz4sr42)" height="4.1667" style="stroke:url(#g1r2fyjulz4sr42);stroke-width:1.0416666666666667;" width="105.2083" x="596.3542" y="1391.7562"/><rect codeLine="54" fill="none" height="95.4264" id="fibra" rx="4.1667" ry="4.1667" style="stroke:#2196F3;stroke-width:1.0416666666666667;" width="105.2083" x="596.3542" y="1351.3346"/><ellipse cx="622.1875" cy="1373.6287" fill="none" rx="10.4167" ry="10.4167" style="stroke:#1A78C2;stroke-width:1.0416666666666667;"/><path d="M621.4876,1374.231 L622.5456,1374.231 L622.5456,1374.3286 C622.5456,1374.6216 622.5781,1374.7355 622.6432,1374.8494 C622.7572,1375.0448 622.9688,1375.1424 623.1803,1375.1424 C623.3594,1375.1424 623.5547,1375.0448 623.6686,1374.882 C623.7663,1374.7681 623.7826,1374.6541 623.7826,1374.3286 L623.7826,1372.9126 C623.7826,1372.7987 623.7826,1372.7661 623.7826,1372.6522 C623.7174,1372.2941 623.5059,1372.0825 623.1641,1372.0825 C622.9688,1372.0825 622.7897,1372.1802 622.6595,1372.3429 C622.5781,1372.4569 622.5456,1372.5708 622.5456,1372.9126 L622.5456,1372.994 L621.4876,1372.994 L621.4876,1371.2362 L624.4173,1371.2362 L624.4173,1371.8547 C624.4173,1372.1639 624.4336,1372.2941 624.4987,1372.3918 C624.6289,1372.5871 624.8242,1372.701 625.0358,1372.701 C625.2311,1372.701 625.4264,1372.6034 625.5566,1372.4406 C625.638,1372.3104 625.6706,1372.2127 625.6706,1371.8547 L625.6706,1369.9829 L620.0553,1369.9829 C619.7298,1369.9829 619.6322,1369.9992 619.5182,1370.0806 C619.3392,1370.1945 619.2253,1370.4061 619.2253,1370.6177 C619.2253,1370.813 619.3229,1370.992 619.4857,1371.1222 C619.5996,1371.2199 619.7298,1371.2362 620.0553,1371.2362 L620.2344,1371.2362 L620.2344,1376.0213 L620.0553,1376.0213 C619.7461,1376.0213 619.6322,1376.0376 619.5182,1376.119 C619.3392,1376.2329 619.2253,1376.4445 619.2253,1376.6561 C619.2253,1376.8514 619.3229,1377.0304 619.4857,1377.1444 C619.5833,1377.242 619.7624,1377.2746 620.0553,1377.2746 L625.931,1377.2746 L625.931,1375.3703 C625.931,1375.061 625.9147,1374.9471 625.8496,1374.8332 C625.7194,1374.6541 625.5241,1374.5402 625.3125,1374.5402 C625.1172,1374.5402 624.9219,1374.6216 624.8079,1374.8006 C624.7103,1374.9308 624.694,1375.0285 624.694,1375.3703 L624.694,1376.0213 L621.4876,1376.0213 L621.4876,1374.231 Z " fill="#FFFFFF"/><text fill="#FFFFFF" font-family="Verdana" font-size="11.4583" lengthAdjust="spacing" textLength="28.125" x="648.6458" y="1377.5955">Fibra</text><line style="stroke:#2196F3;stroke-width:1.0416666666666667;" x1="597.3958" x2="700.5208" y1="1395.9229" y2="1395.9229"/><ellipse cx="607.8125" cy="1418.7378" fill="none" rx="3.125" ry="3.125" style="stroke:#1A78C2;stroke-width:1.0416666666666667;"/><text fill="#FFFFFF" font-family="Verdana" font-size="11.4583" lengthAdjust="spacing" textLength="58.3333" x="626.5625" y="1421.1421">Velocidad</text><line style="stroke:#2196F3;stroke-width:1.0416666666666667;" x1="597.3958" x2="700.5208" y1="1438.4277" y2="1438.4277"/></g><!--class factura--><g id="elem_factura"><rect codeLine="58" fill="url(#g1r2fyjulz4sr41)" filter="url(#f1r2fyjulz4sr4)" height="95.4264" id="factura" rx="4.1667" ry="4.1667" style="stroke:#2196F3;stroke-width:1.0416666666666667;" width="150" x="735.4167" y="1106.0221"/><rect fill="url(#g1r2fyjulz4sr42)" height="44.5882" rx="4.1667" ry="4.1667" style="stroke:url(#g1r2fyjulz4sr42);stroke-width:1.0416666666666667;" width="150" x="735.4167" y="1106.0221"/><rect fill="url(#g1r2fyjulz4sr42)" height="4.1667" style="stroke:url(#g1r2fyjulz4sr42);stroke-width:1.0416666666666667;" width="150" x="735.4167" y="1146.4437"/><rect codeLine="58" fill="none" height="95.4264" id="factura" rx="4.1667" ry="4.1667" style="stroke:#2196F3;stroke-width:1.0416666666666667;" width="150" x="735.4167" y="1106.0221"/><ellipse cx="774.8438" cy="1128.3162" fill="none" rx="10.4167" ry="10.4167" style="stroke:#1A78C2;stroke-width:1.0416666666666667;"/><path d="M774.1439,1128.9185 L775.2018,1128.9185 L775.2018,1129.0161 C775.2018,1129.3091 775.2344,1129.423 775.2995,1129.5369 C775.4134,1129.7323 775.625,1129.8299 775.8366,1129.8299 C776.0156,1129.8299 776.2109,1129.7323 776.3249,1129.5695 C776.4225,1129.4556 776.4388,1129.3416 776.4388,1129.0161 L776.4388,1127.6001 C776.4388,1127.4862 776.4388,1127.4536 776.4388,1127.3397 C776.3737,1126.9816 776.1621,1126.77 775.8203,1126.77 C775.625,1126.77 775.446,1126.8677 775.3158,1127.0304 C775.2344,1127.1444 775.2018,1127.2583 775.2018,1127.6001 L775.2018,1127.6815 L774.1439,1127.6815 L774.1439,1125.9237 L777.0736,1125.9237 L777.0736,1126.5422 C777.0736,1126.8514 777.0898,1126.9816 777.1549,1127.0793 C777.2852,1127.2746 777.4805,1127.3885 777.6921,1127.3885 C777.8874,1127.3885 778.0827,1127.2909 778.2129,1127.1281 C778.2943,1126.9979 778.3268,1126.9002 778.3268,1126.5422 L778.3268,1124.6704 L772.7116,1124.6704 C772.3861,1124.6704 772.2884,1124.6867 772.1745,1124.7681 C771.9954,1124.882 771.8815,1125.0936 771.8815,1125.3052 C771.8815,1125.5005 771.9792,1125.6795 772.1419,1125.8097 C772.2559,1125.9074 772.3861,1125.9237 772.7116,1125.9237 L772.8906,1125.9237 L772.8906,1130.7088 L772.7116,1130.7088 C772.4023,1130.7088 772.2884,1130.7251 772.1745,1130.8065 C771.9954,1130.9204 771.8815,1131.132 771.8815,1131.3436 C771.8815,1131.5389 771.9792,1131.7179 772.1419,1131.8319 C772.2396,1131.9295 772.4186,1131.9621 772.7116,1131.9621 L778.5872,1131.9621 L778.5872,1130.0578 C778.5872,1129.7485 778.571,1129.6346 778.5059,1129.5207 C778.3757,1129.3416 778.1803,1129.2277 777.9688,1129.2277 C777.7734,1129.2277 777.5781,1129.3091 777.4642,1129.4881 C777.3665,1129.6183 777.3503,1129.716 777.3503,1130.0578 L777.3503,1130.7088 L774.1439,1130.7088 L774.1439,1128.9185 Z " fill="#FFFFFF"/><text fill="#FFFFFF" font-family="Verdana" font-size="11.4583" lengthAdjust="spacing" textLength="42.7083" x="804.3229" y="1132.283">Factura</text><line style="stroke:#2196F3;stroke-width:1.0416666666666667;" x1="736.4583" x2="884.375" y1="1150.6104" y2="1150.6104"/><line style="stroke:#2196F3;stroke-width:1.0416666666666667;" x1="736.4583" x2="884.375" y1="1158.9437" y2="1158.9437"/><ellipse cx="746.875" cy="1181.7586" fill="none" rx="3.125" ry="3.125" style="stroke:#1A78C2;stroke-width:1.0416666666666667;"/><text fill="#FFFFFF" font-family="Verdana" font-size="11.4583" lengthAdjust="spacing" textLength="103.125" x="765.625" y="1184.1629">ID de factura (PK)</text></g><!--class llamada--><g id="elem_llamada"><rect codeLine="62" fill="url(#g1r2fyjulz4sr41)" filter="url(#f1r2fyjulz4sr4)" height="95.4264" id="llamada" rx="4.1667" ry="4.1667" style="stroke:#2196F3;stroke-width:1.0416666666666667;" width="156.25" x="242.7083" y="1562.793"/><rect fill="url(#g1r2fyjulz4sr42)" height="44.5882" rx="4.1667" ry="4.1667" style="stroke:url(#g1r2fyjulz4sr42);stroke-width:1.0416666666666667;" width="156.25" x="242.7083" y="1562.793"/><rect fill="url(#g1r2fyjulz4sr42)" height="4.1667" style="stroke:url(#g1r2fyjulz4sr42);stroke-width:1.0416666666666667;" width="156.25" x="242.7083" y="1603.2145"/><rect codeLine="62" fill="none" height="95.4264" id="llamada" rx="4.1667" ry="4.1667" style="stroke:#2196F3;stroke-width:1.0416666666666667;" width="156.25" x="242.7083" y="1562.793"/><ellipse cx="281.6667" cy="1585.0871" fill="none" rx="10.4167" ry="10.4167" style="stroke:#1A78C2;stroke-width:1.0416666666666667;"/><path d="M280.9668,1585.6893 L282.0247,1585.6893 L282.0247,1585.7869 C282.0247,1586.0799 282.0573,1586.1938 282.1224,1586.3078 C282.2363,1586.5031 282.4479,1586.6007 282.6595,1586.6007 C282.8385,1586.6007 283.0339,1586.5031 283.1478,1586.3403 C283.2454,1586.2264 283.2617,1586.1125 283.2617,1585.7869 L283.2617,1584.3709 C283.2617,1584.257 283.2617,1584.2244 283.2617,1584.1105 C283.1966,1583.7524 282.985,1583.5409 282.6432,1583.5409 C282.4479,1583.5409 282.2689,1583.6385 282.1387,1583.8013 C282.0573,1583.9152 282.0247,1584.0291 282.0247,1584.3709 L282.0247,1584.4523 L280.9668,1584.4523 L280.9668,1582.6945 L283.8965,1582.6945 L283.8965,1583.313 C283.8965,1583.6222 283.9128,1583.7524 283.9779,1583.8501 C284.1081,1584.0454 284.3034,1584.1593 284.515,1584.1593 C284.7103,1584.1593 284.9056,1584.0617 285.0358,1583.8989 C285.1172,1583.7687 285.1497,1583.6711 285.1497,1583.313 L285.1497,1581.4412 L279.5345,1581.4412 C279.209,1581.4412 279.1113,1581.4575 278.9974,1581.5389 C278.8184,1581.6528 278.7044,1581.8644 278.7044,1582.076 C278.7044,1582.2713 278.8021,1582.4504 278.9648,1582.5806 C279.0788,1582.6782 279.209,1582.6945 279.5345,1582.6945 L279.7135,1582.6945 L279.7135,1587.4797 L279.5345,1587.4797 C279.2253,1587.4797 279.1113,1587.4959 278.9974,1587.5773 C278.8184,1587.6912 278.7044,1587.9028 278.7044,1588.1144 C278.7044,1588.3097 278.8021,1588.4888 278.9648,1588.6027 C279.0625,1588.7004 279.2415,1588.7329 279.5345,1588.7329 L285.4102,1588.7329 L285.4102,1586.8286 C285.4102,1586.5194 285.3939,1586.4054 285.3288,1586.2915 C285.1986,1586.1125 285.0033,1585.9985 284.7917,1585.9985 C284.5964,1585.9985 284.401,1586.0799 284.2871,1586.259 C284.1895,1586.3892 284.1732,1586.4868 284.1732,1586.8286 L284.1732,1587.4797 L280.9668,1587.4797 L280.9668,1585.6893 Z " fill="#FFFFFF"/><text fill="#FFFFFF" font-family="Verdana" font-size="11.4583" lengthAdjust="spacing" textLength="50" x="311.0417" y="1589.0539">Llamada</text><line style="stroke:#2196F3;stroke-width:1.0416666666666667;" x1="243.75" x2="397.9167" y1="1607.3812" y2="1607.3812"/><line style="stroke:#2196F3;stroke-width:1.0416666666666667;" x1="243.75" x2="397.9167" y1="1615.7145" y2="1615.7145"/><ellipse cx="254.1667" cy="1638.5295" fill="none" rx="3.125" ry="3.125" style="stroke:#1A78C2;stroke-width:1.0416666666666667;"/><text fill="#FFFFFF" font-family="Verdana" font-size="11.4583" lengthAdjust="spacing" textLength="109.375" x="272.9167" y="1640.9337">ID de llamada (PK)</text></g><!--class sms--><g id="elem_sms"><rect codeLine="66" fill="url(#g1r2fyjulz4sr41)" filter="url(#f1r2fyjulz4sr4)" height="95.4264" id="sms" rx="4.1667" ry="4.1667" style="stroke:#2196F3;stroke-width:1.0416666666666667;" width="135.4167" x="483.3333" y="1562.793"/><rect fill="url(#g1r2fyjulz4sr42)" height="44.5882" rx="4.1667" ry="4.1667" style="stroke:url(#g1r2fyjulz4sr42);stroke-width:1.0416666666666667;" width="135.4167" x="483.3333" y="1562.793"/><rect fill="url(#g1r2fyjulz4sr42)" height="4.1667" style="stroke:url(#g1r2fyjulz4sr42);stroke-width:1.0416666666666667;" width="135.4167" x="483.3333" y="1603.2145"/><rect codeLine="66" fill="none" height="95.4264" id="sms" rx="4.1667" ry="4.1667" style="stroke:#2196F3;stroke-width:1.0416666666666667;" width="135.4167" x="483.3333" y="1562.793"/><ellipse cx="523.6979" cy="1585.0871" fill="none" rx="10.4167" ry="10.4167" style="stroke:#1A78C2;stroke-width:1.0416666666666667;"/><path d="M522.998,1585.6893 L524.056,1585.6893 L524.056,1585.7869 C524.056,1586.0799 524.0885,1586.1938 524.1536,1586.3078 C524.2676,1586.5031 524.4792,1586.6007 524.6908,1586.6007 C524.8698,1586.6007 525.0651,1586.5031 525.179,1586.3403 C525.2767,1586.2264 525.293,1586.1125 525.293,1585.7869 L525.293,1584.3709 C525.293,1584.257 525.293,1584.2244 525.293,1584.1105 C525.2279,1583.7524 525.0163,1583.5409 524.6745,1583.5409 C524.4792,1583.5409 524.3001,1583.6385 524.1699,1583.8013 C524.0885,1583.9152 524.056,1584.0291 524.056,1584.3709 L524.056,1584.4523 L522.998,1584.4523 L522.998,1582.6945 L525.9277,1582.6945 L525.9277,1583.313 C525.9277,1583.6222 525.944,1583.7524 526.0091,1583.8501 C526.1393,1584.0454 526.3346,1584.1593 526.5462,1584.1593 C526.7415,1584.1593 526.9368,1584.0617 527.0671,1583.8989 C527.1484,1583.7687 527.181,1583.6711 527.181,1583.313 L527.181,1581.4412 L521.5658,1581.4412 C521.2402,1581.4412 521.1426,1581.4575 521.0286,1581.5389 C520.8496,1581.6528 520.7357,1581.8644 520.7357,1582.076 C520.7357,1582.2713 520.8333,1582.4504 520.9961,1582.5806 C521.11,1582.6782 521.2402,1582.6945 521.5658,1582.6945 L521.7448,1582.6945 L521.7448,1587.4797 L521.5658,1587.4797 C521.2565,1587.4797 521.1426,1587.4959 521.0286,1587.5773 C520.8496,1587.6912 520.7357,1587.9028 520.7357,1588.1144 C520.7357,1588.3097 520.8333,1588.4888 520.9961,1588.6027 C521.0938,1588.7004 521.2728,1588.7329 521.5658,1588.7329 L527.4414,1588.7329 L527.4414,1586.8286 C527.4414,1586.5194 527.4251,1586.4054 527.36,1586.2915 C527.2298,1586.1125 527.0345,1585.9985 526.8229,1585.9985 C526.6276,1585.9985 526.4323,1586.0799 526.3184,1586.259 C526.2207,1586.3892 526.2044,1586.4868 526.2044,1586.8286 L526.2044,1587.4797 L522.998,1587.4797 L522.998,1585.6893 Z " fill="#FFFFFF"/><text fill="#FFFFFF" font-family="Verdana" font-size="11.4583" lengthAdjust="spacing" textLength="26.0417" x="553.3854" y="1589.0539">SMS</text><line style="stroke:#2196F3;stroke-width:1.0416666666666667;" x1="484.375" x2="617.7083" y1="1607.3812" y2="1607.3812"/><line style="stroke:#2196F3;stroke-width:1.0416666666666667;" x1="484.375" x2="617.7083" y1="1615.7145" y2="1615.7145"/><ellipse cx="494.7917" cy="1638.5295" fill="none" rx="3.125" ry="3.125" style="stroke:#1A78C2;stroke-width:1.0416666666666667;"/><text fill="#FFFFFF" font-family="Verdana" font-size="11.4583" lengthAdjust="spacing" textLength="88.5417" x="513.5417" y="1640.9337">ID de SMS (PK)</text></g><!--class reclamacion--><g id="elem_reclamacion"><rect codeLine="70" fill="url(#g1r2fyjulz4sr41)" filter="url(#f1r2fyjulz4sr4)" height="95.4264" id="reclamacion" rx="4.1667" ry="4.1667" style="stroke:#2196F3;stroke-width:1.0416666666666667;" width="181.25" x="543.75" y="682.5846"/><rect fill="url(#g1r2fyjulz4sr42)" height="44.5882" rx="4.1667" ry="4.1667" style="stroke:url(#g1r2fyjulz4sr42);stroke-width:1.0416666666666667;" width="181.25" x="543.75" y="682.5846"/><rect fill="url(#g1r2fyjulz4sr42)" height="4.1667" style="stroke:url(#g1r2fyjulz4sr42);stroke-width:1.0416666666666667;" width="181.25" x="543.75" y="723.0062"/><rect codeLine="70" fill="none" height="95.4264" id="reclamacion" rx="4.1667" ry="4.1667" style="stroke:#2196F3;stroke-width:1.0416666666666667;" width="181.25" x="543.75" y="682.5846"/><ellipse cx="582.7083" cy="704.8787" fill="none" rx="10.4167" ry="10.4167" style="stroke:#1A78C2;stroke-width:1.0416666666666667;"/><path d="M582.0085,705.481 L583.0664,705.481 L583.0664,705.5786 C583.0664,705.8716 583.099,705.9855 583.1641,706.0994 C583.278,706.2948 583.4896,706.3924 583.7012,706.3924 C583.8802,706.3924 584.0755,706.2948 584.1895,706.132 C584.2871,706.0181 584.3034,705.9041 584.3034,705.5786 L584.3034,704.1626 C584.3034,704.0487 584.3034,704.0161 584.3034,703.9022 C584.2383,703.5441 584.0267,703.3325 583.6849,703.3325 C583.4896,703.3325 583.3105,703.4302 583.1803,703.5929 C583.099,703.7069 583.0664,703.8208 583.0664,704.1626 L583.0664,704.244 L582.0085,704.244 L582.0085,702.4862 L584.9382,702.4862 L584.9382,703.1047 C584.9382,703.4139 584.9544,703.5441 585.0195,703.6418 C585.1497,703.8371 585.3451,703.951 585.5566,703.951 C585.752,703.951 585.9473,703.8534 586.0775,703.6906 C586.1589,703.5604 586.1914,703.4627 586.1914,703.1047 L586.1914,701.2329 L580.5762,701.2329 C580.2507,701.2329 580.153,701.2492 580.0391,701.3306 C579.86,701.4445 579.7461,701.6561 579.7461,701.8677 C579.7461,702.063 579.8438,702.242 580.0065,702.3722 C580.1204,702.4699 580.2507,702.4862 580.5762,702.4862 L580.7552,702.4862 L580.7552,707.2713 L580.5762,707.2713 C580.2669,707.2713 580.153,707.2876 580.0391,707.369 C579.86,707.4829 579.7461,707.6945 579.7461,707.9061 C579.7461,708.1014 579.8438,708.2804 580.0065,708.3944 C580.1042,708.492 580.2832,708.5246 580.5762,708.5246 L586.4518,708.5246 L586.4518,706.6203 C586.4518,706.311 586.4355,706.1971 586.3704,706.0832 C586.2402,705.9041 586.0449,705.7902 585.8333,705.7902 C585.638,705.7902 585.4427,705.8716 585.3288,706.0506 C585.2311,706.1808 585.2148,706.2785 585.2148,706.6203 L585.2148,707.2713 L582.0085,707.2713 L582.0085,705.481 Z " fill="#FFFFFF"/><text fill="#FFFFFF" font-family="Verdana" font-size="11.4583" lengthAdjust="spacing" textLength="75" x="612.0833" y="708.8455">Reclamaci&#243;n</text><line style="stroke:#2196F3;stroke-width:1.0416666666666667;" x1="544.7917" x2="723.9583" y1="727.1729" y2="727.1729"/><line style="stroke:#2196F3;stroke-width:1.0416666666666667;" x1="544.7917" x2="723.9583" y1="735.5062" y2="735.5062"/><ellipse cx="555.2083" cy="758.3211" fill="none" rx="3.125" ry="3.125" style="stroke:#1A78C2;stroke-width:1.0416666666666667;"/><text fill="#FFFFFF" font-family="Verdana" font-size="11.4583" lengthAdjust="spacing" textLength="134.375" x="573.9583" y="760.7254">ID de reclamaci&#243;n (PK)</text></g><!--class Cliente--><g id="elem_Cliente"><rect fill="url(#g1r2fyjulz4sr41)" filter="url(#f1r2fyjulz4sr4)" height="61.2549" id="Cliente" rx="4.1667" ry="4.1667" style="stroke:#2196F3;stroke-width:1.0416666666666667;" width="94.7917" x="848.4375" y="699.7721"/><rect fill="url(#g1r2fyjulz4sr42)" height="44.5882" rx="4.1667" ry="4.1667" style="stroke:url(#g1r2fyjulz4sr42);stroke-width:1.0416666666666667;" width="94.7917" x="848.4375" y="699.7721"/><rect fill="url(#g1r2fyjulz4sr42)" height="4.1667" style="stroke:url(#g1r2fyjulz4sr42);stroke-width:1.0416666666666667;" width="94.7917" x="848.4375" y="740.1937"/><rect fill="none" height="61.2549" id="Cliente" rx="4.1667" ry="4.1667" style="stroke:#2196F3;stroke-width:1.0416666666666667;" width="94.7917" x="848.4375" y="699.7721"/><ellipse cx="863.0208" cy="722.0662" fill="none" rx="10.4167" ry="10.4167" style="stroke:#1A78C2;stroke-width:1.0416666666666667;"/><path d="M864.9577,718.6808 C864.2741,718.3553 863.8346,718.2576 863.1836,718.2576 C861.263,718.2576 859.7819,719.7713 859.7819,721.7733 L859.7819,722.6034 C859.7819,724.5076 861.3444,725.8911 863.4603,725.8911 C864.3555,725.8911 865.2181,725.6632 865.7552,725.2563 C866.1947,724.9634 866.4225,724.6379 866.4225,724.3449 C866.4225,724.0194 866.1296,723.7264 865.804,723.7264 C865.6413,723.7264 865.4948,723.7915 865.3483,723.9217 C865.0065,724.2798 865.0065,724.2798 864.8763,724.3449 C864.5671,724.5402 864.0625,724.6379 863.4928,724.6379 C861.9954,724.6379 861.0352,723.8241 861.0352,722.5708 L861.0352,721.7733 C861.0352,720.4549 861.9629,719.4946 863.2324,719.4946 C863.6556,719.4946 864.1113,719.6086 864.4531,719.8039 C864.8112,719.9992 864.9414,720.1619 865.0065,720.4549 C865.0553,720.7642 865.0716,720.8455 865.1693,720.9432 C865.2669,721.0571 865.446,721.1222 865.6087,721.1222 C865.8203,721.1222 865.9993,721.0246 866.1296,720.8618 C866.2109,720.7479 866.2435,720.6177 866.2435,720.2922 L866.2435,719.2505 C866.2435,718.9412 866.2272,718.8436 866.1458,718.7297 C866.0319,718.5343 865.8366,718.4204 865.6087,718.4204 C865.3971,718.4204 865.2507,718.5018 865.0879,718.7297 L864.9577,718.6808 Z " fill="#FFFFFF"/><text fill="#FFFFFF" font-family="Verdana" font-size="11.4583" lengthAdjust="spacing" textLength="42.7083" x="886.9792" y="726.033">Cliente</text><line style="stroke:#2196F3;stroke-width:1.0416666666666667;" x1="849.4792" x2="942.1875" y1="744.3604" y2="744.3604"/><line style="stroke:#2196F3;stroke-width:1.0416666666666667;" x1="849.4792" x2="942.1875" y1="752.6937" y2="752.6937"/></g><!--link usuario to cliente--><g id="link_usuario_cliente"><path codeLine="74" d="M787.2676,314.1479 C752.2498,354.95 730.3545,380.4617 701.6243,413.9305 " fill="none" id="usuario-cliente" style="stroke:#2196F3;stroke-width:3.125;"/><line style="stroke:#2196F3;stroke-width:3.125;" x1="786.8193" x2="793.143" y1="308.2725" y2="313.6997"/><line style="stroke:#2196F3;stroke-width:3.125;" x1="784.7841" x2="791.1078" y1="310.6439" y2="316.0711"/><line style="stroke:#2196F3;stroke-width:3.125;" x1="787.2676" x2="792.6948" y1="314.1479" y2="307.8242"/><line style="stroke:#2196F3;stroke-width:3.125;" x1="694.8394" x2="694.1538" y1="421.8344" y2="432.2285"/><line style="stroke:#2196F3;stroke-width:3.125;" x1="694.8394" x2="684.6691" y1="421.8344" y2="424.0866"/><line style="stroke:#2196F3;stroke-width:3.125;" x1="694.8394" x2="689.4115" y1="421.8344" y2="428.1576"/><ellipse cx="698.9103" cy="417.092" fill="none" rx="4.1667" ry="4.1667" style="stroke:#2196F3;stroke-width:3.125;"/><text fill="#222222" font-family="Verdana" font-size="12.5" lengthAdjust="spacing" textLength="18.75" x="753.125" y="383.7708">Rol</text></g><!--link usuario to ventasMarketing--><g id="link_usuario_ventasMarketing"><path codeLine="75" d="M785.4388,271.7168 C720.6221,314.4981 634.3833,372.1367 554.1667,428.418 C494.3354,470.3971 442.2838,508.5591 394.7088,543.955 " fill="none" id="usuario-ventasMarketing" style="stroke:#2196F3;stroke-width:3.125;"/><line style="stroke:#2196F3;stroke-width:3.125;" x1="786.621" x2="791.2115" y1="265.9441" y2="272.899"/><line style="stroke:#2196F3;stroke-width:3.125;" x1="784.0129" x2="788.6034" y1="267.6655" y2="274.6205"/><line style="stroke:#2196F3;stroke-width:3.125;" x1="785.4388" x2="792.3938" y1="271.7168" y2="267.1263"/><line style="stroke:#2196F3;stroke-width:3.125;" x1="386.3515" x2="383.3963" y1="550.1728" y2="560.1615"/><line style="stroke:#2196F3;stroke-width:3.125;" x1="386.3515" x2="375.9349" y1="550.1728" y2="550.1327"/><line style="stroke:#2196F3;stroke-width:3.125;" x1="386.3515" x2="379.6656" y1="550.1728" y2="555.1471"/><ellipse cx="391.3659" cy="546.4421" fill="none" rx="4.1667" ry="4.1667" style="stroke:#2196F3;stroke-width:3.125;"/><text fill="#222222" font-family="Verdana" font-size="12.5" lengthAdjust="spacing" textLength="18.75" x="659.375" y="383.7708">Rol</text></g><!--link usuario to atencionCliente--><g id="link_usuario_atencionCliente"><path codeLine="76" d="M872.9167,337.8971 C872.9167,372.7096 872.9167,381.918 872.9167,409.5638 " fill="none" id="usuario-atencionCliente" style="stroke:#2196F3;stroke-width:3.125;"/><line style="stroke:#2196F3;stroke-width:3.125;" x1="868.75" x2="877.0833" y1="333.7305" y2="333.7305"/><line style="stroke:#2196F3;stroke-width:3.125;" x1="868.75" x2="877.0833" y1="336.8555" y2="336.8555"/><line style="stroke:#2196F3;stroke-width:3.125;" x1="872.9167" x2="872.9167" y1="337.8971" y2="329.5638"/><line style="stroke:#2196F3;stroke-width:3.125;" x1="872.9167" x2="879.1667" y1="419.9805" y2="428.3138"/><line style="stroke:#2196F3;stroke-width:3.125;" x1="872.9167" x2="866.6667" y1="419.9805" y2="428.3138"/><line style="stroke:#2196F3;stroke-width:3.125;" x1="872.9167" x2="872.9167" y1="419.9805" y2="428.3138"/><ellipse cx="872.9167" cy="413.7305" fill="none" rx="4.1667" ry="4.1667" style="stroke:#2196F3;stroke-width:3.125;"/><text fill="#222222" font-family="Verdana" font-size="12.5" lengthAdjust="spacing" textLength="18.75" x="884.375" y="383.7708">Rol</text></g><!--link usuario to finanzas--><g id="link_usuario_finanzas"><path codeLine="77" d="M938.9886,337.2357 C953.5043,368.4753 963.8354,395.2826 972.9167,428.418 C1016.7229,588.2305 996.4214,769.5453 982.1912,858.8464 " fill="none" id="usuario-finanzas" style="stroke:#2196F3;stroke-width:3.125;"/><line style="stroke:#2196F3;stroke-width:3.125;" x1="933.4542" x2="941.0115" y1="335.2128" y2="331.7013"/><line style="stroke:#2196F3;stroke-width:3.125;" x1="934.771" x2="942.3284" y1="338.0468" y2="334.5353"/><line style="stroke:#2196F3;stroke-width:3.125;" x1="938.9886" x2="935.4771" y1="337.2357" y2="329.6784"/><line style="stroke:#2196F3;stroke-width:3.125;" x1="980.552" x2="985.4128" y1="869.1333" y2="878.3463"/><line style="stroke:#2196F3;stroke-width:3.125;" x1="980.552" x2="973.0685" y1="869.1333" y2="876.3792"/><line style="stroke:#2196F3;stroke-width:3.125;" x1="980.552" x2="979.2406" y1="869.1333" y2="877.3628"/><ellipse cx="981.5355" cy="862.9611" fill="none" rx="4.1667" ry="4.1667" style="stroke:#2196F3;stroke-width:3.125;"/><text fill="#222222" font-family="Verdana" font-size="12.5" lengthAdjust="spacing" textLength="18.75" x="1010.4167" y="608.2499">Rol</text></g><!--link usuario to rol--><g id="link_usuario_rol"><path codeLine="79" d="M953.3229,271.8971 C986.075,297.2513 1023.1885,328.5534 1053.125,360.7096 C1072.2396,381.2409 1080.1259,390.897 1094.3447,412.522 " fill="none" id="usuario-to-rol" style="stroke:#2196F3;stroke-width:3.125;"/><line style="stroke:#2196F3;stroke-width:3.125;" x1="1100.0675" x2="1109.8681" y1="421.2258" y2="424.7551"/><line style="stroke:#2196F3;stroke-width:3.125;" x1="1100.0675" x2="1099.4236" y1="421.2258" y2="431.6225"/><line style="stroke:#2196F3;stroke-width:3.125;" x1="1100.0675" x2="1104.6458" y1="421.2258" y2="428.1888"/><ellipse cx="1096.6338" cy="416.0035" fill="none" rx="4.1667" ry="4.1667" style="stroke:#2196F3;stroke-width:3.125;"/><text fill="#222222" font-family="Verdana" font-size="12.5" lengthAdjust="spacing" textLength="31.25" x="1094.7917" y="383.7708">tiene</text></g><!--link linea to tipoLinea--><g id="link_linea_tipoLinea"><path codeLine="80" d="M289.9813,1216.3576 C242.724,1258.1544 195.153,1300.2302 151.7384,1338.6292 " fill="none" id="linea-to-tipoLinea" style="stroke:#2196F3;stroke-width:3.125;"/><line style="stroke:#2196F3;stroke-width:3.125;" x1="143.9358" x2="141.8345" y1="1345.5304" y2="1355.7329"/><line style="stroke:#2196F3;stroke-width:3.125;" x1="143.9358" x2="133.553" y1="1345.5304" y2="1346.3697"/><line style="stroke:#2196F3;stroke-width:3.125;" x1="143.9358" x2="137.6938" y1="1345.5304" y2="1351.0513"/><ellipse cx="148.6174" cy="1341.3896" fill="none" rx="4.1667" ry="4.1667" style="stroke:#2196F3;stroke-width:3.125;"/><text fill="#222222" font-family="Verdana" font-size="12.5" lengthAdjust="spacing" textLength="31.25" x="241.6667" y="1290.0208">tiene</text></g><!--link contrato to linea--><g id="link_contrato_linea"><path codeLine="82" d="M479.4868,979.7302 C470.7764,989.7697 467.3229,994.1607 459.375,1004.4596 C442.9542,1025.7388 436.681,1034.0284 421.7101,1056.2774 " fill="none" id="contrato-linea" style="stroke:#2196F3;stroke-width:3.125;"/><line style="stroke:#2196F3;stroke-width:3.125;" x1="479.0701" x2="485.3646" y1="973.8523" y2="979.3135"/><line style="stroke:#2196F3;stroke-width:3.125;" x1="477.0222" x2="483.3167" y1="976.2128" y2="981.6739"/><line style="stroke:#2196F3;stroke-width:3.125;" x1="479.4868" x2="484.9479" y1="979.7302" y2="973.4357"/><line style="stroke:#2196F3;stroke-width:3.125;" x1="415.8949" x2="416.4281" y1="1064.9197" y2="1075.3227"/><line style="stroke:#2196F3;stroke-width:3.125;" x1="415.8949" x2="406.0573" y1="1064.9197" y2="1068.3445"/><line style="stroke:#2196F3;stroke-width:3.125;" x1="415.8949" x2="411.2427" y1="1064.9197" y2="1071.8336"/><ellipse cx="419.384" cy="1059.7343" fill="none" rx="4.1667" ry="4.1667" style="stroke:#2196F3;stroke-width:3.125;"/><text fill="#222222" font-family="Verdana" font-size="12.5" lengthAdjust="spacing" textLength="97.9167" x="470.8333" y="1027.5208">Compuesto por</text></g><!--link cliente to contrato--><g id="link_cliente_contrato"><path codeLine="84" d="M579.2469,524.3555 C531.4365,561.0951 471.9219,616.8555 444.7917,682.5846 C417.3625,749.043 447.4472,812.681 481.0024,861.8268 " fill="none" id="cliente-to-contrato" style="stroke:#2196F3;stroke-width:3.125;"/><line style="stroke:#2196F3;stroke-width:3.125;" x1="486.8761" x2="496.7366" y1="870.4295" y2="873.7875"/><line style="stroke:#2196F3;stroke-width:3.125;" x1="486.8761" x2="486.4134" y1="870.4295" y2="880.8359"/><line style="stroke:#2196F3;stroke-width:3.125;" x1="486.8761" x2="491.575" y1="870.4295" y2="877.3117"/><ellipse cx="483.3519" cy="865.2679" fill="none" rx="4.1667" ry="4.1667" style="stroke:#2196F3;stroke-width:3.125;"/><text fill="#222222" font-family="Verdana" font-size="12.5" lengthAdjust="spacing" textLength="57.2917" x="456.25" y="735.3333">Adquiere</text></g><!--link cliente to reclamacion--><g id="link_cliente_reclamacion"><path codeLine="85" d="M634.729,532.7425 C632.554,542.8675 632.3792,545.4076 631.25,555.5013 C626.4625,598.2826 626.7565,628.6221 629.0378,663.7116 " fill="none" id="cliente-reclamacion" style="stroke:#2196F3;stroke-width:3.125;"/><line style="stroke:#2196F3;stroke-width:3.125;" x1="631.5303" x2="639.6778" y1="527.7937" y2="529.5439"/><line style="stroke:#2196F3;stroke-width:3.125;" x1="630.874" x2="639.0215" y1="530.849" y2="532.5992"/><line style="stroke:#2196F3;stroke-width:3.125;" x1="634.729" x2="636.4792" y1="532.7425" y2="524.5951"/><line style="stroke:#2196F3;stroke-width:3.125;" x1="629.7135" x2="636.491" y1="674.1064" y2="682.0167"/><line style="stroke:#2196F3;stroke-width:3.125;" x1="629.7135" x2="624.0173" y1="674.1064" y2="682.8276"/><line style="stroke:#2196F3;stroke-width:3.125;" x1="629.7135" x2="630.2542" y1="674.1064" y2="682.4221"/><ellipse cx="629.3081" cy="667.8695" fill="none" rx="4.1667" ry="4.1667" style="stroke:#2196F3;stroke-width:3.125;"/><text fill="#222222" font-family="Verdana" font-size="12.5" lengthAdjust="spacing" textLength="41.6667" x="642.7083" y="608.2499">realiza</text></g><!--link reclamacion to contrato--><g id="link_reclamacion_contrato"><path codeLine="86" d="M604.3598,785.9823 C587.8338,815.9562 579.5944,830.8981 563.085,860.8429 " fill="none" id="reclamacion-contrato" style="stroke:#2196F3;stroke-width:3.125;"/><line style="stroke:#2196F3;stroke-width:3.125;" x1="602.7227" x2="610.0204" y1="780.3217" y2="784.3452"/><line style="stroke:#2196F3;stroke-width:3.125;" x1="601.2139" x2="608.5116" y1="783.0583" y2="787.0818"/><line style="stroke:#2196F3;stroke-width:3.125;" x1="604.3598" x2="608.3833" y1="785.9823" y2="778.6846"/><line style="stroke:#2196F3;stroke-width:3.125;" x1="558.0557" x2="559.5056" y1="869.9651" y2="880.2803"/><line style="stroke:#2196F3;stroke-width:3.125;" x1="558.0557" x2="548.559" y1="869.9651" y2="874.2452"/><line style="stroke:#2196F3;stroke-width:3.125;" x1="558.0557" x2="554.0323" y1="869.9651" y2="877.2628"/><ellipse cx="561.0733" cy="864.4918" fill="none" rx="4.1667" ry="4.1667" style="stroke:#2196F3;stroke-width:3.125;"/><text fill="#222222" font-family="Verdana" font-size="12.5" lengthAdjust="spacing" textLength="37.5" x="603.125" y="832.7291">sobre</text></g><!--link movil to llamada--><g id="link_movil_llamada"><path codeLine="88" d="M422.5177,1470.5491 C414.6698,1480.945 411.6781,1484.9701 404.1667,1495.0846 C387.7417,1517.2023 380.7371,1526.7136 365.6798,1547.4997 " fill="none" id="movil-llamada" style="stroke:#2196F3;stroke-width:3.125;"/><line style="stroke:#2196F3;stroke-width:3.125;" x1="421.7026" x2="428.3536" y1="1464.7132" y2="1469.7341"/><line style="stroke:#2196F3;stroke-width:3.125;" x1="419.8198" x2="426.4708" y1="1467.2073" y2="1472.2282"/><line style="stroke:#2196F3;stroke-width:3.125;" x1="422.5177" x2="427.5385" y1="1470.5491" y2="1463.8982"/><line style="stroke:#2196F3;stroke-width:3.125;" x1="359.5689" x2="359.7417" y1="1555.9355" y2="1566.3508"/><line style="stroke:#2196F3;stroke-width:3.125;" x1="359.5689" x2="349.6187" y1="1555.9355" y2="1559.0177"/><line style="stroke:#2196F3;stroke-width:3.125;" x1="359.5689" x2="354.6802" y1="1555.9355" y2="1562.6842"/><ellipse cx="363.2355" cy="1550.874" fill="none" rx="4.1667" ry="4.1667" style="stroke:#2196F3;stroke-width:3.125;"/><text fill="#222222" font-family="Verdana" font-size="12.5" lengthAdjust="spacing" textLength="75" x="415.625" y="1518.1458">Pertenece a</text></g><!--link movil to sms--><g id="link_movil_sms"><path codeLine="89" d="M502.0526,1471.8428 C505.8088,1482.2262 506.8125,1485.0326 510.4167,1495.0846 C518.3604,1517.2367 520.8368,1524.1531 528.1618,1544.8571 " fill="none" id="movil-sms" style="stroke:#2196F3;stroke-width:3.125;"/><line style="stroke:#2196F3;stroke-width:3.125;" x1="496.717" x2="504.5533" y1="1469.3421" y2="1466.5072"/><line style="stroke:#2196F3;stroke-width:3.125;" x1="497.78" x2="505.6164" y1="1472.2807" y2="1469.4459"/><line style="stroke:#2196F3;stroke-width:3.125;" x1="502.0526" x2="499.2177" y1="1471.8428" y2="1464.0065"/><line style="stroke:#2196F3;stroke-width:3.125;" x1="531.6361" x2="540.3077" y1="1554.6772" y2="1560.4488"/><line style="stroke:#2196F3;stroke-width:3.125;" x1="531.6361" x2="528.5235" y1="1554.6772" y2="1564.618"/><line style="stroke:#2196F3;stroke-width:3.125;" x1="531.6361" x2="534.4156" y1="1554.6772" y2="1562.5334"/><ellipse cx="529.5515" cy="1548.7851" fill="none" rx="4.1667" ry="4.1667" style="stroke:#2196F3;stroke-width:3.125;"/><text fill="#222222" font-family="Verdana" font-size="12.5" lengthAdjust="spacing" textLength="75" x="534.375" y="1518.1458">Pertenece a</text></g><!--link fijo to llamada--><g id="link_fijo_llamada"><path codeLine="91" d="M262.8367,1455.7058 C260.1679,1481.1412 260.5594,1504.493 268.75,1531.543 C272.0094,1542.3086 267.5227,1536.9446 273.506,1546.7411 " fill="none" id="fijo-llamada" style="stroke:#2196F3;stroke-width:3.125;"/><line style="stroke:#2196F3;stroke-width:3.125;" x1="259.1275" x2="267.4154" y1="1451.1271" y2="1451.9967"/><line style="stroke:#2196F3;stroke-width:3.125;" x1="258.8014" x2="267.0893" y1="1454.235" y2="1455.1046"/><line style="stroke:#2196F3;stroke-width:3.125;" x1="262.8367" x2="263.7063" y1="1455.7058" y2="1447.418"/><line style="stroke:#2196F3;stroke-width:3.125;" x1="278.9355" x2="288.613" y1="1555.6308" y2="1559.4848"/><line style="stroke:#2196F3;stroke-width:3.125;" x1="278.9355" x2="277.9453" y1="1555.6308" y2="1566.0003"/><line style="stroke:#2196F3;stroke-width:3.125;" x1="278.9355" x2="283.2792" y1="1555.6308" y2="1562.7426"/><ellipse cx="275.6778" cy="1550.2969" fill="none" rx="4.1667" ry="4.1667" style="stroke:#2196F3;stroke-width:3.125;"/><text fill="#222222" font-family="Verdana" font-size="12.5" lengthAdjust="spacing" textLength="75" x="280.2083" y="1518.1458">Pertenece a</text></g><!--link ventasMarketing to linea--><g id="link_ventasMarketing_linea"><path codeLine="93" d="M320.3448,651.694 C327.6385,745.3607 342.5558,936.9089 351.6058,1053.1277 " fill="none" id="ventasMarketing-to-linea" style="stroke:#2196F3;stroke-width:3.125;"/><line style="stroke:#2196F3;stroke-width:3.125;" x1="352.4145" x2="359.2926" y1="1063.5129" y2="1071.3359"/><line style="stroke:#2196F3;stroke-width:3.125;" x1="352.4145" x2="346.8303" y1="1063.5129" y2="1072.3063"/><line style="stroke:#2196F3;stroke-width:3.125;" x1="352.4145" x2="353.0615" y1="1063.5129" y2="1071.8211"/><ellipse cx="351.9293" cy="1057.2818" fill="none" rx="4.1667" ry="4.1667" style="stroke:#2196F3;stroke-width:3.125;"/><text fill="#222222" font-family="Verdana" font-size="12.5" lengthAdjust="spacing" textLength="65.625" x="346.875" y="832.7291">Administra</text></g><!--link atencionCliente to Cliente--><g id="link_atencionCliente_Cliente"><path codeLine="94" d="M877.2,524.4909 C881.8635,575.793 887.4838,637.6137 891.4172,680.8835 " fill="none" id="atencionCliente-to-Cliente" style="stroke:#2196F3;stroke-width:3.125;"/><line style="stroke:#2196F3;stroke-width:3.125;" x1="892.3602" x2="899.3389" y1="691.2574" y2="698.9907"/><line style="stroke:#2196F3;stroke-width:3.125;" x1="892.3602" x2="886.8902" y1="691.2574" y2="700.1223"/><line style="stroke:#2196F3;stroke-width:3.125;" x1="892.3602" x2="893.1146" y1="691.2574" y2="699.5565"/><ellipse cx="891.7944" cy="685.0331" fill="none" rx="4.1667" ry="4.1667" style="stroke:#2196F3;stroke-width:3.125;"/><text fill="#222222" font-family="Verdana" font-size="12.5" lengthAdjust="spacing" textLength="65.625" x="900" y="608.2499">Administra</text></g><!--link atencionCliente to reclamacion--><g id="link_atencionCliente_reclamacion"><path codeLine="95" d="M828.3281,524.4909 C785.5813,569.668 734.305,623.8562 691.6321,668.952 " fill="none" id="atencionCliente-to-reclamacion" style="stroke:#2196F3;stroke-width:3.125;"/><line style="stroke:#2196F3;stroke-width:3.125;" x1="684.4725" x2="683.2845" y1="676.5182" y2="686.8669"/><line style="stroke:#2196F3;stroke-width:3.125;" x1="684.4725" x2="674.2051" y1="676.5182" y2="678.2753"/><line style="stroke:#2196F3;stroke-width:3.125;" x1="684.4725" x2="678.7448" y1="676.5182" y2="682.5711"/><ellipse cx="688.7683" cy="671.9785" fill="none" rx="4.1667" ry="4.1667" style="stroke:#2196F3;stroke-width:3.125;"/><text fill="#222222" font-family="Verdana" font-size="12.5" lengthAdjust="spacing" textLength="47.9167" x="807.2917" y="608.2499">Atiende</text></g><!--link finanzas to factura--><g id="link_finanzas_factura"><path codeLine="96" d="M894.5563,956.3503 C873.0833,968.2888 851.7292,984.1273 837.5,1004.4596 C816.8469,1033.9701 811.3978,1055.8708 810.0093,1087.1635 " fill="none" id="finanzas-to-factura" style="stroke:#2196F3;stroke-width:3.125;"/><line style="stroke:#2196F3;stroke-width:3.125;" x1="809.5475" x2="815.422" y1="1097.5699" y2="1106.1721"/><line style="stroke:#2196F3;stroke-width:3.125;" x1="809.5475" x2="802.9343" y1="1097.5699" y2="1105.618"/><line style="stroke:#2196F3;stroke-width:3.125;" x1="809.5475" x2="809.1781" y1="1097.5699" y2="1105.8951"/><ellipse cx="809.8246" cy="1091.3261" fill="none" rx="4.1667" ry="4.1667" style="stroke:#2196F3;stroke-width:3.125;"/><text fill="#222222" font-family="Verdana" font-size="12.5" lengthAdjust="spacing" textLength="65.625" x="848.9583" y="1027.5208">Administra</text></g><!--link finanzas to factura--><g id="link_finanzas_factura"><path codeLine="97" d="M959.7094,973.2836 C953.2229,994.9909 943.624,1020.4378 930.2083,1040.918 C914.4531,1064.9711 906.5242,1075.0478 885.6961,1093.4811 " fill="none" id="finanzas-to-factura-1" style="stroke:#2196F3;stroke-width:3.125;"/><line style="stroke:#2196F3;stroke-width:3.125;" x1="877.8956" x2="875.7974" y1="1100.3847" y2="1110.5878"/><line style="stroke:#2196F3;stroke-width:3.125;" x1="877.8956" x2="867.5131" y1="1100.3847" y2="1101.2273"/><line style="stroke:#2196F3;stroke-width:3.125;" x1="877.8956" x2="871.6552" y1="1100.3847" y2="1105.9076"/><ellipse cx="882.5759" cy="1096.2425" fill="none" rx="4.1667" ry="4.1667" style="stroke:#2196F3;stroke-width:3.125;"/><text fill="#222222" font-family="Verdana" font-size="12.5" lengthAdjust="spacing" textLength="32.2917" x="960.4167" y="1027.5208">Env&#237;a</text></g><!--link factura to cliente--><g id="link_factura_cliente"><path codeLine="98" d="M806.501,1105.9763 C798.7646,1020.7628 779.0375,835.2659 742.7083,682.5846 C728.9156,624.6169 725.9958,609.1159 700,555.5013 C694.9813,545.1471 698.8424,550.3797 692.558,540.4422 " fill="none" id="factura-to-cliente" style="stroke:#2196F3;stroke-width:3.125;"/><line style="stroke:#2196F3;stroke-width:3.125;" x1="686.9905" x2="677.2541" y1="531.6382" y2="527.9356"/><line style="stroke:#2196F3;stroke-width:3.125;" x1="686.9905" x2="687.8188" y1="531.6382" y2="521.2545"/><line style="stroke:#2196F3;stroke-width:3.125;" x1="686.9905" x2="682.5365" y1="531.6382" y2="524.5951"/><ellipse cx="690.331" cy="536.9206" fill="none" rx="4.1667" ry="4.1667" style="stroke:#2196F3;stroke-width:3.125;"/><text fill="#222222" font-family="Verdana" font-size="12.5" lengthAdjust="spacing" textLength="8.3333" x="786.4583" y="832.7291">A</text></g><!--link contrato to factura--><g id="link_contrato_factura"><path codeLine="99" d="M581.5056,979.1397 C603.7869,1000.5042 625.0969,1019.8773 651.0417,1040.918 C678.8823,1063.4961 695.5401,1075.954 723.6099,1095.2488 " fill="none" id="contrato-factura" style="stroke:#2196F3;stroke-width:3.125;"/><line style="stroke:#2196F3;stroke-width:3.125;" x1="575.6144" x2="581.3819" y1="979.2634" y2="973.2484"/><line style="stroke:#2196F3;stroke-width:3.125;" x1="577.87" x2="583.6375" y1="981.4262" y2="975.4112"/><line style="stroke:#2196F3;stroke-width:3.125;" x1="581.5056" x2="575.4906" y1="979.1397" y2="973.3721"/><line style="stroke:#2196F3;stroke-width:3.125;" x1="732.1941" x2="742.6019" y1="1101.1495" y2="1100.7195"/><line style="stroke:#2196F3;stroke-width:3.125;" x1="732.1941" x2="735.5211" y1="1101.1495" y2="1111.0206"/><line style="stroke:#2196F3;stroke-width:3.125;" x1="732.1941" x2="739.0615" y1="1101.1495" y2="1105.8701"/><ellipse cx="727.0435" cy="1097.6091" fill="none" rx="4.1667" ry="4.1667" style="stroke:#2196F3;stroke-width:3.125;"/><text fill="#222222" font-family="Verdana" font-size="12.5" lengthAdjust="spacing" textLength="79.1667" x="662.5" y="1027.5208">Depende de</text></g><!--link linea to fijo--><g id="link_linea_fijo"><path codeLine="101" d="M327.4177,1243.8135 C313.6469,1282.0937 306.8616,1300.9551 295.1178,1333.5999 " fill="none" id="linea-fijo" style="stroke:#2196F3;stroke-width:3.125;"/><line style="stroke:#2196F3;stroke-width:3.125;" x1="324.9074" x2="332.7488" y1="1238.4824" y2="1241.3032"/><line style="stroke:#2196F3;stroke-width:3.125;" x1="323.8496" x2="331.691" y1="1241.4229" y2="1244.2438"/><line style="stroke:#2196F3;stroke-width:3.125;" x1="327.4177" x2="330.2385" y1="1243.8135" y2="1235.9721"/><line style="stroke:#2196F3;stroke-width:3.125;" x1="291.5917" x2="294.6519" y1="1343.4016" y2="1353.3586"/><line style="stroke:#2196F3;stroke-width:3.125;" x1="291.5917" x2="282.8898" y1="1343.4016" y2="1349.1273"/><line style="stroke:#2196F3;stroke-width:3.125;" x1="291.5917" x2="288.7708" y1="1343.4016" y2="1351.243"/><ellipse cx="293.7074" cy="1337.5206" fill="none" rx="4.1667" ry="4.1667" style="stroke:#2196F3;stroke-width:3.125;"/><text fill="#222222" font-family="Verdana" font-size="12.5" lengthAdjust="spacing" textLength="27.0833" x="330.2083" y="1290.0208">Tipo</text></g><!--link linea to movil--><g id="link_linea_movil"><path codeLine="102" d="M401.827,1243.4858 C417.2062,1275.5472 422.9114,1287.4447 437.3655,1317.577 " fill="none" id="linea-movil" style="stroke:#2196F3;stroke-width:3.125;"/><line style="stroke:#2196F3;stroke-width:3.125;" x1="396.2682" x2="403.7818" y1="1241.531" y2="1237.9269"/><line style="stroke:#2196F3;stroke-width:3.125;" x1="397.6197" x2="405.1333" y1="1244.3486" y2="1240.7445"/><line style="stroke:#2196F3;stroke-width:3.125;" x1="401.827" x2="398.2229" y1="1243.4858" y2="1235.9721"/><line style="stroke:#2196F3;stroke-width:3.125;" x1="441.8708" x2="451.1102" y1="1326.969" y2="1331.7794"/><line style="stroke:#2196F3;stroke-width:3.125;" x1="441.8708" x2="439.8398" y1="1326.969" y2="1337.1857"/><line style="stroke:#2196F3;stroke-width:3.125;" x1="441.8708" x2="445.475" y1="1326.969" y2="1334.4826"/><ellipse cx="439.1676" cy="1321.3338" fill="none" rx="4.1667" ry="4.1667" style="stroke:#2196F3;stroke-width:3.125;"/><text fill="#222222" font-family="Verdana" font-size="12.5" lengthAdjust="spacing" textLength="27.0833" x="440.625" y="1290.0208">Tipo</text></g><!--link linea to fibra--><g id="link_linea_fibra"><path codeLine="103" d="M435.454,1216.1161 C478.7571,1251.2015 528.9021,1292.4086 578.125,1334.668 C584.2667,1339.9409 576.6071,1333.1025 582.9176,1338.6827 " fill="none" id="linea-fibra" style="stroke:#2196F3;stroke-width:3.125;"/><line style="stroke:#2196F3;stroke-width:3.125;" x1="429.5935" x2="434.8396" y1="1216.7305" y2="1210.2557"/><line style="stroke:#2196F3;stroke-width:3.125;" x1="432.0216" x2="437.2677" y1="1218.6978" y2="1212.223"/><line style="stroke:#2196F3;stroke-width:3.125;" x1="435.454" x2="428.9792" y1="1216.1161" y2="1210.8701"/><line style="stroke:#2196F3;stroke-width:3.125;" x1="590.7209" x2="601.1038" y1="1345.5831" y2="1346.4214"/><line style="stroke:#2196F3;stroke-width:3.125;" x1="590.7209" x2="592.8233" y1="1345.5831" y2="1355.7854"/><line style="stroke:#2196F3;stroke-width:3.125;" x1="590.7209" x2="596.9635" y1="1345.5831" y2="1351.1034"/><ellipse cx="586.0389" cy="1341.4429" fill="none" rx="4.1667" ry="4.1667" style="stroke:#2196F3;stroke-width:3.125;"/><text fill="#222222" font-family="Verdana" font-size="12.5" lengthAdjust="spacing" textLength="27.0833" x="548.9583" y="1290.0208">Tipo</text></g><!--SRC=[bLJDRjim3BxhARIUDWnz0T-2P0M6DKMmRhshDhifaoLFbWFqPm-qGq-zxUeN6qL9ZkIaNNUZ-94KzV6Zd7GA-Deqe0nV6br3vmQXU0Dy9PpfsHlt7LhWhN1WfM2WdNIt_EHhFmWhpGaNFH-2pUyPv-_vnvLFJhwtcq_lo7rXsciB6PHvoLnqe9HiWl-pKUmNcsvRAeacq6rri9-_BSkxGWDJRh5z-mESrD-en8xSw-HxLQc50rtByKbpPAVE-X446BtyZxxEf1RwJlHKu2OUNfM9n52IDIh6Nmbbx44SZj9P762WB1wA6oRdFFLyVDGWA559j8eiHU1-h5za5oQsiO0iv7Kyv5EoUWvTvrdDuxsVoQs9p6nJpnVZdnOirNEWnjytHXUNhSUddGpKj0Qjbz8yWFpqGqj0Gpelxh-s8ZQ0LkeLDwIMZMYAK56x8GK7kw0h-GuuLg8LJIGvs2NDqJVFkrnVKaxVbd91_w5KeFPLIBH1CybXT95iiy2fIXBWmyFfgRcVjgwYrPo1ytqw6ZJVawD1qou4T889z9glK4EWWGLbadilgWIoITknh8hmqhJT03q2dR4O5bi9Bqmv5LyqFmS9-2-bW5Wc9x32ar3oJh3SczYAjIhU6_-_iQ39r4qSRiKtO94Lg86BCiJFjuGPBSEB5TXy3lkt-pUrKiiUssBpIL1OFFmxC7ik1dl26s3JtC8KW-gBMiz4VD2xyH7Hk2UvrZ3zO90fhk8hwFpDg5yMnJ19QEjdI1zJ0GI2Zo5XpGFo5m00]--></g></svg>