<?xml version="1.0" encoding="us-ascii" standalone="no"?><svg xmlns="http://www.w3.org/2000/svg" xmlns:xlink="http://www.w3.org/1999/xlink" contentStyleType="text/css" height="1555.2083px" preserveAspectRatio="none" style="width:519px;height:1555px;" version="1.1" viewBox="0 0 519 1555" width="519.7917px" zoomAndPan="magnify"><defs><linearGradient id="g19am9382buq0c0" x1="50%" x2="50%" y1="0%" y2="100%"><stop offset="0%" stop-color="#FFFFFF"/><stop offset="100%" stop-color="#FFFFFF"/></linearGradient><filter height="300%" id="f19am9382buq0c" width="300%" x="-1" y="-1"><feGaussianBlur result="blurOut" stdDeviation="2.0833333333333335"/><feColorMatrix in="blurOut" result="blurOut2" type="matrix" values="0 0 0 0 0 0 0 0 0 0 0 0 0 0 0 0 0 0 .4 0"/><feOffset dx="4.166666666666667" dy="4.166666666666667" in="blurOut2" result="blurOut3"/><feBlend in="SourceGraphic" in2="blurOut3" mode="normal"/></filter><linearGradient id="g19am9382buq0c1" x1="50%" x2="50%" y1="0%" y2="100%"><stop offset="0%" stop-color="#4DABF5"/><stop offset="100%" stop-color="#2196F3"/></linearGradient></defs><g><!--cluster Front Office System--><g id="cluster_Front Office System"><rect fill="url(#g19am9382buq0c0)" filter="url(#f19am9382buq0c)" height="1519.7917" rx="4.1667" ry="4.1667" style="stroke:#2196F3;stroke-width:2.0833333333333335;" width="386.4583" x="115.625" y="17.7083"/><text fill="#2196F3" font-family="Verdana" font-size="12.5" font-weight="bold" lengthAdjust="spacing" textLength="153.125" x="232.2917" y="41.8111">Front Office System</text></g><g id="elem_Registro de Usuario"><ellipse cx="308.8336" cy="100.0203" fill="url(#g19am9382buq0c1)" filter="url(#f19am9382buq0c)" rx="115.0836" ry="28.1453" style="stroke:#2196F3;stroke-width:2.0833333333333335;"/><text fill="#FFFFFF" font-family="Verdana" font-size="12.5" lengthAdjust="spacing" textLength="125" x="246.3336" y="102.2644">Registro de Usuario</text></g><g id="elem_Activaci&#243;n de usuario"><ellipse cx="308.6919" cy="192.7287" fill="url(#g19am9382buq0c1)" filter="url(#f19am9382buq0c)" rx="121.7127" ry="28.1453" style="stroke:#2196F3;stroke-width:2.0833333333333335;"/><text fill="#FFFFFF" font-family="Verdana" font-size="12.5" lengthAdjust="spacing" textLength="134.375" x="241.5044" y="194.9727">Activaci&#243;n de usuario</text></g><g id="elem_Adquirir un nuevo contrato"><ellipse cx="309.032" cy="287.6397" fill="url(#g19am9382buq0c1)" filter="url(#f19am9382buq0c)" rx="136.6361" ry="29.8272" style="stroke:#2196F3;stroke-width:2.0833333333333335;"/><text fill="#FFFFFF" font-family="Verdana" font-size="12.5" lengthAdjust="spacing" textLength="166.6667" x="225.6986" y="289.8838">Adquirir un nuevo contrato</text></g><g id="elem_Adquirir una nueva l&#237;nea de cliente"><ellipse cx="308.8638" cy="387.3978" fill="url(#g19am9382buq0c1)" filter="url(#f19am9382buq0c)" rx="156.2597" ry="33.7519" style="stroke:#2196F3;stroke-width:2.0833333333333335;"/><text fill="#FFFFFF" font-family="Verdana" font-size="12.5" lengthAdjust="spacing" textLength="216.6667" x="200.5305" y="389.6418">Adquirir una nueva l&#237;nea de cliente</text></g><g id="elem_Gestionar mis contratos"><ellipse cx="308.6392" cy="486.4153" fill="url(#g19am9382buq0c1)" filter="url(#f19am9382buq0c)" rx="130.5142" ry="28.6028" style="stroke:#2196F3;stroke-width:2.0833333333333335;"/><text fill="#FFFFFF" font-family="Verdana" font-size="12.5" lengthAdjust="spacing" textLength="150" x="233.6392" y="488.6594">Gestionar mis contratos</text></g><g id="elem_Gestionar mis l&#237;neas de cliente"><ellipse cx="309.0379" cy="583.4743" fill="url(#g19am9382buq0c1)" filter="url(#f19am9382buq0c)" rx="147.0588" ry="31.9118" style="stroke:#2196F3;stroke-width:2.0833333333333335;"/><text fill="#FFFFFF" font-family="Verdana" font-size="12.5" lengthAdjust="spacing" textLength="193.75" x="212.1629" y="585.7183">Gestionar mis l&#237;neas de cliente</text></g><g id="elem_Consultar volumen mensual de llamadas"><ellipse cx="309.0473" cy="688.7886" fill="url(#g19am9382buq0c1)" filter="url(#f19am9382buq0c)" rx="171.0264" ry="36.7053" style="stroke:#2196F3;stroke-width:2.0833333333333335;"/><text fill="#FFFFFF" font-family="Verdana" font-size="12.5" lengthAdjust="spacing" textLength="252.0833" x="183.0056" y="691.0327">Consultar volumen mensual de llamadas</text></g><g id="elem_Consultar desglose de llamadas"><ellipse cx="308.7012" cy="794.5527" fill="url(#g19am9382buq0c1)" filter="url(#f19am9382buq0c)" rx="150.3679" ry="32.5736" style="stroke:#2196F3;stroke-width:2.0833333333333335;"/><text fill="#FFFFFF" font-family="Verdana" font-size="12.5" lengthAdjust="spacing" textLength="202.0833" x="207.6596" y="796.7968">Consultar desglose de llamadas</text></g><g id="elem_Consultar desglose de consumo de datos"><ellipse cx="308.6616" cy="901.8365" fill="url(#g19am9382buq0c1)" filter="url(#f19am9382buq0c)" rx="176.3699" ry="37.774" style="stroke:#2196F3;stroke-width:2.0833333333333335;"/><text fill="#FFFFFF" font-family="Verdana" font-size="12.5" lengthAdjust="spacing" textLength="264.5833" x="176.3699" y="904.0805">Consultar desglose de consumo de datos</text></g><g id="elem_Consultar volumen mensual de datos"><ellipse cx="309.0548" cy="1011.6026" fill="url(#g19am9382buq0c1)" filter="url(#f19am9382buq0c)" rx="162.7006" ry="35.0401" style="stroke:#2196F3;stroke-width:2.0833333333333335;"/><text fill="#FFFFFF" font-family="Verdana" font-size="12.5" lengthAdjust="spacing" textLength="232.2917" x="192.909" y="1013.8467">Consultar volumen mensual de datos</text></g><g id="elem_Consultar mis facturas"><ellipse cx="309.034" cy="1111.4787" fill="url(#g19am9382buq0c1)" filter="url(#f19am9382buq0c)" rx="124.659" ry="28.1453" style="stroke:#2196F3;stroke-width:2.0833333333333335;"/><text fill="#FFFFFF" font-family="Verdana" font-size="12.5" lengthAdjust="spacing" textLength="138.5417" x="239.7631" y="1113.7227">Consultar mis facturas</text></g><g id="elem_Descargar factura en PDF"><ellipse cx="308.9277" cy="1205.3272" fill="url(#g19am9382buq0c1)" filter="url(#f19am9382buq0c)" rx="133.9277" ry="29.2855" style="stroke:#2196F3;stroke-width:2.0833333333333335;"/><text fill="#FFFFFF" font-family="Verdana" font-size="12.5" lengthAdjust="spacing" textLength="159.375" x="229.2402" y="1207.5713">Descargar factura en PDF</text></g><g id="elem_Recibir factura por email"><ellipse cx="308.7264" cy="1300.1828" fill="url(#g19am9382buq0c1)" filter="url(#f19am9382buq0c)" rx="131.6431" ry="28.8286" style="stroke:#2196F3;stroke-width:2.0833333333333335;"/><text fill="#FFFFFF" font-family="Verdana" font-size="12.5" lengthAdjust="spacing" textLength="153.125" x="232.1639" y="1302.4268">Recibir factura por email</text></g><g id="elem_Realizar reclamaci&#243;n"><ellipse cx="308.6549" cy="1393.7703" fill="url(#g19am9382buq0c1)" filter="url(#f19am9382buq0c)" rx="118.0299" ry="28.1453" style="stroke:#2196F3;stroke-width:2.0833333333333335;"/><text fill="#FFFFFF" font-family="Verdana" font-size="12.5" lengthAdjust="spacing" textLength="129.1667" x="244.0715" y="1396.0144">Realizar reclamaci&#243;n</text></g><g id="elem_Consultar mis reclamaciones"><ellipse cx="308.9676" cy="1489.7102" fill="url(#g19am9382buq0c1)" filter="url(#f19am9382buq0c)" rx="141.7801" ry="30.856" style="stroke:#2196F3;stroke-width:2.0833333333333335;"/><text fill="#FFFFFF" font-family="Verdana" font-size="12.5" lengthAdjust="spacing" textLength="180.2083" x="218.8634" y="1491.9542">Consultar mis reclamaciones</text></g><!--entity client--><g id="elem_client"><ellipse cx="38.0208" cy="753.125" fill="url(#g19am9382buq0c1)" filter="url(#f19am9382buq0c)" rx="8.3333" ry="8.3333" style="stroke:#2196F3;stroke-width:1.0416666666666667;"/><path d="M38.0208,761.4583 L38.0208,789.5833 M24.4792,769.7917 L51.5625,769.7917 M38.0208,789.5833 L24.4792,805.2083 M38.0208,789.5833 L51.5625,805.2083 " fill="none" filter="url(#f19am9382buq0c)" style="stroke:#2196F3;stroke-width:1.0416666666666667;"/><text fill="#222222" font-family="Verdana" font-size="12.5" lengthAdjust="spacing" textLength="42.7083" x="16.6667" y="832.4361">Cliente</text></g><!--link client to Registro de Usuario--><g id="link_client_Registro de Usuario"><path d="M41.0685,743.5125 C47.2233,598.0323 67.8559,190.3125 107.2917,145.8333 C129.2656,121.0521 161.6385,108.2083 193.9906,101.9062 " fill="none" id="client-Registro de Usuario" style="stroke:#2196F3;stroke-width:3.125;"/></g><!--link client to Activaci?n de usuario--><g id="link_client_Activaci&#243;n de usuario"><path d="M38.164,743.5938 C37.0979,620.575 41.2688,313.1042 107.2917,239.5833 C128.0729,216.4375 157.8885,203.6146 188.1979,196.7604 " fill="none" id="client-Activaci&#243;n de usuario" style="stroke:#2196F3;stroke-width:3.125;"/></g><!--link client to Adquirir un nuevo contrato--><g id="link_client_Adquirir un nuevo contrato"><path d="M39.6864,743.3927 C42.0678,636.2698 53.4289,394.1875 107.2917,335.4167 C125.6708,315.3646 150.8104,302.9896 177.076,295.5104 " fill="none" id="client-Adquirir un nuevo contrato" style="stroke:#2196F3;stroke-width:3.125;"/></g><!--link client to Adquirir una nueva l?nea de cliente--><g id="link_client_Adquirir una nueva l&#237;nea de cliente"><path d="M42.2959,743.4313 C48.8568,655.8521 66.7024,482.875 107.2917,439.5833 C123.6521,422.1354 145.0427,410.2396 167.7479,402.1875 " fill="none" id="client-Adquirir una nueva l&#237;nea de cliente" style="stroke:#2196F3;stroke-width:3.125;"/></g><!--link client to Gestionar mis contratos--><g id="link_client_Gestionar mis contratos"><path d="M46.0509,743.7417 C56.3257,676.2073 77.5608,562.3125 107.2917,533.3333 C127.7729,513.3698 155.0354,501.3021 182.8406,494.1563 " fill="none" id="client-Gestionar mis contratos" style="stroke:#2196F3;stroke-width:3.125;"/></g><!--link client to Gestionar mis l?neas de cliente--><g id="link_client_Gestionar mis l&#237;neas de cliente"><path d="M48.1633,743.5854 C57.1773,707.701 74.5715,661.325 107.2917,633.3333 C127.126,616.3656 151.8802,605.0031 177.1573,597.4313 " fill="none" id="client-Gestionar mis l&#237;neas de cliente" style="stroke:#2196F3;stroke-width:3.125;"/></g><!--link client to Consultar volumen mensual de llamadas--><g id="link_client_Consultar volumen mensual de llamadas"><path d="M70.0729,767.751 C81.2223,759.1021 94.2724,750.1271 107.2917,743.75 C132.0167,731.6385 159.8031,721.8448 186.6323,714.0615 " fill="none" id="client-Consultar volumen mensual de llamadas" style="stroke:#2196F3;stroke-width:3.125;"/></g><!--link client to Consultar desglose de llamadas--><g id="link_client_Consultar desglose de llamadas"><path d="M69.8916,794.7917 C92.3651,794.7917 124.6438,794.7917 158.2052,794.7917 " fill="none" id="client-Consultar desglose de llamadas" style="stroke:#2196F3;stroke-width:3.125;"/></g><!--link client to Consultar desglose de consumo de datos--><g id="link_client_Consultar desglose de consumo de datos"><path d="M70.0905,821.7969 C81.2414,830.4427 94.2878,839.425 107.2917,845.8333 C131.2104,857.6208 157.9896,867.2854 183.9958,875.0708 " fill="none" id="client-Consultar desglose de consumo de datos" style="stroke:#2196F3;stroke-width:3.125;"/></g><!--link client to Consultar volumen mensual de datos--><g id="link_client_Consultar volumen mensual de datos"><path d="M48.0171,846.1167 C56.9782,882.4396 74.37,929.6177 107.2917,958.3333 C125.3396,974.076 147.5417,985.224 170.5229,993.1031 " fill="none" id="client-Consultar volumen mensual de datos" style="stroke:#2196F3;stroke-width:3.125;"/></g><!--link client to Consultar mis facturas--><g id="link_client_Consultar mis facturas"><path d="M45.619,845.9833 C55.5522,915.4563 76.5704,1034.4115 107.2917,1064.5833 C128.8448,1085.751 158.0167,1098.0521 187.4302,1105.0333 " fill="none" id="client-Consultar mis facturas" style="stroke:#2196F3;stroke-width:3.125;"/></g><!--link client to Descargar factura en PDF--><g id="link_client_Descargar factura en PDF"><path d="M41.9619,845.8677 C48.0715,934.899 65.3295,1113.2427 107.2917,1157.2917 C126.5479,1177.5063 152.6854,1189.851 179.7229,1197.2448 " fill="none" id="client-Descargar factura en PDF" style="stroke:#2196F3;stroke-width:3.125;"/></g><!--link client to Recibir factura por email--><g id="link_client_Recibir factura por email"><path d="M39.7204,845.9594 C42.1678,952.6 53.6484,1193.5896 107.2917,1252.0833 C126.524,1273.0552 153.15,1285.6219 180.7219,1292.9823 " fill="none" id="client-Recibir factura por email" style="stroke:#2196F3;stroke-width:3.125;"/></g><!--link client to Realizar reclamaci?n--><g id="link_client_Realizar reclamaci&#243;n"><path d="M38.2034,846.1552 C37.2486,968.7854 41.6905,1273.874 107.2917,1346.875 C128.7979,1370.8073 159.9667,1383.7063 191.3448,1390.3708 " fill="none" id="client-Realizar reclamaci&#243;n" style="stroke:#2196F3;stroke-width:3.125;"/></g><!--link client to Consultar mis reclamaciones--><g id="link_client_Consultar mis reclamaciones"><path d="M41.1453,845.9635 C47.4904,990.6354 68.5507,1395.0479 107.2917,1439.5833 C124.599,1459.4797 148.4979,1472.0728 173.776,1479.9161 " fill="none" id="client-Consultar mis reclamaciones" style="stroke:#2196F3;stroke-width:3.125;"/></g><!--SRC=[dP9DIWD148NtSueoAsUHGqX2N2gA1oXxQYO5_MEggWCg7icLHyZ5x9v8b1WdO4D3qtplzQlcNTYQ0a508s5iFFK6ba1uM1jqBEICKsmQT9O45fuf6W4gkF7OD9N0E7Y2sKfIDBZfUtO4zyzg56Rmsa1PUnhcSxYyeu7L9457yA0PXLDxp5oLLxVeUFSHAvR_mhfDPc61725csYPm9O6WJQ8uiWX-znu9g_-UenQELTUaTNmK2Am7SssdkRsn_dG-5YnIrEoj2BR9vq0HoYvJ-Yho7WDsg1EgZdJmIUaVkAktOVp-xkGmazdEIUhyVIbBbXE1bgGEPIZO5mB5_7QvQdztnF4ZVsDFfNiKaFq94Zs_5CVIm_eFOsVEv3kWAL89-VO9]--></g></svg>