<?xml version="1.0" encoding="us-ascii" standalone="no"?><svg xmlns="http://www.w3.org/2000/svg" xmlns:xlink="http://www.w3.org/1999/xlink" contentStyleType="text/css" height="1013.5417px" preserveAspectRatio="none" style="width:582px;height:1013px;" version="1.1" viewBox="0 0 582 1013" width="582.2917px" zoomAndPan="magnify"><defs><linearGradient id="gfrfd4fj2glz10" x1="50%" x2="50%" y1="0%" y2="100%"><stop offset="0%" stop-color="#FFFFFF"/><stop offset="100%" stop-color="#FFFFFF"/></linearGradient><filter height="300%" id="ffrfd4fj2glz1" width="300%" x="-1" y="-1"><feGaussianBlur result="blurOut" stdDeviation="2.0833333333333335"/><feColorMatrix in="blurOut" result="blurOut2" type="matrix" values="0 0 0 0 0 0 0 0 0 0 0 0 0 0 0 0 0 0 .4 0"/><feOffset dx="4.166666666666667" dy="4.166666666666667" in="blurOut2" result="blurOut3"/><feBlend in="SourceGraphic" in2="blurOut3" mode="normal"/></filter><linearGradient id="gfrfd4fj2glz11" x1="50%" x2="50%" y1="0%" y2="100%"><stop offset="0%" stop-color="#4DABF5"/><stop offset="100%" stop-color="#2196F3"/></linearGradient></defs><g><!--cluster Front Office System--><g id="cluster_Front Office System"><rect fill="url(#gfrfd4fj2glz10)" filter="url(#ffrfd4fj2glz1)" height="978.125" rx="4.1667" ry="4.1667" style="stroke:#2196F3;stroke-width:2.0833333333333335;" width="364.5833" x="200" y="17.7083"/><text fill="#2196F3" font-family="Verdana" font-size="12.5" font-weight="bold" lengthAdjust="spacing" textLength="153.125" x="305.7292" y="41.8111">Front Office System</text></g><g id="elem_Adquirir una l&#237;nea"><ellipse cx="382.4651" cy="426.062" fill="url(#gfrfd4fj2glz11)" filter="url(#ffrfd4fj2glz1)" rx="103.2985" ry="28.1453" style="stroke:#2196F3;stroke-width:2.0833333333333335;"/><text fill="#FFFFFF" font-family="Verdana" font-size="12.5" lengthAdjust="spacing" textLength="108.3333" x="328.2985" y="428.3061">Adquirir una l&#237;nea</text></g><g id="elem_Gestionar su contrato"><ellipse cx="382.3451" cy="192.7287" fill="url(#gfrfd4fj2glz11)" filter="url(#ffrfd4fj2glz1)" rx="122.4493" ry="28.1453" style="stroke:#2196F3;stroke-width:2.0833333333333335;"/><text fill="#FFFFFF" font-family="Verdana" font-size="12.5" lengthAdjust="spacing" textLength="135.4167" x="314.6368" y="194.9727">Gestionar su contrato</text></g><g id="elem_Gestionar sus l&#237;neas"><ellipse cx="382.1817" cy="100.0203" fill="url(#gfrfd4fj2glz11)" filter="url(#ffrfd4fj2glz1)" rx="116.5567" ry="28.1453" style="stroke:#2196F3;stroke-width:2.0833333333333335;"/><text fill="#FFFFFF" font-family="Verdana" font-size="12.5" lengthAdjust="spacing" textLength="127.0833" x="318.64" y="102.2644">Gestionar sus l&#237;neas</text></g><g id="elem_Consultar volumen mensual"><ellipse cx="382.3476" cy="557.3029" fill="url(#gfrfd4fj2glz11)" filter="url(#ffrfd4fj2glz1)" rx="138.5976" ry="30.2195" style="stroke:#2196F3;stroke-width:2.0833333333333335;"/><text fill="#FFFFFF" font-family="Verdana" font-size="12.5" lengthAdjust="spacing" textLength="171.875" x="296.4101" y="559.5469">Consultar volumen mensual</text></g><g id="elem_Consultar SMS"><ellipse cx="382.2277" cy="652.1037" fill="url(#gfrfd4fj2glz11)" filter="url(#ffrfd4fj2glz1)" rx="90.0402" ry="28.1453" style="stroke:#2196F3;stroke-width:2.0833333333333335;"/><text fill="#FFFFFF" font-family="Verdana" font-size="12.5" lengthAdjust="spacing" textLength="89.5833" x="337.436" y="654.3477">Consultar SMS</text></g><g id="elem_Consultar consumo de datos"><ellipse cx="382.4051" cy="748.0435" fill="url(#gfrfd4fj2glz11)" filter="url(#ffrfd4fj2glz1)" rx="141.7801" ry="30.856" style="stroke:#2196F3;stroke-width:2.0833333333333335;"/><text fill="#FFFFFF" font-family="Verdana" font-size="12.5" lengthAdjust="spacing" textLength="180.2083" x="292.3009" y="750.2876">Consultar consumo de datos</text></g><g id="elem_Consultar y descargar facturas en PDF"><ellipse cx="382.4142" cy="943.9828" fill="url(#gfrfd4fj2glz11)" filter="url(#ffrfd4fj2glz1)" rx="165.7476" ry="35.6495" style="stroke:#2196F3;stroke-width:2.0833333333333335;"/><text fill="#FFFFFF" font-family="Verdana" font-size="12.5" lengthAdjust="spacing" textLength="239.5833" x="262.6226" y="946.2269">Consultar y descargar facturas en PDF</text></g><g id="elem_Realizar consulta"><ellipse cx="382.3388" cy="843.7703" fill="url(#gfrfd4fj2glz11)" filter="url(#ffrfd4fj2glz1)" rx="101.0888" ry="28.1453" style="stroke:#2196F3;stroke-width:2.0833333333333335;"/><text fill="#FFFFFF" font-family="Verdana" font-size="12.5" lengthAdjust="spacing" textLength="105.2083" x="329.7346" y="846.0144">Realizar consulta</text></g><g id="elem_Asignar caracter&#237;sticas adicionales"><ellipse cx="382.2059" cy="327.0662" fill="url(#gfrfd4fj2glz11)" filter="url(#ffrfd4fj2glz1)" rx="156.6851" ry="33.837" style="stroke:#2196F3;stroke-width:2.0833333333333335;"/><text fill="#FFFFFF" font-family="Verdana" font-size="12.5" lengthAdjust="spacing" textLength="217.7083" x="273.3518" y="329.3102">Asignar caracter&#237;sticas adicionales</text></g><!--entity client--><g id="elem_client"><ellipse cx="38.0208" cy="548.9583" fill="url(#gfrfd4fj2glz11)" filter="url(#ffrfd4fj2glz1)" rx="8.3333" ry="8.3333" style="stroke:#2196F3;stroke-width:1.0416666666666667;"/><path d="M38.0208,557.2917 L38.0208,585.4167 M24.4792,565.625 L51.5625,565.625 M38.0208,585.4167 L24.4792,601.0417 M38.0208,585.4167 L51.5625,601.0417 " fill="none" filter="url(#ffrfd4fj2glz1)" style="stroke:#2196F3;stroke-width:1.0416666666666667;"/><text fill="#222222" font-family="Verdana" font-size="12.5" lengthAdjust="spacing" textLength="42.7083" x="16.6667" y="628.2694">Cliente</text></g><!--link client to Adquirir una l?nea--><g id="link_client_Adquirir una l&#237;nea"><path d="M54.1789,539.4073 C63.8103,515.5844 78.7689,489.0177 101.0417,472.9167 C152.4063,435.7844 222.8052,424.1188 280.1896,421.7094 " fill="none" id="client-Adquirir una l&#237;nea" style="stroke:#2196F3;stroke-width:3.125;"/></g><!--link client to Gestionar su contrato--><g id="link_client_Gestionar su contrato"><path d="M38.6981,539.3802 C39.1884,438.2698 46.6527,218.8062 101.0417,171.875 C129.1104,147.6552 222.6323,159.5406 293.9854,173.1948 " fill="none" id="client-Gestionar su contrato" style="stroke:#2196F3;stroke-width:3.125;"/></g><!--link client to Gestionar sus l?neas--><g id="link_client_Gestionar sus l&#237;neas"><path d="M38.5941,539.5302 C38.7598,433.1042 45.4485,192.9323 101.0417,137.5 C147.3542,91.3219 221.3708,83.0563 281.7042,85.7469 " fill="none" id="client-Gestionar sus l&#237;neas" style="stroke:#2196F3;stroke-width:3.125;"/></g><!--link client to Consultar volumen mensual--><g id="link_client_Consultar volumen mensual"><path d="M66.2269,539.4656 C75.4984,527.0073 87.117,515.2781 101.0417,508.3333 C174.0708,471.9115 269.575,502.9104 328.1094,529.4656 " fill="none" id="client-Consultar volumen mensual" style="stroke:#2196F3;stroke-width:3.125;"/></g><!--link client to Consultar SMS--><g id="link_client_Consultar SMS"><path d="M66.2269,641.7844 C75.4984,654.2427 87.117,665.9719 101.0417,672.9167 C171.1052,707.8604 263.4573,690.799 322.6104,673.2063 " fill="none" id="client-Consultar SMS" style="stroke:#2196F3;stroke-width:3.125;"/></g><!--link client to Consultar consumo de datos--><g id="link_client_Consultar consumo de datos"><path d="M56.319,641.8396 C66.1313,663.3667 80.627,686.6969 101.0417,701.0417 C141.2969,729.3281 192.724,742.6885 240.5052,748.4594 " fill="none" id="client-Consultar consumo de datos" style="stroke:#2196F3;stroke-width:3.125;"/></g><!--link client to Consultar y descargar facturas en PDF--><g id="link_client_Consultar y descargar facturas en PDF"><path d="M45.669,641.9854 C53.3961,688.0271 69.3973,756.0188 101.0417,807.2917 C129.7792,853.8552 143.8677,863.9917 191.6667,890.625 C213.1656,902.6042 237.5677,912.0473 261.5385,919.4334 " fill="none" id="client-Consultar y descargar facturas en PDF" style="stroke:#2196F3;stroke-width:3.125;"/></g><!--link client to Realizar consulta--><g id="link_client_Realizar consulta"><path d="M50.7557,641.9958 C60.1123,674.0802 75.916,714.6708 101.0417,743.75 C147.6448,797.6854 225.4292,822.5302 287.2354,833.975 " fill="none" id="client-Realizar consulta" style="stroke:#2196F3;stroke-width:3.125;"/></g><!--link Asignar caracter?sticas adicionales to Gestionar sus l?neas--><g id="link_Asignar caracter&#237;sticas adicionales_Gestionar sus l&#237;neas"><path d="M234.1771,338.274 C198.6344,333.1865 164.1865,320.3219 140.625,293.2292 C103.8766,250.974 144.4135,185.7604 191.6667,146.875 C214.5615,128.0344 237.833,118.045 266.6059,111.1398 " fill="none" id="Asignar caracter&#237;sticas adicionales-to-Gestionar sus l&#237;neas" style="stroke:#2196F3;stroke-width:3.125;stroke-dasharray:7.0,7.0;"/><polygon fill="#2196F3" points="272.6833,109.6812,262.5948,107.8174,267.6188,110.8967,264.5395,115.9207,272.6833,109.6812" style="stroke:#2196F3;stroke-width:3.125;"/><text fill="#222222" font-family="Verdana" font-size="12.5" lengthAdjust="spacing" textLength="59.375" x="112.5" y="279.8319">&#171;extend&#187;</text></g><!--link Asignar caracter?sticas adicionales to Gestionar su contrato--><g id="link_Asignar caracter&#237;sticas adicionales_Gestionar su contrato"><path d="M382.2917,293.175 C382.2917,270.9385 382.2917,248.4458 382.2917,227.4042 " fill="none" id="Asignar caracter&#237;sticas adicionales-to-Gestionar su contrato" style="stroke:#2196F3;stroke-width:3.125;stroke-dasharray:7.0,7.0;"/><polygon fill="#2196F3" points="382.2917,221.1542,378.125,230.5292,382.2917,226.3625,386.4583,230.5292,382.2917,221.1542" style="stroke:#2196F3;stroke-width:3.125;"/><text fill="#222222" font-family="Verdana" font-size="12.5" lengthAdjust="spacing" textLength="59.375" x="331.25" y="261.8632">&#171;extend&#187;</text></g><!--link Gestionar sus l?neas to Adquirir una l?nea--><g id="link_Gestionar sus l&#237;neas_Adquirir una l&#237;nea"><path d="M266.2885,103.1656 C217.7667,111.2969 166.675,130.5146 140.625,173.4375 C91.7477,253.9729 123.351,314.2979 191.6667,379.1667 C215.6396,401.9292 242.6862,412.9409 274.6466,419.367 " fill="none" id="Gestionar sus l&#237;neas-to-Adquirir una l&#237;nea" style="stroke:#2196F3;stroke-width:3.125;stroke-dasharray:7.0,7.0;"/><polygon fill="#2196F3" points="280.774,420.599,272.4042,414.6661,275.6678,419.5723,270.7616,422.8359,280.774,420.599" style="stroke:#2196F3;stroke-width:3.125;"/><text fill="#222222" font-family="Verdana" font-size="12.5" lengthAdjust="spacing" textLength="59.375" x="112.5" y="196.4986">&#171;extend&#187;</text></g><!--link Gestionar sus l?neas to Adquirir una l?nea--><g id="link_Gestionar sus l&#237;neas_Adquirir una l&#237;nea"><path d="M266.2885,103.1656 C217.7667,111.2969 166.675,130.5146 140.625,173.4375 C91.7477,253.9729 123.351,314.2979 191.6667,379.1667 C215.6396,401.9292 242.6862,412.9409 274.6466,419.367 " fill="none" id="Gestionar sus l&#237;neas-to-Adquirir una l&#237;nea-1" style="stroke:#2196F3;stroke-width:3.125;stroke-dasharray:7.0,7.0;"/><polygon fill="#2196F3" points="280.774,420.599,272.4042,414.6661,275.6678,419.5723,270.7616,422.8359,280.774,420.599" style="stroke:#2196F3;stroke-width:3.125;"/><text fill="#222222" font-family="Verdana" font-size="12.5" lengthAdjust="spacing" textLength="59.375" x="112.5" y="196.4986">&#171;extend&#187;</text></g><!--link Consultar volumen mensual to Adquirir una l?nea--><g id="link_Consultar volumen mensual_Adquirir una l&#237;nea"><path d="M382.2917,526.85 C382.2917,505.0406 382.2917,482.1208 382.2917,460.7708 " fill="none" id="Consultar volumen mensual-to-Adquirir una l&#237;nea" style="stroke:#2196F3;stroke-width:3.125;stroke-dasharray:7.0,7.0;"/><polygon fill="#2196F3" points="382.2917,454.5208,378.125,463.8958,382.2917,459.7292,386.4583,463.8958,382.2917,454.5208" style="stroke:#2196F3;stroke-width:3.125;"/><text fill="#222222" font-family="Verdana" font-size="12.5" lengthAdjust="spacing" textLength="59.375" x="331.25" y="495.4569">&#171;extend&#187;</text></g><!--link Consultar SMS to Adquirir una l?nea--><g id="link_Consultar SMS_Adquirir una l&#237;nea"><path d="M296.7135,643.2104 C262.1781,636.7448 223.1417,625.5688 191.6667,606.25 C150.3646,580.899 112.5302,549.3823 140.625,509.8958 C172.9365,464.4833 225.5039,444.5957 276.9654,434.9457 " fill="none" id="Consultar SMS-to-Adquirir una l&#237;nea" style="stroke:#2196F3;stroke-width:3.125;stroke-dasharray:7.0,7.0;"/><polygon fill="#2196F3" points="283.1083,433.7938,273.126,431.4263,277.9892,434.7537,274.6619,439.6169,283.1083,433.7938" style="stroke:#2196F3;stroke-width:3.125;"/><text fill="#222222" font-family="Verdana" font-size="12.5" lengthAdjust="spacing" textLength="59.375" x="112.5" y="532.9569">&#171;extend&#187;</text></g><!--link Consultar consumo de datos to Adquirir una l?nea--><g id="link_Consultar consumo de datos_Adquirir una l&#237;nea"><path d="M258.1885,732.9813 C234.2208,725.6406 210.6854,714.8313 191.6667,698.9583 C138.4427,654.5375 111.0938,614.2844 140.625,551.5625 C169.2229,490.824 234.4396,460.5571 292.2052,444.1228 " fill="none" id="Consultar consumo de datos-to-Adquirir una l&#237;nea" style="stroke:#2196F3;stroke-width:3.125;stroke-dasharray:7.0,7.0;"/><polygon fill="#2196F3" points="298.2167,442.4125,288.0593,440.9703,293.2071,443.8377,290.3397,448.9855,298.2167,442.4125" style="stroke:#2196F3;stroke-width:3.125;"/><text fill="#222222" font-family="Verdana" font-size="12.5" lengthAdjust="spacing" textLength="59.375" x="112.5" y="574.6236">&#171;extend&#187;</text></g><!--link Realizar consulta to Adquirir una l?nea--><g id="link_Realizar consulta_Adquirir una l&#237;nea"><path d="M282.7938,838.65 C250.2344,832.3292 216.1729,820.0656 191.6667,796.875 C135.2354,743.476 152.0927,706.5281 140.625,629.6875 C132.051,572.2385 147.924,547.5906 191.6667,509.375 C225.3948,479.9083 265.2686,461.4853 303.5103,448.2082 " fill="none" id="Realizar consulta-to-Adquirir una l&#237;nea" style="stroke:#2196F3;stroke-width:3.125;stroke-dasharray:7.0,7.0;"/><polygon fill="#2196F3" points="309.4146,446.1583,299.1916,445.297,304.4944,447.8666,301.9248,453.1694,309.4146,446.1583" style="stroke:#2196F3;stroke-width:3.125;"/><text fill="#222222" font-family="Verdana" font-size="12.5" lengthAdjust="spacing" textLength="59.375" x="112.5" y="616.2903">&#171;extend&#187;</text></g><!--link Consultar y descargar facturas en PDF to Adquirir una l?nea--><g id="link_Consultar y descargar facturas en PDF_Adquirir una l&#237;nea"><path d="M243.2469,924.1904 C223.9719,916.3382 205.925,905.5115 191.6667,890.625 C122.4542,818.3646 152.0417,770.7594 140.625,671.3542 C132.0125,596.3667 138.9896,563.4344 191.6667,509.375 C222.2927,477.9448 260.8563,459.5477 299.1563,446.8227 " fill="none" id="Consultar y descargar facturas en PDF-to-Adquirir una l&#237;nea" style="stroke:#2196F3;stroke-width:3.125;stroke-dasharray:7.0,7.0;"/><polygon fill="#2196F3" points="305.0875,444.8521,294.877,443.8539,300.1448,446.4943,297.5044,451.7621,305.0875,444.8521" style="stroke:#2196F3;stroke-width:3.125;"/><text fill="#222222" font-family="Verdana" font-size="12.5" lengthAdjust="spacing" textLength="59.375" x="112.5" y="657.9569">&#171;extend&#187;</text></g><!--SRC=[hP9HIWCn48RVSugnJzs7UW0f2wLIdqHnJp0aizj0Di5a8bRnI3r5B-QaAeBRBhQwi32mttoJpByNlAQUe4UcQ54vQXauGBJTci7OI9fjy4gXvX1XwInv9i04UbygLGZqdIEOh6Bm37TjQpL1iqbC_GHU5SZpGSDi1jE5USmssWZP8xZTrXDMy1EweLJcOeIKGOis8eTgZ4gVhZIWbi6dx5Yef-1oJnxaJHdT2DdSDYDVTQdw08R0oBd6Hcu4IXfZ9tKhIynHTYT7kBzU3ReU29rz-V9BUo7sq7IHR5VkAIQHKDnjvUPQL6YiBYjmb2guh8_j1AvWFgTd9c_g-Y_Axp0EA8_CBew3gGyDnxCwpr9oFAzpaF4fcc6IftJ_vnh7_hzV6j_U0G00]--></g></svg>